0
SECTION
2
HEADER
9
$INSUNITS
70
4
9
$ACADVER
1
AC1014
9
$HANDSEED
5
FFFF
0
ENDSEC
0
SECTION
2
TABLES
0
TABLE
2
VPORT
5
8
100
AcDbSymbolTable
0
ENDTAB
0
TABLE
2
LTYPE
5
5
100
AcDbSymbolTable
0
LTYPE
5
14
100
AcDbSymbolTableRecord
100
AcDbLinetypeTableRecord
2
BYBLOCK
70
0
0
LTYPE
5
15
100
AcDbSymbolTableRecord
100
AcDbLinetypeTableRecord
2
BYLAYER
70
0
0
ENDTAB
0
TABLE
2
LAYER
5
2
100
AcDbSymbolTable
70
2
0
LAYER
5
50
100
AcDbSymbolTableRecord
100
AcDbLayerTableRecord
2
0
70
0
6
CONTINUOUS
0
ENDTAB
0
TABLE
2
STYLE
5
3
100
AcDbSymbolTable
70
1
0
STYLE
5
11
100
AcDbSymbolTableRecord
100
AcDbTextStyleTableRecord
2
STANDARD
70
0
0
ENDTAB
0
TABLE
2
VIEW
5
6
100
AcDbSymbolTable
70
0
0
ENDTAB
0
TABLE
2
UCS
5
7
100
AcDbSymbolTable
70
0
0
ENDTAB
0
TABLE
2
APPID
5
9
100
AcDbSymbolTable
70
2
0
APPID
5
12
100
AcDbSymbolTableRecord
100
AcDbRegAppTableRecord
2
ACAD
70
0
0
ENDTAB
0
TABLE
2
DIMSTYLE
5
A
100
AcDbSymbolTable
70
1
0
ENDTAB
0
TABLE
2
BLOCK_RECORD
5
1
100
AcDbSymbolTable
70
1
0
BLOCK_RECORD
5
1F
100
AcDbSymbolTableRecord
100
AcDbBlockTableRecord
2
*MODEL_SPACE
0
BLOCK_RECORD
5
1B
100
AcDbSymbolTableRecord
100
AcDbBlockTableRecord
2
*PAPER_SPACE
0
ENDTAB
0
ENDSEC
0
SECTION
2
BLOCKS
0
BLOCK
5
20
100
AcDbEntity
100
AcDbBlockBegin
2
*MODEL_SPACE
0
ENDBLK
5
21
100
AcDbEntity
100
AcDbBlockEnd
0
BLOCK
5
1C
100
AcDbEntity
100
AcDbBlockBegin
2
*PAPER_SPACE
0
ENDBLK
5
1D
100
AcDbEntity
100
AcDbBlockEnd
0
ENDSEC
0
SECTION
2
ENTITIES
0
LWPOLYLINE
5
100
100
AcDbEntity
8
OUTER_PROFILES
100
AcDbPolyline
90
8
70
1
43
0.0
10
629.33393819301659
20
294.86859999999984
10
49.753937288734562
20
294.8685999999999
42
0.36397023426620206
10
43.500408057107087
20
289.62126592818493
10
-6.2535292316275681
20
7.4526659281850289
42
0.46630765815499875
10
0
20
0
10
679.08787548175098
20
-7.1054273576010019e-14
42
0.46630765815499714
10
685.34140471337855
20
7.452665928184885
10
635.58746742464405
20
289.62126592818487
42
0.36397023426620051
0
CIRCLE
5
101
100
AcDbEntity
8
INTERIOR_PROFILES
100
AcDbCircle
10
466.14753774087558
20
158.42499999999995
30
0
40
1.7000000000000171
0
CIRCLE
5
102
100
AcDbEntity
8
INTERIOR_PROFILES
100
AcDbCircle
10
292.04393774087561
20
123.31304174157009
30
0
40
1.6999999999999815
0
CIRCLE
5
103
100
AcDbEntity
8
INTERIOR_PROFILES
100
AcDbCircle
10
387.0439377411451
20
123.31304174156885
30
0
40
1.7000000000000171
0
LWPOLYLINE
5
104
100
AcDbEntity
8
INTERIOR_PROFILES
100
AcDbPolyline
90
4
70
1
43
0.0
10
193.49393774087559
20
269.46859999999992
10
193.49393774087559
20
247.24359999999979
10
190.31893774087561
20
247.24359999999979
10
190.31893774087561
20
269.46859999999992
0
LWPOLYLINE
5
105
100
AcDbEntity
8
INTERIOR_PROFILES
100
AcDbPolyline
90
4
70
1
43
0.0
10
218.89393774087557
20
247.24359999999979
10
218.89393774087557
20
269.46859999999992
10
222.06893774087558
20
269.46859999999992
10
222.06893774087558
20
247.24359999999979
0
LWPOLYLINE
5
106
100
AcDbEntity
8
INTERIOR_PROFILES
100
AcDbPolyline
90
4
70
1
43
0.0
10
241.11893774087559
20
269.46859999999992
10
241.11893774087559
20
247.24359999999979
10
237.94393774087558
20
247.24359999999979
10
237.94393774087558
20
269.46859999999992
0
LWPOLYLINE
5
107
100
AcDbEntity
8
INTERIOR_PROFILES
100
AcDbPolyline
90
4
70
1
43
0.0
10
323.66893774087555
20
269.46859999999987
10
326.84393774087562
20
269.46859999999987
10
326.84393774087562
20
247.24359999999976
10
323.66893774087555
20
247.24359999999976
0
LWPOLYLINE
5
108
100
AcDbEntity
8
INTERIOR_PROFILES
100
AcDbPolyline
90
4
70
1
43
0.0
10
180.79393774087561
20
247.24359999999979
10
180.79393774087561
20
269.46859999999992
10
183.96893774087562
20
269.46859999999992
10
183.96893774087559
20
247.24359999999979
0
LWPOLYLINE
5
109
100
AcDbEntity
8
INTERIOR_PROFILES
100
AcDbPolyline
90
4
70
1
43
0.0
10
203.0189377408756
20
247.24359999999979
10
199.84393774087562
20
247.24359999999979
10
199.84393774087562
20
269.46859999999992
10
203.0189377408756
20
269.46859999999992
0
LWPOLYLINE
5
110
100
AcDbEntity
8
INTERIOR_PROFILES
100
AcDbPolyline
90
4
70
1
43
0.0
10
479.24393774087559
20
269.46859999999987
10
479.24393774087559
20
247.24359999999976
10
476.06893774087564
20
247.24359999999976
10
476.06893774087564
20
269.46859999999987
0
LWPOLYLINE
5
111
100
AcDbEntity
8
INTERIOR_PROFILES
100
AcDbPolyline
90
4
70
1
43
0.0
10
450.66893774087561
20
269.46859999999987
10
450.66893774087561
20
247.24359999999976
10
447.49393774087565
20
247.24359999999976
10
447.49393774087565
20
269.46859999999987
0
LWPOLYLINE
5
112
100
AcDbEntity
8
INTERIOR_PROFILES
100
AcDbPolyline
90
4
70
1
43
0.0
10
460.19393774087564
20
269.46859999999987
10
460.19393774087564
20
247.24359999999976
10
457.01893774087569
20
247.24359999999976
10
457.01893774087569
20
269.46859999999987
0
LWPOLYLINE
5
113
100
AcDbEntity
8
INTERIOR_PROFILES
100
AcDbPolyline
90
4
70
1
43
0.0
10
469.71893774087562
20
269.46859999999987
10
469.71893774087562
20
247.24359999999976
10
466.54393774087566
20
247.24359999999976
10
466.54393774087566
20
269.46859999999987
0
LWPOLYLINE
5
114
100
AcDbEntity
8
INTERIOR_PROFILES
100
AcDbPolyline
90
4
70
1
43
0.0
10
441.14393774087557
20
269.46859999999987
10
441.14393774087557
20
247.24359999999976
10
437.96893774087562
20
247.24359999999976
10
437.96893774087562
20
269.46859999999987
0
LWPOLYLINE
5
115
100
AcDbEntity
8
INTERIOR_PROFILES
100
AcDbPolyline
90
4
70
1
43
0.0
10
307.79393774087561
20
247.24359999999979
10
304.61893774087559
20
247.24359999999979
10
304.61893774087559
20
269.46859999999987
10
307.79393774087561
20
269.46859999999987
0
LWPOLYLINE
5
116
100
AcDbEntity
8
INTERIOR_PROFILES
100
AcDbPolyline
90
4
70
1
43
0.0
10
212.54393774087558
20
247.24359999999979
10
209.36893774087559
20
247.24359999999979
10
209.36893774087559
20
269.46859999999992
10
212.54393774087558
20
269.46859999999992
0
LWPOLYLINE
5
117
100
AcDbEntity
8
INTERIOR_PROFILES
100
AcDbPolyline
90
4
70
1
43
0.0
10
279.21893774087556
20
247.24359999999979
10
276.04393774087561
20
247.24359999999979
10
276.04393774087561
20
269.46859999999992
10
279.21893774087562
20
269.46859999999992
0
LWPOLYLINE
5
118
100
AcDbEntity
8
INTERIOR_PROFILES
100
AcDbPolyline
90
4
70
1
43
0.0
10
317.31893774087558
20
247.24359999999976
10
314.14393774087563
20
247.24359999999976
10
314.14393774087563
20
269.46859999999987
10
317.31893774087558
20
269.46859999999987
0
LWPOLYLINE
5
119
100
AcDbEntity
8
INTERIOR_PROFILES
100
AcDbPolyline
90
4
70
1
43
0.0
10
231.59393774087559
20
247.24359999999979
10
228.41893774087561
20
247.24359999999979
10
228.41893774087561
20
269.46859999999992
10
231.59393774087559
20
269.46859999999992
0
CIRCLE
5
120
100
AcDbEntity
8
INTERIOR_PROFILES
100
AcDbCircle
10
124.55333774087548
20
282.89700276181566
30
0
40
1.7000000000000171
0
CIRCLE
5
121
100
AcDbEntity
8
INTERIOR_PROFILES
100
AcDbCircle
10
124.55333774087556
20
11.466031412359783
30
0
40
1.7000000000000171
0
CIRCLE
5
122
100
AcDbEntity
8
INTERIOR_PROFILES
100
AcDbCircle
10
339.54393774087566
20
11.466031412359747
30
0
40
1.7000000000000171
0
CIRCLE
5
123
100
AcDbEntity
8
INTERIOR_PROFILES
100
AcDbCircle
10
339.54393774087555
20
282.8970027618156
30
0
40
1.7000000000000171
0
CIRCLE
5
124
100
AcDbEntity
8
INTERIOR_PROFILES
100
AcDbCircle
10
554.53453774087563
20
282.89700276181554
30
0
40
1.7000000000000171
0
CIRCLE
5
125
100
AcDbEntity
8
INTERIOR_PROFILES
100
AcDbCircle
10
554.53453774087575
20
11.466031412359712
30
0
40
1.7000000000000171
0
CIRCLE
5
126
100
AcDbEntity
8
INTERIOR_PROFILES
100
AcDbCircle
10
510.59753774087551
20
158.42499999999995
30
0
40
1.7000000000000171
0
CIRCLE
5
127
100
AcDbEntity
8
INTERIOR_PROFILES
100
AcDbCircle
10
387.04393774087566
20
214.16304174157011
30
0
40
1.7000000000000171
0
CIRCLE
5
128
100
AcDbEntity
8
INTERIOR_PROFILES
100
AcDbCircle
10
510.59753774087551
20
63.17499999999999
30
0
40
1.7000000000000171
0
CIRCLE
5
129
100
AcDbEntity
8
INTERIOR_PROFILES
100
AcDbCircle
10
466.14753774087558
20
63.175000000000026
30
0
40
1.7000000000000171
0
CIRCLE
5
130
100
AcDbEntity
8
INTERIOR_PROFILES
100
AcDbCircle
10
292.04393774087561
20
214.16304174157005
30
0
40
1.6999999999999815
0
LWPOLYLINE
5
131
100
AcDbEntity
8
INTERIOR_PROFILES
100
AcDbPolyline
90
4
70
1
43
0.0
10
171.2689377408756
20
247.24359999999979
10
171.2689377408756
20
269.46859999999992
10
174.44393774087558
20
269.46859999999992
10
174.44393774087558
20
247.24359999999979
0
LWPOLYLINE
5
132
100
AcDbEntity
8
INTERIOR_PROFILES
100
AcDbPolyline
90
4
70
1
43
0.0
10
333.19393774087558
20
247.24359999999976
10
333.19393774087558
20
269.46859999999987
10
336.36893774087559
20
269.46859999999987
10
336.36893774087559
20
247.24359999999976
0
LWPOLYLINE
5
133
100
AcDbEntity
8
INTERIOR_PROFILES
100
AcDbPolyline
90
4
70
1
43
0.0
10
161.74393774087559
20
247.24359999999979
10
161.74393774087559
20
269.46859999999992
10
164.91893774087558
20
269.46859999999992
10
164.91893774087558
20
247.24359999999979
0
LWPOLYLINE
5
134
100
AcDbEntity
8
INTERIOR_PROFILES
100
AcDbPolyline
90
4
70
1
43
0.0
10
295.09393774087562
20
247.24359999999979
10
295.09393774087562
20
269.46859999999992
10
298.26893774087557
20
269.46859999999992
10
298.26893774087557
20
247.24359999999979
0
LWPOLYLINE
5
135
100
AcDbEntity
8
INTERIOR_PROFILES
100
AcDbPolyline
90
4
70
1
43
0.0
10
247.46893774087562
20
247.24359999999979
10
247.46893774087562
20
269.46859999999992
10
250.6439377408756
20
269.46859999999992
10
250.6439377408756
20
247.24359999999979
0
LWPOLYLINE
5
136
100
AcDbEntity
8
INTERIOR_PROFILES
100
AcDbPolyline
90
4
70
1
43
0.0
10
285.56893774087558
20
247.24359999999979
10
285.56893774087558
20
269.46859999999992
10
288.74393774087559
20
269.46859999999992
10
288.74393774087559
20
247.24359999999979
0
LWPOLYLINE
5
137
100
AcDbEntity
8
INTERIOR_PROFILES
100
AcDbPolyline
90
4
70
1
43
0.0
10
266.51893774087569
20
247.24359999999979
10
266.51893774087557
20
269.46859999999992
10
269.69393774087558
20
269.46859999999992
10
269.69393774087558
20
247.24359999999979
0
LWPOLYLINE
5
138
100
AcDbEntity
8
INTERIOR_PROFILES
100
AcDbPolyline
90
4
70
1
43
0.0
10
256.99393774087559
20
247.24359999999979
10
256.99393774087559
20
269.46859999999992
10
260.16893774087561
20
269.46859999999992
10
260.16893774087561
20
247.24359999999979
0
LWPOLYLINE
5
139
100
AcDbEntity
8
INTERIOR_PROFILES
100
AcDbPolyline
90
4
70
1
43
0.0
10
152.21893774087562
20
247.24359999999979
10
152.21893774087562
20
269.46859999999992
10
155.39393774087557
20
269.46859999999992
10
155.39393774087557
20
247.24359999999979
0
LWPOLYLINE
5
140
100
AcDbEntity
8
INTERIOR_PROFILES
100
AcDbPolyline
90
4
70
1
43
0.0
10
536.39393774087569
20
247.24359999999973
10
533.21893774087573
20
247.24359999999973
10
533.21893774087573
20
269.46859999999981
10
536.39393774087569
20
269.46859999999981
0
LWPOLYLINE
5
141
100
AcDbEntity
8
INTERIOR_PROFILES
100
AcDbPolyline
90
4
70
1
43
0.0
10
142.69393774087558
20
247.24359999999984
10
142.69393774087558
20
269.46859999999992
10
145.86893774087554
20
269.46859999999992
10
145.86893774087554
20
247.24359999999979
0
LWPOLYLINE
5
142
100
AcDbEntity
8
INTERIOR_PROFILES
100
AcDbPolyline
90
4
70
1
43
0.0
10
517.34393774087562
20
247.24359999999973
10
514.16893774087566
20
247.24359999999973
10
514.16893774087566
20
269.46859999999981
10
517.34393774087562
20
269.46859999999981
0
LWPOLYLINE
5
143
100
AcDbEntity
8
INTERIOR_PROFILES
100
AcDbPolyline
90
4
70
1
43
0.0
10
114.11893774087557
20
247.24359999999984
10
114.11893774087557
20
269.46859999999992
10
117.29393774087558
20
269.46859999999992
10
117.29393774087558
20
247.24359999999984
0
LWPOLYLINE
5
144
100
AcDbEntity
8
INTERIOR_PROFILES
100
AcDbPolyline
90
4
70
1
43
0.0
10
342.71893774087567
20
247.24359999999976
10
342.71893774087567
20
269.46859999999987
10
345.89393774087563
20
269.46859999999987
10
345.89393774087563
20
247.24359999999976
0
LWPOLYLINE
5
145
100
AcDbEntity
8
INTERIOR_PROFILES
100
AcDbPolyline
90
4
70
1
43
0.0
10
526.86893774087559
20
247.24359999999973
10
523.69393774087564
20
247.24359999999973
10
523.69393774087564
20
269.46859999999981
10
526.86893774087559
20
269.46859999999981
0
LWPOLYLINE
5
146
100
AcDbEntity
8
INTERIOR_PROFILES
100
AcDbPolyline
90
4
70
1
43
0.0
10
564.96893774087562
20
269.46859999999981
10
564.96893774087562
20
247.24359999999973
10
561.79393774087555
20
247.24359999999973
10
561.79393774087555
20
269.46859999999981
0
LWPOLYLINE
5
147
100
AcDbEntity
8
INTERIOR_PROFILES
100
AcDbPolyline
90
4
70
1
43
0.0
10
555.44393774087564
20
269.46859999999981
10
555.44393774087564
20
247.24359999999973
10
552.26893774087557
20
247.24359999999973
10
552.26893774087557
20
269.46859999999981
0
LWPOLYLINE
5
148
100
AcDbEntity
8
INTERIOR_PROFILES
100
AcDbPolyline
90
4
70
1
43
0.0
10
498.29393774087566
20
269.46859999999981
10
498.29393774087566
20
247.24359999999973
10
495.11893774087554
20
247.24359999999973
10
495.11893774087554
20
269.46859999999981
0
LWPOLYLINE
5
149
100
AcDbEntity
8
INTERIOR_PROFILES
100
AcDbPolyline
90
4
70
1
43
0.0
10
488.76893774087563
20
269.46859999999987
10
488.76893774087563
20
247.24359999999973
10
485.59393774087567
20
247.24359999999973
10
485.59393774087567
20
269.46859999999987
0
LWPOLYLINE
5
150
100
AcDbEntity
8
INTERIOR_PROFILES
100
AcDbPolyline
90
4
70
1
43
0.0
10
422.09393774087562
20
269.46859999999987
10
422.09393774087562
20
247.24359999999976
10
418.91893774087566
20
247.24359999999976
10
418.91893774087566
20
269.46859999999987
0
LWPOLYLINE
5
151
100
AcDbEntity
8
INTERIOR_PROFILES
100
AcDbPolyline
90
4
70
1
43
0.0
10
431.61893774087559
20
269.46859999999987
10
431.61893774087559
20
247.24359999999976
10
428.44393774087564
20
247.24359999999976
10
428.44393774087564
20
269.46859999999987
0
LWPOLYLINE
5
152
100
AcDbEntity
8
INTERIOR_PROFILES
100
AcDbPolyline
90
4
70
1
43
0.0
10
136.34393774087559
20
247.24359999999984
10
133.16893774087558
20
247.24359999999984
10
133.16893774087558
20
269.46859999999992
10
136.34393774087559
20
269.46859999999992
0
LWPOLYLINE
5
153
100
AcDbEntity
8
INTERIOR_PROFILES
100
AcDbPolyline
90
4
70
1
43
0.0
10
412.56893774087558
20
269.46859999999987
10
412.56893774087558
20
247.24359999999976
10
409.39393774087563
20
247.24359999999976
10
409.39393774087563
20
269.46859999999987
0
LWPOLYLINE
5
154
100
AcDbEntity
8
INTERIOR_PROFILES
100
AcDbPolyline
90
4
70
1
43
0.0
10
393.51893774087557
20
247.24359999999976
10
390.34393774087562
20
247.24359999999976
10
390.34393774087573
20
269.46859999999987
10
393.51893774087557
20
269.46859999999987
0
LWPOLYLINE
5
155
100
AcDbEntity
8
INTERIOR_PROFILES
100
AcDbPolyline
90
4
70
1
43
0.0
10
399.86893774087571
20
269.46859999999987
10
403.04393774087555
20
269.46859999999987
10
403.04393774087555
20
247.24359999999976
10
399.86893774087559
20
247.24359999999976
0
LWPOLYLINE
5
156
100
AcDbEntity
8
INTERIOR_PROFILES
100
AcDbPolyline
90
4
70
1
43
0.0
10
383.99393774087559
20
269.46859999999987
10
383.99393774087559
20
247.24359999999976
10
380.81893774087564
20
247.24359999999976
10
380.81893774087575
20
269.46859999999987
0
LWPOLYLINE
5
157
100
AcDbEntity
8
INTERIOR_PROFILES
100
AcDbPolyline
90
4
70
1
43
0.0
10
545.91893774087566
20
269.46859999999981
10
545.91893774087566
20
247.24359999999973
10
542.74393774087559
20
247.24359999999973
10
542.74393774087559
20
269.46859999999981
0
LWPOLYLINE
5
158
100
AcDbEntity
8
INTERIOR_PROFILES
100
AcDbPolyline
90
4
70
1
43
0.0
10
355.41893774087561
20
269.46859999999987
10
355.41893774087561
20
247.24359999999976
10
352.24393774087559
20
247.24359999999976
10
352.24393774087559
20
269.46859999999987
0
LWPOLYLINE
5
159
100
AcDbEntity
8
INTERIOR_PROFILES
100
AcDbPolyline
90
4
70
1
43
0.0
10
374.46893774087556
20
269.46859999999987
10
374.46893774087556
20
247.24359999999976
10
371.29393774087561
20
247.24359999999976
10
371.29393774087578
20
269.46859999999987
0
LWPOLYLINE
5
160
100
AcDbEntity
8
INTERIOR_PROFILES
100
AcDbPolyline
90
4
70
1
43
0.0
10
126.81893774087555
20
247.24359999999984
10
123.64393774087557
20
247.24359999999984
10
123.64393774087557
20
269.46859999999992
10
126.81893774087555
20
269.46859999999992
0
LWPOLYLINE
5
161
100
AcDbEntity
8
INTERIOR_PROFILES
100
AcDbPolyline
90
4
70
1
43
0.0
10
364.94393774087564
20
269.46859999999987
10
364.94393774087564
20
247.24359999999976
10
361.76893774087557
20
247.24359999999976
10
361.76893774087574
20
269.46859999999987
0
LWPOLYLINE
5
162
100
AcDbEntity
8
INTERIOR_PROFILES
100
AcDbPolyline
90
4
70
1
43
0.0
10
507.81893774087564
20
269.46859999999981
10
507.81893774087564
20
247.24359999999973
10
504.64393774087563
20
247.24359999999973
10
504.64393774087563
20
269.46859999999981
0
LINE
5
163
100
AcDbEntity
8
BEND
100
AcDbLine
10
83.958851213951135
20
294.86860000000007
30
-2.4533045515441611e-12
11
83.958851213951078
21
7.1054273576010019e-14
31
-1.882490748035526e-12
0
LINE
5
164
100
AcDbEntity
8
BEND
100
AcDbLine
10
595.12902426779999
20
-1.4210854715202004e-13
30
-8.2891050892321586e-12
11
595.12902426779999
21
294.86859999999979
31
-8.8952868606774941e-12
0
LINE
5
165
100
AcDbEntity
8
BEND_EXTENT
100
AcDbLine
10
592.78853774087565
20
-3.5527136788005009e-14
30
-8.3134994672681939e-12
11
592.78853774087565
21
294.86859999999979
31
-8.7398251087242541e-12
0
LINE
5
166
100
AcDbEntity
8
BEND_EXTENT
100
AcDbLine
10
86.2993377408756
20
294.8685999999999
30
-2.4865621863629844e-12
11
86.299337740875529
21
7.1054273576010019e-14
31
-2.0602365449069235e-12
0
LINE
5
167
100
AcDbEntity
8
BEND_EXTENT
100
AcDbLine
10
597.46951079472433
20
294.86859999999979
30
-8.9397263101682201e-12
11
597.46951079472433
21
-1.4210854715202004e-13
31
-8.3357649847721333e-12
0
LINE
5
168
100
AcDbEntity
8
BEND_EXTENT
100
AcDbLine
10
81.618364687026684
20
7.1054273576010019e-14
30
-1.8248082066749509e-12
11
81.618364687026755
21
294.86860000000007
31
-2.4287695320710368e-12
0
ENDSEC
0
SECTION
2
OBJECTS
0
DICTIONARY
5
C
100
AcDbDictionary
3
ACAD_GROUP
350
D
3
ACAD_MLINESTYLE
350
17
0
DICTIONARY
5
D
100
AcDbDictionary
0
DICTIONARY
5
1A
330
C
100
AcDbDictionary
0
DICTIONARY
5
17
100
AcDbDictionary
0
ENDSEC
0
EOF
