0
SECTION
2
HEADER
9
$INSUNITS
70
4
9
$ACADVER
1
AC1014
9
$HANDSEED
5
FFFF
0
ENDSEC
0
SECTION
2
TABLES
0
TABLE
2
VPORT
5
8
100
AcDbSymbolTable
0
ENDTAB
0
TABLE
2
LTYPE
5
5
100
AcDbSymbolTable
0
LTYPE
5
14
100
AcDbSymbolTableRecord
100
AcDbLinetypeTableRecord
2
BYBLOCK
70
0
0
LTYPE
5
15
100
AcDbSymbolTableRecord
100
AcDbLinetypeTableRecord
2
BYLAYER
70
0
0
ENDTAB
0
TABLE
2
LAYER
5
2
100
AcDbSymbolTable
70
2
0
LAYER
5
50
100
AcDbSymbolTableRecord
100
AcDbLayerTableRecord
2
0
70
0
6
CONTINUOUS
0
ENDTAB
0
TABLE
2
STYLE
5
3
100
AcDbSymbolTable
70
1
0
STYLE
5
11
100
AcDbSymbolTableRecord
100
AcDbTextStyleTableRecord
2
STANDARD
70
0
0
ENDTAB
0
TABLE
2
VIEW
5
6
100
AcDbSymbolTable
70
0
0
ENDTAB
0
TABLE
2
UCS
5
7
100
AcDbSymbolTable
70
0
0
ENDTAB
0
TABLE
2
APPID
5
9
100
AcDbSymbolTable
70
2
0
APPID
5
12
100
AcDbSymbolTableRecord
100
AcDbRegAppTableRecord
2
ACAD
70
0
0
ENDTAB
0
TABLE
2
DIMSTYLE
5
A
100
AcDbSymbolTable
70
1
0
ENDTAB
0
TABLE
2
BLOCK_RECORD
5
1
100
AcDbSymbolTable
70
1
0
BLOCK_RECORD
5
1F
100
AcDbSymbolTableRecord
100
AcDbBlockTableRecord
2
*MODEL_SPACE
0
BLOCK_RECORD
5
1B
100
AcDbSymbolTableRecord
100
AcDbBlockTableRecord
2
*PAPER_SPACE
0
ENDTAB
0
ENDSEC
0
SECTION
2
BLOCKS
0
BLOCK
5
20
100
AcDbEntity
100
AcDbBlockBegin
2
*MODEL_SPACE
0
ENDBLK
5
21
100
AcDbEntity
100
AcDbBlockEnd
0
BLOCK
5
1C
100
AcDbEntity
100
AcDbBlockBegin
2
*PAPER_SPACE
0
ENDBLK
5
1D
100
AcDbEntity
100
AcDbBlockEnd
0
ENDSEC
0
SECTION
2
ENTITIES
0
CIRCLE
5
100
100
AcDbEntity
8
0
100
AcDbCircle
10
197.80331219769528
20
119.26693964408113
30
1.7763568394002505e-14
40
7.5000000000000009
0
LWPOLYLINE
5
101
100
AcDbEntity
8
0
100
AcDbPolyline
90
8
70
1
43
0.0
10
110.33313458083954
20
42.067439644080821
42
-0.17407765595570959
10
111.48204711014719
20
42.067439644080821
10
111.9575908454934
20
42.067439644080849
42
-0.99999999999999989
10
111.95759084549337
20
38.867439644080818
10
111.48204711014714
20
38.867439644080818
42
-0.17407765595568164
10
110.3331345808396
20
38.867439644080818
10
109.85759084549338
20
38.867439644080839
42
-0.99999999999999989
10
109.85759084549338
20
42.067439644080828
0
LWPOLYLINE
5
102
100
AcDbEntity
8
0
100
AcDbPolyline
90
8
70
1
43
0.0
10
-91.266865419160439
20
42.257496075728312
42
-0.17407765595568805
10
-90.117952889852859
20
42.257496075728334
10
-89.642409154506652
20
42.257496075728334
42
-0.99999999999999989
10
-89.642409154506652
20
39.057496075728331
10
-90.117952889852802
20
39.057496075728324
42
-0.17407765595571301
10
-91.266865419160467
20
39.057496075728324
10
-91.742409154506646
20
39.057496075728352
42
-0.99999999999999989
10
-91.742409154506646
20
42.257496075728312
0
CIRCLE
5
103
100
AcDbEntity
8
0
100
AcDbCircle
10
121.12831219769546
20
-128.85748035591942
30
1.7763568394002505e-14
40
1.6999999999999997
0
CIRCLE
5
104
100
AcDbEntity
8
0
100
AcDbCircle
10
207.80331219769536
20
129.26693964408128
30
1.7763568394002505e-14
40
1.7000000000000175
0
CIRCLE
5
105
100
AcDbEntity
8
0
100
AcDbCircle
10
0.15856219769538882
20
129.26693964408099
30
1.7763568394002505e-14
40
1.6999999999999991
0
CIRCLE
5
106
100
AcDbEntity
8
0
100
AcDbCircle
10
241.9906
20
-128.85748035591939
30
3.5527136788005009e-14
40
1.7000000000000175
0
CIRCLE
5
107
100
AcDbEntity
8
0
100
AcDbCircle
10
-120.80968780230438
20
-128.85748035591959
30
1.7763568394002505e-14
40
1.6999999999999997
0
CIRCLE
5
108
100
AcDbEntity
8
0
100
AcDbCircle
10
241.9906
20
57.354939644081057
30
0
40
1.7000000000000175
0
CIRCLE
5
109
100
AcDbEntity
8
0
100
AcDbCircle
10
-240.99069869884687
20
97.835939644080725
30
1.7763568394002505e-14
40
1.7000000000000175
0
CIRCLE
5
110
100
AcDbEntity
8
0
100
AcDbCircle
10
241.9906
20
-87.683260355919188
30
1.7763568394002505e-14
40
1.7000000000000175
0
CIRCLE
5
111
100
AcDbEntity
8
0
100
AcDbCircle
10
-235.58484780230458
20
-128.85748035591956
30
1.7763568394002505e-14
40
1.7000000000000175
0
LWPOLYLINE
5
112
100
AcDbEntity
8
0
100
AcDbPolyline
90
26
70
1
43
0.0
10
208.29256215074645
20
136.03941627731416
42
-0.41421356237309404
10
213.29256215074645
20
131.03941627731419
10
213.29256215074645
20
90.548130322489286
42
0.41421356237309603
10
218.29256215074645
20
85.5481303224893
10
241.99060000000003
20
85.548130322489271
42
-0.41421356237308982
10
246.99059999999997
20
80.548130322489286
10
246.99059999999997
20
21.992174931541378
42
-0.41421356237309509
10
241.99059999999997
20
16.992174931541378
10
190.48150419626501
20
16.992174931541381
42
0.41421356237309448
10
185.48150419626501
20
11.992174931541388
10
185.48150419626501
20
-72.507825068458672
42
0.41421356237309659
10
190.48150419626501
20
-77.507825068458658
10
241.99059999999997
20
-77.507825068458658
42
-0.41421356237309603
10
246.99059999999997
20
-82.507825068458672
10
246.99059999999997
20
-129.68886372268594
42
-0.41421356237309193
10
241.99060000000003
20
-134.68886372268594
10
-241.99060000000003
20
-134.68886372268594
42
-0.41421356237308982
10
-246.9906
20
-129.68886372268594
10
-246.99059999999997
20
-88.819960355919505
42
-0.41421356237309193
10
-241.9906
20
-83.819960355919505
10
-224.53484780230454
20
-83.819960355919505
10
-224.53484780230454
20
66.580039644080614
10
-241.99059999999997
20
66.580039644080628
42
-0.41421356237309509
10
-246.99059999999997
20
71.580039644080628
10
-246.99059999999997
20
131.03941627731413
42
-0.41421356237309404
10
-241.99059999999997
20
136.0394162773141
0
LWPOLYLINE
5
113
100
AcDbEntity
8
0
100
AcDbPolyline
90
4
70
1
43
0.0
10
162.61606219769536
20
55.266939644081035
10
162.61606219769536
20
109.26693964408096
10
-162.29893780230458
20
109.26693964408095
10
-162.29893780230458
20
55.26693964408102
0
LWPOLYLINE
5
114
100
AcDbEntity
8
0
100
AcDbPolyline
90
4
70
1
43
0.0
10
67.052312197695557
20
-87.683260355919174
10
80.901312197695574
20
-87.683260355919174
10
80.901312197695532
20
-73.832860355919152
10
67.052312197695528
20
-73.832860355919166
0
LWPOLYLINE
5
115
100
AcDbEntity
8
0
100
AcDbPolyline
90
44
70
1
43
0.0
10
-184.12288780230455
20
69.710439644080665
10
-182.39748780230457
20
69.710439644080651
10
-182.39748780230457
20
68.729439644080642
10
-179.2485878023046
20
68.729439644080628
10
-179.2485878023046
20
69.710439644080651
10
-177.52308780230462
20
69.710439644080651
10
-177.52308780230462
20
75.979439644080628
10
-176.69798780230462
20
75.979439644080628
10
-176.69798780230462
20
78.630439644080639
10
-177.52308780230462
20
78.630439644080639
10
-177.52308780230462
20
81.859439644080624
10
-179.2485878023046
20
81.859439644080666
10
-179.2485878023046
20
82.780439644080616
10
-182.3974878023046
20
82.780439644080573
10
-182.3974878023046
20
81.859439644080624
10
-184.12288780230458
20
81.859439644080666
10
-184.12288780230458
20
78.630439644080653
10
-185.79858780230461
20
78.630439644080639
10
-185.79858780230461
20
83.329439644080665
10
-199.64758780230457
20
83.329439644080651
10
-199.64758780230457
20
78.630439644080639
10
-201.32328780230461
20
78.630439644080639
10
-201.32328780230461
20
81.859439644080666
10
-203.0472878023046
20
81.859439644080666
10
-203.0472878023046
20
82.780439644080616
10
-206.19758780230458
20
82.780439644080573
10
-206.19758780230458
20
81.859439644080624
10
-207.92268780230458
20
81.859439644080624
10
-207.92268780230458
20
78.630439644080624
10
-208.74818780230459
20
78.63043964408061
10
-208.74818780230459
20
75.979439644080614
10
-207.92268780230455
20
75.979439644080614
10
-207.92268780230455
20
69.710439644080623
10
-206.19758780230455
20
69.710439644080651
10
-206.19758780230455
20
68.729439644080642
10
-203.04728780230454
20
68.729439644080642
10
-203.04728780230454
20
69.710439644080651
10
-201.32328780230455
20
69.710439644080651
10
-201.32328780230455
20
74.179439644080645
10
-199.64758780230454
20
74.179439644080659
10
-199.64758780230454
20
69.480439644080647
10
-185.79858780230455
20
69.480439644080647
10
-185.79858780230455
20
74.179439644080674
10
-184.12288780230455
20
74.179439644080674
0
LWPOLYLINE
5
116
100
AcDbEntity
8
0
100
AcDbPolyline
90
4
70
1
43
0.0
10
48.002312197695602
20
-87.683260355919202
10
61.851312197695584
20
-87.683260355919202
10
61.851312197695563
20
-73.832860355919181
10
48.002312197695581
20
-73.832860355919195
0
LWPOLYLINE
5
117
100
AcDbEntity
8
0
100
AcDbPolyline
90
4
70
1
43
0.0
10
-175.8350878023046
20
112.34143964408064
10
-161.98468780230462
20
112.34143964408064
10
-161.98468780230462
20
126.19243964408065
10
-175.83508780230463
20
126.19243964408065
0
LWPOLYLINE
5
118
100
AcDbEntity
8
0
100
AcDbPolyline
90
44
70
1
43
0.0
10
-177.52308780230439
20
-101.73946035591946
10
-177.52308780230439
20
-95.469360355919477
10
-176.6979878023044
20
-95.469360355919477
10
-176.6979878023044
20
-92.819360355919457
10
-177.52308780230439
20
-92.819360355919471
10
-177.52308780230439
20
-89.590760355919485
10
-179.2485878023044
20
-89.590760355919429
10
-179.2485878023044
20
-88.670060355919475
10
-182.3974878023044
20
-88.670060355919489
10
-182.3974878023044
20
-89.590760355919485
10
-184.1228878023044
20
-89.590760355919471
10
-184.1228878023044
20
-92.819360355919486
10
-185.79858780230438
20
-92.819360355919514
10
-185.79858780230438
20
-88.120360355919473
10
-199.6475878023044
20
-88.120360355919502
10
-199.6475878023044
20
-92.819360355919486
10
-201.32328780230438
20
-92.819360355919486
10
-201.32328780230438
20
-89.590760355919514
10
-203.04728780230442
20
-89.590760355919485
10
-203.04728780230442
20
-88.670060355919475
10
-206.19758780230438
20
-88.670060355919532
10
-206.19758780230438
20
-89.590760355919514
10
-207.92268780230441
20
-89.590760355919514
10
-207.92268780230441
20
-92.819360355919486
10
-208.74818780230439
20
-92.819360355919486
10
-208.74818780230439
20
-95.46936035591952
10
-207.92268780230441
20
-95.46936035591952
10
-207.92268780230441
20
-101.7394603559195
10
-206.19758780230441
20
-101.73946035591953
10
-206.19758780230441
20
-102.72066035591951
10
-203.04728780230442
20
-102.72066035591951
10
-203.04728780230442
20
-101.73946035591953
10
-201.32328780230438
20
-101.73946035591948
10
-201.32328780230438
20
-97.270460355919482
10
-199.6475878023044
20
-97.270460355919511
10
-199.6475878023044
20
-101.9695603559195
10
-185.79858780230438
20
-101.96956035591947
10
-185.79858780230438
20
-97.270460355919482
10
-184.1228878023044
20
-97.270460355919511
10
-184.1228878023044
20
-101.7394603559195
10
-182.3974878023044
20
-101.7394603559195
10
-182.3974878023044
20
-102.72066035591948
10
-179.2485878023044
20
-102.72066035591948
10
-179.2485878023044
20
-101.7394603559195
0
LWPOLYLINE
5
119
100
AcDbEntity
8
0
100
AcDbPolyline
90
4
70
1
43
0.0
10
48.002312197695581
20
-49.583260355919194
10
61.851312197695563
20
-49.583260355919194
10
61.851312197695549
20
-35.732860355919158
10
48.002312197695566
20
-35.732860355919165
0
LWPOLYLINE
5
120
100
AcDbEntity
8
0
100
AcDbPolyline
90
4
70
1
43
0.0
10
-75.822687802304628
20
126.19243964408082
10
-75.822687802304614
20
112.34143964408076
10
-61.973687802304589
20
112.34143964408078
10
-61.97368780230461
20
126.19243964408079
0
LWPOLYLINE
5
121
100
AcDbEntity
8
0
100
AcDbPolyline
90
4
70
1
43
0.0
10
-85.347687802304435
20
-21.008560355919332
10
-71.498687802304445
20
-21.008560355919315
10
-71.498687802304474
20
-7.157560355919296
10
-85.347687802304449
20
-7.1575603559193191
0
LWPOLYLINE
5
122
100
AcDbEntity
8
0
100
AcDbPolyline
90
4
70
1
43
0.0
10
48.002312197695574
20
-68.633260355919177
10
61.851312197695556
20
-68.633260355919177
10
61.851312197695577
20
-54.782860355919176
10
48.002312197695588
20
-54.782860355919198
0
LWPOLYLINE
5
123
100
AcDbEntity
8
0
100
AcDbPolyline
90
4
70
1
43
0.0
10
143.25331219769544
20
26.616439644080977
10
157.10331219769546
20
26.616439644081002
10
157.10331219769543
20
40.467439644080983
10
143.25331219769544
20
40.467439644080955
0
LWPOLYLINE
5
124
100
AcDbEntity
8
0
100
AcDbPolyline
90
4
70
1
43
0.0
10
95.627312197695588
20
-106.73346035591919
10
109.47831219769553
20
-106.73346035591916
10
109.47831219769552
20
-92.882860355919149
10
95.627312197695574
20
-92.882860355919163
0
LWPOLYLINE
5
125
100
AcDbEntity
8
0
100
AcDbPolyline
90
4
70
1
43
0.0
10
123.76531219769535
20
112.34143964408098
10
123.76531219769534
20
126.19243964408102
10
109.91531219769536
20
126.19243964408099
10
109.91531219769539
20
112.34143964408098
0
LWPOLYLINE
5
126
100
AcDbEntity
8
0
100
AcDbPolyline
90
4
70
1
43
0.0
10
48.002312197695545
20
-21.008560355919187
10
61.851312197695528
20
-21.008560355919165
10
61.851312197695513
20
-7.1575603559191494
10
48.002312197695531
20
-7.1575603559191681
0
LWPOLYLINE
5
127
100
AcDbEntity
8
0
100
AcDbPolyline
90
4
70
1
43
0.0
10
143.25331219769552
20
-68.633260355919106
10
157.10331219769554
20
-68.633260355919091
10
157.10331219769552
20
-54.782860355919077
10
143.25331219769549
20
-54.782860355919105
0
LWPOLYLINE
5
128
100
AcDbEntity
8
0
100
AcDbPolyline
90
4
70
1
43
0.0
10
0.37731219769566504
20
-125.7821003559193
10
14.226312197695648
20
-125.78210035591925
10
14.226312197695627
20
-111.93286035591927
10
0.37731219769564506
20
-111.93286035591927
0
LWPOLYLINE
5
129
100
AcDbEntity
8
0
100
AcDbPolyline
90
4
70
1
43
0.0
10
190.87831219769538
20
102.37943964408103
10
190.87831219769541
20
88.530439644081014
10
204.72831219769532
20
88.530439644081014
10
204.72831219769529
20
102.37943964408105
0
LWPOLYLINE
5
130
100
AcDbEntity
8
0
100
AcDbPolyline
90
4
70
1
43
0.0
10
185.67831219769539
20
83.329439644081077
10
171.8283121976954
20
83.329439644081077
10
171.82831219769542
20
69.480439644081045
10
185.67831219769542
20
69.480439644081059
0
LWPOLYLINE
5
131
100
AcDbEntity
8
0
100
AcDbPolyline
90
4
70
1
43
0.0
10
124.2033121976955
20
-1.9585603559190861
10
138.05331219769548
20
-1.9585603559190656
10
138.05331219769545
20
11.89243964408095
10
124.20331219769548
20
11.892439644080932
0
LWPOLYLINE
5
132
100
AcDbEntity
8
0
100
AcDbPolyline
90
4
70
1
43
0.0
10
62.290312197695386
20
112.34143964408094
10
76.140312197695408
20
112.34143964408091
10
76.14031219769538
20
126.19243964408096
10
62.290312197695371
20
126.19243964408096
0
LWPOLYLINE
5
133
100
AcDbEntity
8
0
100
AcDbPolyline
90
4
70
1
43
0.0
10
67.052312197695457
20
-1.958560355919152
10
80.901312197695518
20
-1.9585603559191322
10
80.901312197695489
20
11.892439644080891
10
67.052312197695443
20
11.892439644080863
0
LWPOLYLINE
5
134
100
AcDbEntity
8
0
100
AcDbPolyline
90
4
70
1
43
0.0
10
0.37731219769555402
20
-21.00856035591924
10
14.226312197695536
20
-21.008560355919222
10
14.226312197695519
20
-7.1575603559191991
10
0.37731219769553515
20
-7.1575603559192196
0
LWPOLYLINE
5
135
100
AcDbEntity
8
0
100
AcDbPolyline
90
4
70
1
43
0.0
10
-18.672687802304505
20
11.892439644080763
10
-18.672687802304484
20
-1.9585603559192477
10
-4.823687802304466
20
-1.9585603559192322
10
-4.8236878023044856
20
11.892439644080785
0
LWPOLYLINE
5
136
100
AcDbEntity
8
0
100
AcDbPolyline
90
4
70
1
43
0.0
10
-156.78508780230439
20
-78.158260355919396
10
-142.93468780230441
20
-78.158260355919396
10
-142.93468780230444
20
-64.307860355919431
10
-156.78508780230442
20
-64.307860355919416
0
LWPOLYLINE
5
137
100
AcDbEntity
8
0
100
AcDbPolyline
90
4
70
1
43
0.0
10
-137.73468780230439
20
-97.208460355919442
10
-123.88468780230438
20
-97.208460355919442
10
-123.8846878023044
20
-83.357860355919385
10
-137.73468780230439
20
-83.357860355919442
0
LWPOLYLINE
5
138
100
AcDbEntity
8
0
100
AcDbPolyline
90
4
70
1
43
0.0
10
-66.297687802304424
20
-68.633260355919319
10
-52.448687802304406
20
-68.633260355919305
10
-52.448687802304391
20
-54.782860355919297
10
-66.297687802304409
20
-54.782860355919318
0
LWPOLYLINE
5
139
100
AcDbEntity
8
0
100
AcDbPolyline
90
4
70
1
43
0.0
10
-90.548687802304372
20
-106.73346035591941
10
-90.548687802304372
20
-92.882860355919377
10
-104.39768780230436
20
-92.882860355919405
10
-104.39768780230436
20
-106.73346035591941
0
LWPOLYLINE
5
140
100
AcDbEntity
8
0
100
AcDbPolyline
90
4
70
1
43
0.0
10
-18.672687802304409
20
-54.782860355919269
10
-18.672687802304427
20
-68.633260355919262
10
-4.8236878023044092
20
-68.633260355919248
10
-4.8236878023043932
20
-54.782860355919254
0
LWPOLYLINE
5
141
100
AcDbEntity
8
0
100
AcDbPolyline
90
4
70
1
43
0.0
10
-18.672687802304438
20
-35.732860355919257
10
-18.672687802304416
20
-49.583260355919279
10
-4.8236878023044003
20
-49.583260355919251
10
-4.8236878023044198
20
-35.732860355919229
0
LWPOLYLINE
5
142
100
AcDbEntity
8
0
100
AcDbPolyline
90
4
70
1
43
0.0
10
-18.672687802304367
20
-111.93286035591927
10
-18.672687802304345
20
-125.78210035591934
10
-4.8236878023043293
20
-125.7821003559193
10
-4.8236878023043488
20
-111.93286035591927
0
LWPOLYLINE
5
143
100
AcDbEntity
8
0
100
AcDbPolyline
90
4
70
1
43
0.0
10
-156.78508780230436
20
-97.20846035591947
10
-142.93468780230438
20
-97.20846035591947
10
-142.93468780230441
20
-83.357860355919428
10
-156.78508780230439
20
-83.357860355919485
0
LWPOLYLINE
5
144
100
AcDbEntity
8
0
100
AcDbPolyline
90
4
70
1
43
0.0
10
-23.873687802304495
20
11.892439644080763
10
-37.722687802304513
20
11.89243964408076
10
-37.722687802304492
20
-1.9585603559192566
10
-23.873687802304477
20
-1.9585603559192544
0
LWPOLYLINE
5
145
100
AcDbEntity
8
0
100
AcDbPolyline
90
4
70
1
43
0.0
10
95.627312197695574
20
-87.683260355919131
10
109.47831219769552
20
-87.683260355919131
10
109.47831219769549
20
-73.832860355919109
10
95.627312197695545
20
-73.832860355919124
0
LWPOLYLINE
5
146
100
AcDbEntity
8
0
100
AcDbPolyline
90
4
70
1
43
0.0
10
-142.93468780230452
20
26.616439644080643
10
-142.93468780230452
20
40.467439644080642
10
-156.78508780230453
20
40.467439644080621
10
-156.78508780230453
20
26.616439644080643
0
LWPOLYLINE
5
147
100
AcDbEntity
8
0
100
AcDbPolyline
90
4
70
1
43
0.0
10
-85.347687802304392
20
-68.633260355919333
10
-71.498687802304417
20
-68.633260355919319
10
-71.498687802304403
20
-54.782860355919347
10
-85.347687802304378
20
-54.782860355919354
0
LWPOLYLINE
5
148
100
AcDbEntity
8
0
100
AcDbPolyline
90
4
70
1
43
0.0
10
-4.8236878023043559
20
-106.73346035591928
10
-4.8236878023043754
20
-92.882860355919249
10
-18.672687802304392
20
-92.882860355919306
10
-18.672687802304374
20
-106.73346035591931
0
LWPOLYLINE
5
149
100
AcDbEntity
8
0
100
AcDbPolyline
90
4
70
1
43
0.0
10
-23.87368780230441
20
-49.583260355919272
10
-23.873687802304428
20
-35.732860355919257
10
-37.722687802304449
20
-35.732860355919264
10
-37.722687802304428
20
-49.5832603559193
0
LWPOLYLINE
5
150
100
AcDbEntity
8
0
100
AcDbPolyline
90
4
70
1
43
0.0
10
-104.39768780230432
20
-125.7821003559194
10
-90.548687802304343
20
-125.78210035591937
10
-90.548687802304357
20
-111.93286035591939
10
-104.39768780230435
20
-111.93286035591939
0
LWPOLYLINE
5
151
100
AcDbEntity
8
0
100
AcDbPolyline
90
4
70
1
43
0.0
10
-104.39768780230438
20
-73.832860355919394
10
-104.39768780230436
20
-87.683260355919401
10
-90.548687802304372
20
-87.683260355919401
10
-90.548687802304386
20
-73.832860355919365
0
LWPOLYLINE
5
152
100
AcDbEntity
8
0
100
AcDbPolyline
90
4
70
1
43
0.0
10
-66.297687802304409
20
-49.583260355919322
10
-52.448687802304399
20
-49.583260355919307
10
-52.448687802304413
20
-35.732860355919286
10
-66.297687802304438
20
-35.7328603559193
0
LWPOLYLINE
5
153
100
AcDbEntity
8
0
100
AcDbPolyline
90
4
70
1
43
0.0
10
-104.3976878023044
20
-49.583260355919379
10
-90.548687802304428
20
-49.583260355919364
10
-90.548687802304443
20
-35.732860355919321
10
-104.39768780230443
20
-35.732860355919335
0
LWPOLYLINE
5
154
100
AcDbEntity
8
0
100
AcDbPolyline
90
4
70
1
43
0.0
10
-137.73468780230439
20
-78.158260355919381
10
-123.8846878023044
20
-78.158260355919381
10
-123.88468780230441
20
-64.307860355919388
10
-137.73468780230442
20
-64.307860355919402
0
LWPOLYLINE
5
155
100
AcDbEntity
8
0
100
AcDbPolyline
90
44
70
1
43
0.0
10
-177.52308780230436
20
-125.55335035591949
10
-177.52308780230436
20
-119.28327035591948
10
-176.69798780230437
20
-119.28327035591948
10
-176.69798780230437
20
-116.6332603559195
10
-177.52308780230436
20
-116.6332603559195
10
-177.52308780230436
20
-113.40316035591951
10
-179.24858780230437
20
-113.40316035591951
10
-179.24858780230437
20
-112.48266035591948
10
-182.39748780230434
20
-112.48266035591948
10
-182.39748780230434
20
-113.40316035591951
10
-184.12288780230438
20
-113.40316035591951
10
-184.12288780230438
20
-116.6332603559195
10
-185.79858780230435
20
-116.6332603559195
10
-185.79858780230435
20
-111.9328603559195
10
-199.64758780230437
20
-111.9328603559195
10
-199.64758780230437
20
-116.6332603559195
10
-201.32328780230438
20
-116.6332603559195
10
-201.32328780230435
20
-113.40316035591954
10
-203.04728780230437
20
-113.40316035591954
10
-203.04728780230437
20
-112.48266035591952
10
-206.19758780230438
20
-112.48266035591952
10
-206.19758780230438
20
-113.40316035591951
10
-207.92268780230438
20
-113.40316035591951
10
-207.92268780230438
20
-116.63326035591953
10
-208.74818780230439
20
-116.63326035591953
10
-208.74818780230439
20
-119.28327035591951
10
-207.92268780230438
20
-119.28327035591954
10
-207.92268780230438
20
-125.55335035591952
10
-206.19758780230438
20
-125.55335035591951
10
-206.19758780230438
20
-126.53176035591952
10
-203.04728780230437
20
-126.53176035591953
10
-203.04728780230437
20
-125.55335035591952
10
-201.32328780230438
20
-125.55335035591951
10
-201.32328780230438
20
-121.08300035591951
10
-199.64758780230437
20
-121.08300035591952
10
-199.64758780230437
20
-125.78210035591951
10
-185.79858780230435
20
-125.7821003559195
10
-185.79858780230435
20
-121.08300035591947
10
-184.12288780230438
20
-121.08300035591949
10
-184.12288780230438
20
-125.55335035591949
10
-182.39748780230434
20
-125.55335035591946
10
-182.39748780230434
20
-126.53176035591947
10
-179.24858780230437
20
-126.53176035591949
10
-179.24858780230437
20
-125.55335035591949
0
LWPOLYLINE
5
156
100
AcDbEntity
8
0
100
AcDbPolyline
90
4
70
1
43
0.0
10
-109.59868780230458
20
112.34143964408071
10
-109.5986878023046
20
126.19243964408072
10
-123.44768780230461
20
126.19243964408072
10
-123.4476878023046
20
112.34143964408071
0
LWPOLYLINE
5
157
100
AcDbEntity
8
0
100
AcDbPolyline
90
4
70
1
43
0.0
10
0.37731219769561175
20
-87.683260355919288
10
14.226312197695595
20
-87.683260355919259
10
14.226312197695574
20
-73.832860355919237
10
0.37731219769559177
20
-73.832860355919266
0
LWPOLYLINE
5
158
100
AcDbEntity
8
0
100
AcDbPolyline
90
4
70
1
43
0.0
10
86.102312197695341
20
112.34143964408094
10
99.951312197695358
20
112.34143964408094
10
99.951312197695344
20
126.19243964408099
10
86.102312197695326
20
126.19243964408096
0
LWPOLYLINE
5
159
100
AcDbEntity
8
0
100
AcDbPolyline
90
4
70
1
43
0.0
10
176.15331219769544
20
40.467439644081018
10
162.30331219769545
20
40.467439644081004
10
162.30331219769545
20
26.616439644080984
10
176.15331219769547
20
26.616439644081005
0
LWPOLYLINE
5
160
100
AcDbEntity
8
0
100
AcDbPolyline
90
4
70
1
43
0.0
10
171.82831219769542
20
50.430439644081034
10
185.67831219769545
20
50.430439644081055
10
185.67831219769542
20
64.27943964408108
10
171.82831219769542
20
64.279439644081066
0
LWPOLYLINE
5
161
100
AcDbEntity
8
0
100
AcDbPolyline
90
4
70
1
43
0.0
10
185.67831219769533
20
102.37943964408105
10
171.82831219769537
20
102.37943964408102
10
171.8283121976954
20
88.530439644081042
10
185.67831219769539
20
88.530439644081014
0
LWPOLYLINE
5
162
100
AcDbEntity
8
0
100
AcDbPolyline
90
4
70
1
43
0.0
10
0.3773121976956384
20
-106.73346035591926
10
14.22631219769562
20
-106.73346035591926
10
14.2263121976956
20
-92.882860355919249
10
0.37731219769561841
20
-92.882860355919263
0
LWPOLYLINE
5
163
100
AcDbEntity
8
0
100
AcDbPolyline
90
4
70
1
43
0.0
10
124.2033121976955
20
-49.583260355919123
10
138.05331219769548
20
-49.583260355919094
10
138.05331219769545
20
-35.732860355919073
10
124.20331219769548
20
-35.732860355919101
0
LWPOLYLINE
5
164
100
AcDbEntity
8
0
100
AcDbPolyline
90
4
70
1
43
0.0
10
67.052312197695471
20
-21.008560355919158
10
80.901312197695461
20
-21.008560355919141
10
80.901312197695461
20
-7.1575603559191254
10
67.052312197695471
20
-7.1575603559191459
0
LWPOLYLINE
5
165
100
AcDbEntity
8
0
100
AcDbPolyline
90
4
70
1
43
0.0
10
95.627312197695517
20
-1.9585603559191087
10
109.47831219769546
20
-1.9585603559191034
10
109.47831219769543
20
11.892439644080905
10
95.627312197695488
20
11.892439644080905
0
LWPOLYLINE
5
166
100
AcDbEntity
8
0
100
AcDbPolyline
90
4
70
1
43
0.0
10
61.851312197695606
20
-106.73346035591919
10
61.851312197695592
20
-92.882860355919178
10
48.002312197695609
20
-92.882860355919235
10
48.00231219769563
20
-106.73346035591922
0
LWPOLYLINE
5
167
100
AcDbEntity
8
0
100
AcDbPolyline
90
4
70
1
43
0.0
10
28.952312197695534
20
-21.008560355919194
10
42.801312197695516
20
-21.00856035591919
10
42.801312197695502
20
-7.1575603559191752
10
28.95231219769552
20
-7.1575603559191769
0
LWPOLYLINE
5
168
100
AcDbEntity
8
0
100
AcDbPolyline
90
4
70
1
43
0.0
10
143.25331219769544
20
-21.008560355919073
10
157.10331219769546
20
-21.008560355919052
10
157.10331219769543
20
-7.1575603559190419
10
143.25331219769544
20
-7.1575603559190597
0
LWPOLYLINE
5
169
100
AcDbEntity
8
0
100
AcDbPolyline
90
4
70
1
43
0.0
10
-99.634687802304597
20
126.19243964408078
10
-99.634687802304583
20
112.34143964408076
10
-85.784687802304589
20
112.34143964408075
10
-85.784687802304603
20
126.19243964408076
0
LWPOLYLINE
5
170
100
AcDbEntity
8
0
100
AcDbPolyline
90
4
70
1
43
0.0
10
-37.722687802304485
20
-7.1575603559192524
10
-37.72268780230447
20
-21.008560355919265
10
-23.873687802304453
20
-21.008560355919272
10
-23.873687802304467
20
-7.157560355919248
0
LWPOLYLINE
5
171
100
AcDbEntity
8
0
100
AcDbPolyline
90
4
70
1
43
0.0
10
-228.65948780230457
20
69.480439644080604
10
-228.65948780230462
20
83.329439644080622
10
-242.51020780230459
20
83.329439644080622
10
-242.51020780230454
20
69.48043964408059
0
LWPOLYLINE
5
172
100
AcDbEntity
8
0
100
AcDbPolyline
90
4
70
1
43
0.0
10
-123.88468780230446
20
-45.257860355919362
10
-137.73468780230445
20
-45.257860355919384
10
-137.73468780230442
20
-59.108260355919398
10
-123.88468780230443
20
-59.108260355919391
0
LWPOLYLINE
5
173
100
AcDbEntity
8
0
100
AcDbPolyline
90
4
70
1
43
0.0
10
-142.93468780230452
20
11.892439644080625
10
-156.7850878023045
20
11.892439644080625
10
-156.78508780230447
20
-1.9585603559193876
10
-142.9346878023045
20
-1.9585603559193854
0
LWPOLYLINE
5
174
100
AcDbEntity
8
0
100
AcDbPolyline
90
4
70
1
43
0.0
10
-147.26008780230461
20
112.34143964408068
10
-133.40968780230463
20
112.34143964408068
10
-133.40968780230463
20
126.19243964408069
10
-147.26008780230461
20
126.19243964408069
0
LWPOLYLINE
5
175
100
AcDbEntity
8
0
100
AcDbPolyline
90
4
70
1
43
0.0
10
28.952312197695591
20
-87.683260355919245
10
42.801312197695573
20
-87.683260355919202
10
42.801312197695566
20
-73.832860355919209
10
28.952312197695576
20
-73.832860355919237
0
LWPOLYLINE
5
176
100
AcDbEntity
8
0
100
AcDbPolyline
90
4
70
1
43
0.0
10
-104.39768780230446
20
-1.9585603559193341
10
-90.548687802304485
20
-1.9585603559193165
10
-90.548687802304499
20
11.892439644080701
10
-104.39768780230449
20
11.892439644080685
0
LWPOLYLINE
5
177
100
AcDbEntity
8
0
100
AcDbPolyline
90
4
70
1
43
0.0
10
-142.9346878023045
20
-21.0085603559194
10
-142.9346878023045
20
-7.157560355919383
10
-156.78508780230447
20
-7.1575603559193812
10
-156.78508780230447
20
-21.008560355919403
0
LWPOLYLINE
5
178
100
AcDbEntity
8
0
100
AcDbPolyline
90
4
70
1
43
0.0
10
-123.88468780230448
20
-1.9585603559193565
10
-123.88468780230451
20
11.892439644080657
10
-137.73468780230451
20
11.892439644080639
10
-137.73468780230448
20
-1.9585603559193814
0
LWPOLYLINE
5
179
100
AcDbEntity
8
0
100
AcDbPolyline
90
4
70
1
43
0.0
10
67.052312197695514
20
-68.633260355919177
10
80.901312197695532
20
-68.633260355919163
10
80.901312197695518
20
-54.782860355919169
10
67.052312197695528
20
-54.782860355919176
0
LWPOLYLINE
5
180
100
AcDbEntity
8
0
100
AcDbPolyline
90
4
70
1
43
0.0
10
-14.348687802304596
20
112.34143964408084
10
-14.348687802304614
20
126.19243964408085
10
-28.197687802304632
20
126.19243964408085
10
-28.197687802304614
20
112.34143964408079
0
LWPOLYLINE
5
181
100
AcDbEntity
8
0
100
AcDbPolyline
90
4
70
1
43
0.0
10
-66.297687802304495
20
11.892439644080721
10
-66.29768780230448
20
-1.9585603559192966
10
-52.448687802304462
20
-1.9585603559192788
10
-52.448687802304477
20
11.892439644080737
0
LWPOLYLINE
5
182
100
AcDbEntity
8
0
100
AcDbPolyline
90
4
70
1
43
0.0
10
-223.46018780230466
20
126.19243964408062
10
-223.46018780230463
20
112.34143964408061
10
-209.60968780230462
20
112.34143964408061
10
-209.60968780230468
20
126.19243964408062
0
LWPOLYLINE
5
183
100
AcDbEntity
8
0
100
AcDbPolyline
90
4
70
1
43
0.0
10
95.627312197695531
20
-68.633260355919134
10
109.47831219769547
20
-68.63326035591912
10
109.47831219769546
20
-54.782860355919127
10
95.627312197695517
20
-54.782860355919141
0
LWPOLYLINE
5
184
100
AcDbEntity
8
0
100
AcDbPolyline
90
4
70
1
43
0.0
10
-137.73468780230448
20
-21.008560355919393
10
-123.88468780230447
20
-21.008560355919371
10
-123.88468780230448
20
-7.1575603559193555
10
-137.73468780230448
20
-7.1575603559193723
0
LWPOLYLINE
5
185
100
AcDbEntity
8
0
100
AcDbPolyline
90
4
70
1
43
0.0
10
28.952312197695509
20
-1.9585603559191855
10
42.801312197695495
20
-1.9585603559191789
10
42.801312197695474
20
11.892439644080834
10
28.952312197695491
20
11.892439644080834
0
LWPOLYLINE
5
186
100
AcDbEntity
8
0
100
AcDbPolyline
90
4
70
1
43
0.0
10
0.37731219769559399
20
-49.583260355919265
10
14.226312197695577
20
-49.583260355919236
10
14.226312197695556
20
-35.732860355919208
10
0.377312197695574
20
-35.732860355919229
0
LWPOLYLINE
5
187
100
AcDbEntity
8
0
100
AcDbPolyline
90
4
70
1
43
0.0
10
80.901312197695589
20
-106.73346035591918
10
80.901312197695574
20
-92.882860355919149
10
67.052312197695557
20
-92.882860355919206
10
67.052312197695571
20
-106.73346035591922
0
LWPOLYLINE
5
188
100
AcDbEntity
8
0
100
AcDbPolyline
90
4
70
1
43
0.0
10
124.20331219769544
20
-21.008560355919098
10
138.05331219769542
20
-21.00856035591908
10
138.05331219769539
20
-7.1575603559190704
10
124.20331219769542
20
-7.1575603559190837
0
LWPOLYLINE
5
189
100
AcDbEntity
8
0
100
AcDbPolyline
90
4
70
1
43
0.0
10
124.20331219769551
20
-68.63326035591912
10
138.0533121976955
20
-68.633260355919106
10
138.05331219769548
20
-54.782860355919098
10
124.2033121976955
20
-54.782860355919127
0
LWPOLYLINE
5
190
100
AcDbEntity
8
0
100
AcDbPolyline
90
4
70
1
43
0.0
10
28.952312197695626
20
-111.93286035591925
10
28.95231219769564
20
-125.78210035591925
10
42.801312197695623
20
-125.78210035591923
10
42.801312197695609
20
-111.93286035591925
0
LWPOLYLINE
5
191
100
AcDbEntity
8
0
100
AcDbPolyline
90
4
70
1
43
0.0
10
204.7283121976954
20
50.430439644081048
10
204.72831219769535
20
64.27943964408108
10
190.87831219769544
20
64.279439644081066
10
190.87831219769544
20
50.430439644081034
0
LWPOLYLINE
5
192
100
AcDbEntity
8
0
100
AcDbPolyline
90
4
70
1
43
0.0
10
162.30331219769533
20
126.19243964408105
10
162.30331219769536
20
112.34143964408103
10
176.15331219769533
20
112.34143964408105
10
176.1533121976953
20
126.19243964408111
0
LWPOLYLINE
5
193
100
AcDbEntity
8
0
100
AcDbPolyline
90
4
70
1
43
0.0
10
28.515312197695408
20
112.34143964408088
10
28.51531219769539
20
126.19243964408092
10
14.665312197695375
20
126.19243964408088
10
14.665312197695393
20
112.34143964408088
0
LWPOLYLINE
5
194
100
AcDbEntity
8
0
100
AcDbPolyline
90
4
70
1
43
0.0
10
38.477312197695355
20
112.34143964408091
10
52.326312197695408
20
112.34143964408091
10
52.326312197695387
20
126.19243964408096
10
38.477312197695341
20
126.19243964408092
0
LWPOLYLINE
5
195
100
AcDbEntity
8
0
100
AcDbPolyline
90
4
70
1
43
0.0
10
48.002312197695517
20
-1.9585603559191793
10
61.851312197695506
20
-1.9585603559191567
10
61.851312197695485
20
11.892439644080863
10
48.002312197695503
20
11.892439644080845
0
LWPOLYLINE
5
196
100
AcDbEntity
8
0
100
AcDbPolyline
90
4
70
1
43
0.0
10
67.052312197695528
20
-49.58326035591918
10
80.901312197695518
20
-49.58326035591918
10
80.901312197695489
20
-35.732860355919136
10
67.0523121976955
20
-35.732860355919158
0
LWPOLYLINE
5
197
100
AcDbEntity
8
0
100
AcDbPolyline
90
4
70
1
43
0.0
10
-90.548687802304471
20
-21.008560355919329
10
-90.548687802304485
20
-7.1575603559193057
10
-104.39768780230446
20
-7.1575603559193235
10
-104.39768780230445
20
-21.008560355919347
0
LWPOLYLINE
5
198
100
AcDbEntity
8
0
100
AcDbPolyline
90
4
70
1
43
0.0
10
-137.73468780230445
20
-26.207560355919384
10
-137.73468780230445
20
-40.058260355919387
10
-123.88468780230446
20
-40.05826035591938
10
-123.88468780230446
20
-26.207560355919366
0
LWPOLYLINE
5
199
100
AcDbEntity
8
0
100
AcDbPolyline
90
4
70
1
43
0.0
10
-104.3976878023044
20
-54.782860355919368
10
-104.39768780230439
20
-68.633260355919361
10
-90.548687802304414
20
-68.633260355919333
10
-90.548687802304428
20
-54.782860355919354
0
LWPOLYLINE
5
200
100
AcDbEntity
8
0
100
AcDbPolyline
90
4
70
1
43
0.0
10
-66.297687802304395
20
-87.683260355919373
10
-52.448687802304377
20
-87.68326035591933
10
-52.448687802304399
20
-73.832860355919308
10
-66.297687802304409
20
-73.832860355919323
0
LWPOLYLINE
5
201
100
AcDbEntity
8
0
100
AcDbPolyline
90
4
70
1
43
0.0
10
-71.49868780230436
20
-106.73346035591936
10
-71.498687802304374
20
-92.882860355919348
10
-85.347687802304364
20
-92.882860355919377
10
-85.34768780230435
20
-106.73346035591936
0
LWPOLYLINE
5
202
100
AcDbEntity
8
0
100
AcDbPolyline
90
4
70
1
43
0.0
10
-18.67268780230442
20
-73.832860355919266
10
-18.672687802304399
20
-87.683260355919288
10
-4.8236878023043825
20
-87.683260355919288
10
-4.8236878023044021
20
-73.832860355919252
0
LWPOLYLINE
5
203
100
AcDbEntity
8
0
100
AcDbPolyline
90
4
70
1
43
0.0
10
-66.297687802304338
20
-125.78210035591937
10
-52.448687802304327
20
-125.78210035591934
10
-52.448687802304342
20
-111.93286035591932
10
-66.297687802304367
20
-111.93286035591936
0
LWPOLYLINE
5
204
100
AcDbEntity
8
0
100
AcDbPolyline
90
4
70
1
43
0.0
10
-37.722687802304414
20
-87.68326035591933
10
-23.873687802304392
20
-87.683260355919288
10
-23.87368780230441
20
-73.83286035591928
10
-37.722687802304428
20
-73.832860355919308
0
LWPOLYLINE
5
205
100
AcDbEntity
8
0
100
AcDbPolyline
90
4
70
1
43
0.0
10
-23.873687802304339
20
-125.7821003559193
10
-23.87368780230436
20
-111.93286035591932
10
-37.722687802304378
20
-111.93286035591932
10
-37.722687802304357
20
-125.78210035591934
0
LWPOLYLINE
5
206
100
AcDbEntity
8
0
100
AcDbPolyline
90
4
70
1
43
0.0
10
95.627312197695517
20
-49.583260355919151
10
109.47831219769546
20
-49.58326035591913
10
109.47831219769543
20
-35.732860355919115
10
95.627312197695488
20
-35.732860355919115
0
LWPOLYLINE
5
207
100
AcDbEntity
8
0
100
AcDbPolyline
90
4
70
1
43
0.0
10
-4.8236878023044589
20
-7.1575603559192258
10
-18.672687802304477
20
-7.1575603559192436
10
-18.672687802304459
20
-21.008560355919261
10
-4.8236878023044394
20
-21.00856035591924
0
LWPOLYLINE
5
208
100
AcDbEntity
8
0
100
AcDbPolyline
90
4
70
1
43
0.0
10
-85.347687802304449
20
-1.9585603559193208
10
-71.498687802304474
20
-1.9585603559193032
10
-71.498687802304488
20
11.892439644080708
10
-85.347687802304478
20
11.892439644080689
0
LWPOLYLINE
5
209
100
AcDbEntity
8
0
100
AcDbPolyline
90
4
70
1
43
0.0
10
-123.88468780230453
20
26.616439644080664
10
-123.88468780230453
20
40.467439644080663
10
-137.73468780230451
20
40.467439644080656
10
-137.73468780230451
20
26.616439644080664
0
LWPOLYLINE
5
210
100
AcDbEntity
8
0
100
AcDbPolyline
90
4
70
1
43
0.0
10
-23.873687802304367
20
-106.73346035591928
10
-23.873687802304389
20
-92.882860355919291
10
-37.722687802304407
20
-92.882860355919306
10
-37.722687802304385
20
-106.73346035591933
0
LWPOLYLINE
5
211
100
AcDbEntity
8
0
100
AcDbPolyline
90
4
70
1
43
0.0
10
-23.873687802304421
20
-68.633260355919262
10
-23.873687802304403
20
-54.782860355919276
10
-37.722687802304421
20
-54.782860355919297
10
-37.722687802304435
20
-68.633260355919276
0
LWPOLYLINE
5
212
100
AcDbEntity
8
0
100
AcDbPolyline
90
4
70
1
43
0.0
10
-85.347687802304335
20
-125.7821003559194
10
-71.498687802304332
20
-125.78210035591937
10
-71.498687802304346
20
-111.93286035591936
10
-85.347687802304335
20
-111.93286035591939
0
LWPOLYLINE
5
213
100
AcDbEntity
8
0
100
AcDbPolyline
90
4
70
1
43
0.0
10
-85.347687802304378
20
-73.832860355919351
10
-85.347687802304364
20
-87.683260355919401
10
-71.498687802304389
20
-87.683260355919373
10
-71.498687802304403
20
-73.832860355919337
0
LWPOLYLINE
5
214
100
AcDbEntity
8
0
100
AcDbPolyline
90
4
70
1
43
0.0
10
-52.448687802304349
20
-106.73346035591933
10
-52.44868780230437
20
-92.88286035591932
10
-66.297687802304381
20
-92.88286035591932
10
-66.297687802304367
20
-106.73346035591936
0
LWPOLYLINE
5
215
100
AcDbEntity
8
0
100
AcDbPolyline
90
4
70
1
43
0.0
10
-85.347687802304392
20
-49.58326035591935
10
-71.498687802304403
20
-49.583260355919343
10
-71.498687802304417
20
-35.732860355919314
10
-85.347687802304392
20
-35.732860355919328
0
LWPOLYLINE
5
216
100
AcDbEntity
8
0
100
AcDbPolyline
90
4
70
1
43
0.0
10
-156.78508780230445
20
-26.207560355919401
10
-156.78508780230445
20
-40.058260355919408
10
-142.93468780230447
20
-40.058260355919408
10
-142.93468780230447
20
-26.207560355919398
0
LWPOLYLINE
5
217
100
AcDbEntity
8
0
100
AcDbPolyline
90
4
70
1
43
0.0
10
-156.78508780230442
20
-59.108260355919427
10
-142.93468780230444
20
-59.108260355919413
10
-142.93468780230447
20
-45.257860355919391
10
-156.78508780230445
20
-45.257860355919391
0
LWPOLYLINE
5
218
100
AcDbEntity
8
0
100
AcDbPolyline
90
4
70
1
43
0.0
10
28.952312197695569
20
-49.583260355919222
10
42.801312197695552
20
-49.583260355919201
10
42.801312197695545
20
-35.732860355919186
10
28.952312197695559
20
-35.732860355919172
0
LWPOLYLINE
5
219
100
AcDbEntity
8
0
100
AcDbPolyline
90
4
70
1
43
0.0
10
0.37731219769558511
20
-68.633260355919234
10
14.226312197695567
20
-68.633260355919234
10
14.226312197695583
20
-54.782860355919226
10
0.37731219769560065
20
-54.782860355919247
0
LWPOLYLINE
5
220
100
AcDbEntity
8
0
100
AcDbPolyline
90
4
70
1
43
0.0
10
162.30331219769545
20
-21.008560355919062
10
176.15331219769547
20
-21.008560355919045
10
176.15331219769544
20
-7.1575603559190277
10
162.30331219769545
20
-7.1575603559190508
0
LWPOLYLINE
5
221
100
AcDbEntity
8
0
100
AcDbPolyline
90
4
70
1
43
0.0
10
138.05331219769542
20
40.467439644080969
10
124.20331219769544
20
40.467439644080947
10
124.20331219769545
20
26.616439644080945
10
138.05331219769545
20
26.61643964408097
0
LWPOLYLINE
5
222
100
AcDbEntity
8
0
100
AcDbPolyline
90
4
70
1
43
0.0
10
157.10331219769552
20
-1.9585603559190368
10
157.10331219769546
20
11.892439644080977
10
143.25331219769549
20
11.892439644080957
10
143.25331219769552
20
-1.9585603559190603
0
LWPOLYLINE
5
223
100
AcDbEntity
8
0
100
AcDbPolyline
90
4
70
1
43
0.0
10
204.72831219769535
20
69.480439644081031
10
204.72831219769532
20
83.329439644081077
10
190.87831219769541
20
83.329439644081035
10
190.87831219769544
20
69.480439644081031
0
LWPOLYLINE
5
224
100
AcDbEntity
8
0
100
AcDbPolyline
90
4
70
1
43
0.0
10
162.30331219769553
20
-1.9585603559190521
10
176.15331219769553
20
-1.9585603559190301
10
176.15331219769547
20
11.892439644080991
10
162.3033121976955
20
11.892439644080966
0
LWPOLYLINE
5
225
100
AcDbEntity
8
0
100
AcDbPolyline
90
4
70
1
43
0.0
10
143.25331219769549
20
-49.583260355919101
10
157.10331219769552
20
-49.58326035591908
10
157.10331219769546
20
-35.732860355919044
10
143.25331219769549
20
-35.732860355919058
0
LWPOLYLINE
5
226
100
AcDbEntity
8
0
100
AcDbPolyline
90
44
70
1
43
0.0
10
71.376312197695611
20
-125.7821003559192
10
71.376312197695611
20
-121.08300035591921
10
73.052312197695599
20
-121.08300035591921
10
73.052312197695613
20
-125.55335035591921
10
74.777312197695608
20
-125.55335035591918
10
74.777312197695608
20
-126.53176035591919
10
77.926312197695623
20
-126.5317603559192
10
77.926312197695623
20
-125.55335035591921
10
79.652312197695565
20
-125.55335035591921
10
79.652312197695565
20
-119.2832703559192
10
80.477312197695596
20
-119.2832703559192
10
80.477312197695596
20
-116.63326035591922
10
79.652312197695565
20
-116.63326035591919
10
79.652312197695565
20
-113.40316035591918
10
77.926312197695609
20
-113.40316035591918
10
77.926312197695609
20
-112.48266035591918
10
74.777312197695579
20
-112.48266035591918
10
74.777312197695579
20
-113.40316035591923
10
73.052312197695585
20
-113.40316035591923
10
73.052312197695599
20
-116.63326035591922
10
71.376312197695597
20
-116.63326035591916
10
71.376312197695583
20
-111.93286035591916
10
57.527312197695608
20
-111.93286035591922
10
57.527312197695615
20
-116.63326035591922
10
55.851312197695613
20
-116.63326035591922
10
55.851312197695606
20
-113.40316035591923
10
54.127312197695645
20
-113.40316035591923
10
54.127312197695645
20
-112.48266035591922
10
50.977312197695596
20
-112.48266035591922
10
50.977312197695596
20
-113.40316035591925
10
49.252312197695638
20
-113.40316035591925
10
49.252312197695645
20
-116.63326035591922
10
48.427312197695578
20
-116.63326035591922
10
48.427312197695578
20
-119.28327035591923
10
49.252312197695645
20
-119.28327035591926
10
49.252312197695652
20
-125.55335035591924
10
50.977312197695625
20
-125.55335035591922
10
50.977312197695625
20
-126.53176035591923
10
54.127312197695659
20
-126.53176035591925
10
54.127312197695659
20
-125.55335035591924
10
55.851312197695634
20
-125.55335035591924
10
55.85131219769562
20
-121.08300035591924
10
57.527312197695615
20
-121.08300035591924
10
57.527312197695622
20
-125.78210035591923
0
LWPOLYLINE
5
227
100
AcDbEntity
8
0
100
AcDbPolyline
90
4
70
1
43
0.0
10
95.627312197695446
20
-7.1575603559191014
10
95.62731219769546
20
-21.008560355919119
10
109.4783121976954
20
-21.008560355919123
10
109.47831219769539
20
-7.1575603559191059
0
LWPOLYLINE
5
228
100
AcDbEntity
8
0
100
AcDbPolyline
90
4
70
1
43
0.0
10
28.952312197695598
20
-92.882860355919235
10
28.952312197695615
20
-106.73346035591926
10
42.801312197695594
20
-106.73346035591921
10
42.80131219769558
20
-92.88286035591922
0
LWPOLYLINE
5
229
100
AcDbEntity
8
0
100
AcDbPolyline
90
4
70
1
43
0.0
10
95.627312197695616
20
-125.7821003559192
10
109.47831219769556
20
-125.78210035591916
10
109.47831219769554
20
-111.93286035591912
10
95.627312197695602
20
-111.93286035591917
0
LWPOLYLINE
5
230
100
AcDbEntity
8
0
100
AcDbPolyline
90
4
70
1
43
0.0
10
0.37731219769552737
20
-1.9585603559192253
10
14.22631219769551
20
-1.9585603559192033
10
14.226312197695492
20
11.892439644080808
10
0.3773121976955085
20
11.892439644080795
0
LWPOLYLINE
5
231
100
AcDbEntity
8
0
100
AcDbPolyline
90
4
70
1
43
0.0
10
-228.65948780230465
20
126.19243964408062
10
-242.51020780230465
20
126.19243964408058
10
-242.51020780230462
20
112.34143964408057
10
-228.65948780230462
20
112.34143964408057
0
LWPOLYLINE
5
232
100
AcDbEntity
8
0
100
AcDbPolyline
90
4
70
1
43
0.0
10
133.72831219769526
20
112.34143964408099
10
147.57831219769531
20
112.34143964408099
10
147.57831219769531
20
126.19243964408106
10
133.72831219769526
20
126.19243964408101
0
LWPOLYLINE
5
233
100
AcDbEntity
8
0
100
AcDbPolyline
90
4
70
1
43
0.0
10
28.952312197695562
20
-68.633260355919219
10
42.801312197695545
20
-68.633260355919191
10
42.801312197695566
20
-54.782860355919205
10
28.952312197695584
20
-54.782860355919219
0
LWPOLYLINE
5
234
100
AcDbEntity
8
0
100
AcDbPolyline
90
4
70
1
43
0.0
10
162.3033121976955
20
-49.58326035591908
10
176.15331219769553
20
-49.583260355919059
10
176.15331219769547
20
-35.732860355919044
10
162.3033121976955
20
-35.732860355919051
0
LWPOLYLINE
5
235
100
AcDbEntity
8
0
100
AcDbPolyline
90
4
70
1
43
0.0
10
-66.297687802304452
20
-21.008560355919307
10
-52.448687802304434
20
-21.008560355919293
10
-52.448687802304448
20
-7.1575603559192729
10
-66.297687802304466
20
-7.1575603559192924
0
LWPOLYLINE
5
236
100
AcDbEntity
8
0
100
AcDbPolyline
90
4
70
1
43
0.0
10
-204.41008780230462
20
112.34143964408061
10
-190.55968780230461
20
112.34143964408064
10
-190.55968780230467
20
126.19243964408065
10
-204.41008780230464
20
126.19243964408065
0
LWPOLYLINE
5
237
100
AcDbEntity
8
0
100
AcDbPolyline
90
4
70
1
43
0.0
10
-52.009687802304576
20
112.34143964408076
10
-38.15968780230456
20
112.34143964408079
10
-38.159687802304575
20
126.19243964408082
10
-52.009687802304597
20
126.19243964408082
0
LWPOLYLINE
5
238
100
AcDbEntity
8
0
100
AcDbPolyline
90
4
70
1
43
0.0
10
162.30331219769553
20
-68.633260355919077
10
176.15331219769556
20
-68.633260355919077
10
176.15331219769553
20
-54.782860355919063
10
162.30331219769553
20
-54.78286035591907
0
CIRCLE
5
239
100
AcDbEntity
8
0
100
AcDbCircle
10
-68.017409154506595
20
40.467439644080741
30
1.7763568394002505e-14
40
5.5000000000000089
0
CIRCLE
5
240
100
AcDbEntity
8
0
100
AcDbCircle
10
-22.566261586371681
20
40.467672370682465
30
0
40
5.5000000000000027
0
CIRCLE
5
241
100
AcDbEntity
8
0
100
AcDbCircle
10
68.336033549897508
20
40.467439644080741
30
1.7763568394002505e-14
40
5.5
0
CIRCLE
5
242
100
AcDbEntity
8
0
100
AcDbCircle
10
22.884885981763858
20
40.467672370682415
30
1.7763568394002505e-14
40
5.5
0
LWPOLYLINE
5
243
100
AcDbEntity
8
0
100
AcDbPolyline
90
4
70
1
43
0.0
10
-172.72308780230446
20
-83.819960355919562
10
-172.72308780230446
20
66.580039644080657
10
-212.72308780230449
20
66.580039644080657
10
-212.72308780230449
20
-83.819960355919562
0
ENDSEC
0
SECTION
2
OBJECTS
0
DICTIONARY
5
C
100
AcDbDictionary
3
ACAD_GROUP
350
D
3
ACAD_MLINESTYLE
350
17
0
DICTIONARY
5
D
100
AcDbDictionary
0
DICTIONARY
5
1A
330
C
100
AcDbDictionary
0
DICTIONARY
5
17
100
AcDbDictionary
0
ENDSEC
0
EOF
