0
SECTION
2
HEADER
9
$INSUNITS
70
4
9
$ACADVER
1
AC1014
9
$HANDSEED
5
FFFF
0
ENDSEC
0
SECTION
2
TABLES
0
TABLE
2
VPORT
5
8
100
AcDbSymbolTable
0
ENDTAB
0
TABLE
2
LTYPE
5
5
100
AcDbSymbolTable
0
LTYPE
5
14
100
AcDbSymbolTableRecord
100
AcDbLinetypeTableRecord
2
BYBLOCK
70
0
0
LTYPE
5
15
100
AcDbSymbolTableRecord
100
AcDbLinetypeTableRecord
2
BYLAYER
70
0
0
ENDTAB
0
TABLE
2
LAYER
5
2
100
AcDbSymbolTable
70
2
0
LAYER
5
50
100
AcDbSymbolTableRecord
100
AcDbLayerTableRecord
2
0
70
0
6
CONTINUOUS
0
ENDTAB
0
TABLE
2
STYLE
5
3
100
AcDbSymbolTable
70
1
0
STYLE
5
11
100
AcDbSymbolTableRecord
100
AcDbTextStyleTableRecord
2
STANDARD
70
0
0
ENDTAB
0
TABLE
2
VIEW
5
6
100
AcDbSymbolTable
70
0
0
ENDTAB
0
TABLE
2
UCS
5
7
100
AcDbSymbolTable
70
0
0
ENDTAB
0
TABLE
2
APPID
5
9
100
AcDbSymbolTable
70
2
0
APPID
5
12
100
AcDbSymbolTableRecord
100
AcDbRegAppTableRecord
2
ACAD
70
0
0
ENDTAB
0
TABLE
2
DIMSTYLE
5
A
100
AcDbSymbolTable
70
1
0
ENDTAB
0
TABLE
2
BLOCK_RECORD
5
1
100
AcDbSymbolTable
70
1
0
BLOCK_RECORD
5
1F
100
AcDbSymbolTableRecord
100
AcDbBlockTableRecord
2
*MODEL_SPACE
0
BLOCK_RECORD
5
1B
100
AcDbSymbolTableRecord
100
AcDbBlockTableRecord
2
*PAPER_SPACE
0
ENDTAB
0
ENDSEC
0
SECTION
2
BLOCKS
0
BLOCK
5
20
100
AcDbEntity
100
AcDbBlockBegin
2
*MODEL_SPACE
0
ENDBLK
5
21
100
AcDbEntity
100
AcDbBlockEnd
0
BLOCK
5
1C
100
AcDbEntity
100
AcDbBlockBegin
2
*PAPER_SPACE
0
ENDBLK
5
1D
100
AcDbEntity
100
AcDbBlockEnd
0
ENDSEC
0
SECTION
2
ENTITIES
0
ELLIPSE
5
100
100
AcDbEntity
8
0
100
AcDbEllipse
10
467.98120000000017
20
5.2499999999998082
30
0
11
6.4805083202756192e-17
21
-1.7000000000642659
31
0.0
40
0.9999999999622069
41
0
42
6.2831853071795862
0
ELLIPSE
5
101
100
AcDbEntity
8
0
100
AcDbEllipse
10
252.99060000000011
20
5.2499999999998082
30
0
11
6.4805083202755502e-17
21
-1.7000000000642479
31
0.0
40
0.9999999999622069
41
0
42
6.2831853071795862
0
ELLIPSE
5
102
100
AcDbEntity
8
0
100
AcDbEllipse
10
38.000000000000043
20
5.2499999999998437
30
0
11
6.4805083202756192e-17
21
-1.7000000000642659
31
0.0
40
0.9999999999622069
41
0
42
6.2831853071795862
0
LWPOLYLINE
5
103
100
AcDbEntity
8
0
100
AcDbPolyline
90
4
70
1
43
0.0
10
454.8939121976955
20
309.21311055434381
10
454.89391219769544
20
314.00998453642836
42
0.57355195340431964
10
446.69391219769534
20
314.00998453642842
10
446.69391219769545
20
309.21311055434381
42
0.57355195340432596
0
CIRCLE
5
104
100
AcDbEntity
8
0
100
AcDbCircle
10
17.405752197695605
20
124.52464754538536
30
-6.3108872417680944e-29
40
1.7000000000000171
0
CIRCLE
5
105
100
AcDbEntity
8
0
100
AcDbCircle
10
230.42433841362848
20
232.81228027198745
30
1.8932661725304283e-28
40
5.5000000000000071
0
CIRCLE
5
106
100
AcDbEntity
8
0
100
AcDbCircle
10
69.217512197695683
20
124.52464754538532
30
-6.3108872417680944e-29
40
1.7000000000000171
0
CIRCLE
5
107
100
AcDbEntity
8
0
100
AcDbCircle
10
51.317512197695692
20
124.52464754538536
30
-6.3108872417680944e-29
40
1.7000000000000171
0
CIRCLE
5
108
100
AcDbEntity
8
0
100
AcDbCircle
10
482.27845873975696
20
188.59147951348183
30
-1.2621774483536189e-28
40
1.6999999999999815
0
LWPOLYLINE
5
109
100
AcDbEntity
8
0
100
AcDbPolyline
90
4
70
1
43
0.0
10
50.217512197695626
20
239.02464754538562
10
50.217512197695626
20
130.02464754538533
10
52.417512197695686
20
130.02464754538533
10
52.417512197695686
20
239.02464754538562
0
LWPOLYLINE
5
110
100
AcDbEntity
8
0
100
AcDbPolyline
90
4
70
1
43
0.0
10
16.305752197695611
20
239.02464754538562
10
16.305752197695611
20
130.02464754538536
10
18.5057521976956
20
130.02464754538536
10
18.5057521976956
20
239.02464754538562
0
CIRCLE
5
111
100
AcDbEntity
8
0
100
AcDbCircle
10
69.217512197695683
20
244.52464754538551
30
-6.3108872417680944e-29
40
1.7000000000000171
0
CIRCLE
5
112
100
AcDbEntity
8
0
100
AcDbCircle
10
17.405752197695605
20
244.52464754538562
30
1.8932661725304283e-28
40
1.7000000000000171
0
LWPOLYLINE
5
113
100
AcDbEntity
8
0
100
AcDbPolyline
90
4
70
1
43
0.0
10
70.317512197695677
20
239.02464754538551
10
68.117512197695618
20
239.02464754538551
10
68.117512197695618
20
130.02464754538528
10
70.317512197695677
20
130.02464754538528
0
CIRCLE
5
114
100
AcDbEntity
8
0
100
AcDbCircle
10
446.17845873975693
20
137.59147899386849
30
-6.3108872417680944e-29
40
1.7000000000000171
0
CIRCLE
5
115
100
AcDbEntity
8
0
100
AcDbCircle
10
51.317512197695621
20
244.52464754538562
30
-6.3108872417680944e-29
40
1.6999999999999815
0
LWPOLYLINE
5
116
100
AcDbEntity
8
0
100
AcDbPolyline
90
8
70
1
43
0.0
10
217.90591219769561
20
302.61154754538592
42
-0.41421356237307422
10
216.90591219769559
20
301.61154754538592
10
198.90591219769559
20
301.61154754538597
42
-0.41421356237313667
10
197.90591219769556
20
302.61154754538592
10
197.90591219769556
20
320.61154754538592
42
-0.41421356237301177
10
198.90591219769559
20
321.61154754538592
10
216.90591219769556
20
321.61154754538586
42
-0.41421356237303264
10
217.90591219769561
20
320.61154754538592
0
LWPOLYLINE
5
117
100
AcDbEntity
8
0
100
AcDbPolyline
90
8
70
1
43
0.0
10
221.71741219769555
20
320.61154754538592
42
-0.41421356237301177
10
222.71741219769555
20
321.61154754538592
10
240.71741219769552
20
321.61154754538592
42
-0.41421356237304296
10
241.71741219769552
20
320.61154754538592
10
241.71741219769558
20
302.61154754538592
42
-0.41421356237307422
10
240.71741219769558
20
301.61154754538592
10
222.71741219769555
20
301.61154754538592
42
-0.41421356237307422
10
221.71741219769555
20
302.61154754538586
0
LWPOLYLINE
5
118
100
AcDbEntity
8
0
100
AcDbPolyline
90
8
70
1
43
0.0
10
170.28091219769553
20
302.61154754538586
42
-0.4142135623730534
10
169.28091219769553
20
301.6115475453858
10
151.2809121976955
20
301.61154754538586
42
-0.41421356237310542
10
150.28091219769553
20
302.61154754538586
10
150.28091219769556
20
320.61154754538586
42
-0.41421356237307422
10
151.2809121976955
20
321.61154754538586
10
169.28091219769553
20
321.61154754538586
42
-0.41421356237307422
10
170.2809121976955
20
320.61154754538586
0
LWPOLYLINE
5
119
100
AcDbEntity
8
0
100
AcDbPolyline
90
8
70
1
43
0.0
10
213.19241219769572
20
63.487127545385448
42
-0.41421356237308982
10
212.19241219769577
20
64.487127545385448
10
212.19241219769577
20
158.68654754538562
42
-0.41421356237308982
10
213.19241219769577
20
159.68654754538565
10
269.29241219769563
20
159.68654754538565
42
-0.41421356237311063
10
270.29241219769574
20
158.68654754538562
10
270.29241219769568
20
64.487127545385448
42
-0.41421356237311319
10
269.29241219769574
20
63.487127545385462
0
LWPOLYLINE
5
120
100
AcDbEntity
8
0
100
AcDbPolyline
90
8
70
1
43
0.0
10
146.46741219769555
20
302.6115475453858
42
-0.41421356237312629
10
145.46741219769555
20
301.6115475453858
10
127.46741219769554
20
301.6115475453858
42
-0.41421356237311063
10
126.46741219769555
20
302.6115475453858
10
126.46741219769559
20
320.61154754538586
42
-0.41421356237307422
10
127.46741219769554
20
321.61154754538586
10
145.46741219769555
20
321.61154754538592
42
-0.41421356237307422
10
146.46741219769555
20
320.61154754538586
0
LWPOLYLINE
5
121
100
AcDbEntity
8
0
100
AcDbPolyline
90
8
70
1
43
0.0
10
7.4057521976955698
20
277.74954754538561
42
-0.41421356237310542
10
8.4057521976955485
20
278.74954754538567
10
26.40575219769552
20
278.74954754538567
42
-0.41421356237309637
10
27.405752197695534
20
277.74954754538561
10
27.40575219769557
20
259.74954754538572
42
-0.41421356237305079
10
26.405752197695598
20
258.74954754538567
10
8.4057521976955485
20
258.74954754538567
42
-0.41421356237307361
10
7.4057521976955343
20
259.74954754538567
0
LWPOLYLINE
5
122
100
AcDbEntity
8
0
100
AcDbPolyline
90
8
70
1
43
0.0
10
279.86741219769567
20
63.487127545385498
42
-0.4142135623730534
10
278.86741219769573
20
64.487127545385476
10
278.86741219769578
20
158.68654754538579
42
-0.41421356237307422
10
279.86741219769573
20
159.68654754538579
10
335.96741219769569
20
159.68654754538582
42
-0.4142135623730222
10
336.96741219769569
20
158.68654754538576
10
336.96741219769581
20
64.487127545385505
42
-0.41421356237307944
10
335.96741219769575
20
63.487127545385533
0
LWPOLYLINE
5
123
100
AcDbEntity
8
0
100
AcDbPolyline
90
8
70
1
43
0.0
10
103.65571219769549
20
301.6115475453858
42
-0.41421356237310542
10
102.65571219769549
20
302.6115475453858
10
102.65571219769552
20
320.61154754538586
42
-0.41421356237307944
10
103.65571219769555
20
321.6115475453858
10
121.65571219769554
20
321.61154754538592
42
-0.41421356237307422
10
122.65571219769554
20
320.61154754538586
10
122.65571219769552
20
302.61154754538575
42
-0.41421356237309509
10
121.65571219769554
20
301.6115475453858
0
CIRCLE
5
124
100
AcDbEntity
8
0
100
AcDbCircle
10
275.87548598176403
20
232.81228027198745
30
1.8932661725304283e-28
40
5.5000000000000071
0
LWPOLYLINE
5
125
100
AcDbEntity
8
0
100
AcDbPolyline
90
8
70
1
43
0.0
10
41.717512197695612
20
258.74954754538572
42
-0.41421356237305079
10
40.717512197695633
20
259.74954754538572
10
40.717512197695605
20
277.74954754538567
42
-0.41421356237302998
10
41.717512197695612
20
278.74954754538572
10
78.817512197695621
20
278.74954754538572
42
-0.41421356237309243
10
79.817512197695635
20
277.74954754538567
10
79.817512197695649
20
259.74954754538578
42
-0.41421356237310281
10
78.817512197695606
20
258.74954754538578
0
LWPOLYLINE
5
126
100
AcDbEntity
8
0
100
AcDbPolyline
90
8
70
1
43
0.0
10
279.86741219769561
20
168.26154754538578
42
-0.41421356237309509
10
278.86741219769567
20
169.26154754538575
10
278.86741219769561
20
206.31154754538579
42
-0.41421356237310542
10
279.86741219769561
20
207.31154754538579
10
335.96741219769558
20
207.31154754538582
42
-0.4142135623730222
10
336.96741219769558
20
206.31154754538579
10
336.96741219769547
20
169.26154754538572
42
-0.41421356237308465
10
335.96741219769558
20
168.26154754538578
0
CIRCLE
5
127
100
AcDbEntity
8
0
100
AcDbCircle
10
11.999901301153315
20
290.18054754538582
30
-6.3108872417680944e-29
40
1.7000000000000171
0
CIRCLE
5
128
100
AcDbEntity
8
0
100
AcDbCircle
10
17.405752197695605
20
63.487127545385249
30
-6.3108872417680944e-29
40
1.7000000000000171
0
CIRCLE
5
129
100
AcDbEntity
8
0
100
AcDbCircle
10
253.14916219769555
20
321.61154754538614
30
6.3108872417680944e-29
40
1.6999999999999997
0
CIRCLE
5
130
100
AcDbEntity
8
0
100
AcDbCircle
10
494.98120000000023
20
63.487127545385427
30
0
40
1.7000000000000171
0
CIRCLE
5
131
100
AcDbEntity
8
0
100
AcDbCircle
10
494.98120000000023
20
104.66134754538565
30
-6.3108872417680944e-29
40
1.7000000000000171
0
CIRCLE
5
132
100
AcDbEntity
8
0
100
AcDbCircle
10
494.98120000000017
20
249.69954754538605
30
1.8932661725304283e-28
40
1.7000000000000171
0
CIRCLE
5
133
100
AcDbEntity
8
0
100
AcDbCircle
10
494.98120000000017
20
285.94954754538611
30
1.8932661725304283e-28
40
1.6250000000000142
0
CIRCLE
5
134
100
AcDbEntity
8
0
100
AcDbCircle
10
132.18091219769576
20
63.487127545385249
30
0
40
1.6999999999999993
0
LWPOLYLINE
5
135
100
AcDbEntity
8
0
100
AcDbPolyline
90
8
70
1
43
0.0
10
93.080712197695519
20
321.6115475453858
42
-0.41421356237307422
10
94.080712197695519
20
320.61154754538569
10
94.080712197695519
20
302.61154754538575
42
-0.41421356237307944
10
93.080712197695519
20
301.61154754538575
10
75.080712197695547
20
301.61154754538575
42
-0.41421356237309243
10
74.080712197695533
20
302.61154754538575
10
74.080712197695519
20
320.61154754538575
42
-0.4142135623731002
10
75.080712197695547
20
321.6115475453858
0
CIRCLE
5
136
100
AcDbEntity
8
0
100
AcDbCircle
10
446.17845873975693
20
187.59147899197899
30
6.3108872417680944e-29
40
1.6999999999999815
0
LWPOLYLINE
5
137
100
AcDbEntity
8
0
100
AcDbPolyline
90
8
70
1
43
0.0
10
346.54341219769549
20
168.26154754538592
42
-0.41421356237310542
10
345.5434121976956
20
169.26154754538584
10
345.54341219769555
20
206.31154754538585
42
-0.41421356237306384
10
346.54341219769555
20
207.31154754538585
10
364.5434121976956
20
207.31154754538591
42
-0.41421356237310542
10
365.5434121976956
20
206.31154754538585
10
365.54341219769555
20
169.26154754538578
42
-0.4142135623730534
10
364.5434121976956
20
168.26154754538581
0
CIRCLE
5
138
100
AcDbEntity
8
0
100
AcDbCircle
10
374.11891219769564
20
63.487127545385427
30
0
40
1.6999999999999993
0
CIRCLE
5
139
100
AcDbEntity
8
0
100
AcDbCircle
10
482.27845873975684
20
138.59147951537136
30
6.3108872417680944e-29
40
1.7000000000000171
0
LWPOLYLINE
5
140
100
AcDbEntity
8
0
100
AcDbPolyline
90
8
70
1
43
0.0
10
459.7939121976957
20
297.79954754538602
42
-0.41421356237306384
10
460.79391219769553
20
296.79954754538608
10
460.79391219769559
20
240.69954754538605
42
-0.4142135623730534
10
459.79391219769559
20
239.69954754538603
10
422.74391219769552
20
239.69954754538608
42
-0.41421356237310542
10
421.74391219769547
20
240.69954754538605
10
421.74391219769547
20
296.79954754538602
42
-0.41421356237313667
10
422.74391219769547
20
297.79954754538608
0
CIRCLE
5
141
100
AcDbEntity
8
0
100
AcDbCircle
10
460.79391219769548
20
321.61154754538643
30
6.3108872417680944e-29
40
1.7000000000000171
0
CIRCLE
5
142
100
AcDbEntity
8
0
100
AcDbCircle
10
162.29819084549351
20
233.0021039770333
30
1.2621774483536189e-28
40
1.6999999999999993
0
LWPOLYLINE
5
143
100
AcDbEntity
8
0
100
AcDbPolyline
90
8
70
1
43
0.0
10
41.717512197695825
20
63.487127545385285
42
-0.41421356237308982
10
40.717512197695811
20
64.487127545385306
10
40.717512197695825
20
82.487127545385334
42
-0.41421356237311585
10
41.717512197695825
20
83.487127545385405
10
78.817512197695763
20
83.487127545385391
42
-0.41421356237313145
10
79.817512197695805
20
82.487127545385363
10
79.817512197695791
20
64.487127545385363
42
-0.41421356237311063
10
78.817512197695763
20
63.487127545385263
0
CIRCLE
5
144
100
AcDbEntity
8
0
100
AcDbCircle
10
363.89819084549345
20
232.81204754538584
30
-1.2621774483536189e-28
40
1.6999999999999993
0
CIRCLE
5
145
100
AcDbEntity
8
0
100
AcDbCircle
10
184.97319084549358
20
232.81204754538572
30
1.8932661725304283e-28
40
5.5000000000000151
0
CIRCLE
5
146
100
AcDbEntity
8
0
100
AcDbCircle
10
470.98120000000006
20
292.29954754538608
30
1.2621774483536189e-28
40
1.6249999999999787
0
LWPOLYLINE
5
147
100
AcDbEntity
8
0
100
AcDbPolyline
90
8
70
1
43
0.0
10
7.4057521976955343
20
320.61154754538569
42
-0.41421356237307944
10
8.4057521976954952
20
321.61154754538575
10
64.505712197695502
20
321.61154754538575
42
-0.41421356237313145
10
65.505712197695516
20
320.61154754538569
10
65.505712197695544
20
302.61154754538575
42
-0.41421356237312101
10
64.505712197695516
20
301.61154754538569
10
8.4057521976955485
20
301.61154754538569
42
-0.41421356237310353
10
7.4057521976955343
20
302.61154754538563
0
LWPOLYLINE
5
148
100
AcDbEntity
8
0
100
AcDbPolyline
90
8
70
1
43
0.0
10
40.717512197695655
20
106.29964754538531
42
-0.41421356237309509
10
41.717512197695648
20
107.29964754538534
10
78.817512197695763
20
107.2996475453853
42
-0.41421356237305862
10
79.817512197695706
20
106.29964754538534
10
79.817512197695663
20
88.299647545385255
42
-0.41421356237307422
10
78.817512197695763
20
87.299647545385284
10
41.717512197695683
20
87.299647545385298
42
-0.41421356237307422
10
40.717512197695633
20
88.299647545385312
0
LWPOLYLINE
5
149
100
AcDbEntity
8
0
100
AcDbPolyline
90
8
70
1
43
0.0
10
384.64391219769539
20
301.61154754538609
42
-0.4142135623730222
10
383.64391219769539
20
302.61154754538614
10
383.64391219769544
20
320.61154754538614
42
-0.41421356237299095
10
384.64391219769539
20
321.61154754538614
10
402.6439121976955
20
321.6115475453862
42
-0.41421356237299095
10
403.6439121976955
20
320.61154754538614
10
403.6439121976955
20
302.61154754538614
42
-0.41421356237304296
10
402.6439121976955
20
301.61154754538614
0
LWPOLYLINE
5
150
100
AcDbEntity
8
0
100
AcDbPolyline
90
8
70
1
43
0.0
10
100.18666219769557
20
255.72154754538593
42
-0.41421356237310542
10
99.186662197695568
20
256.72154754538599
10
99.186662197695597
20
296.61154754538597
42
-0.41421356237310542
10
100.18666219769557
20
297.61154754538603
10
244.1866621976956
20
297.61154754538603
42
-0.41421356237312629
10
245.18666219769557
20
296.61154754538597
10
245.18666219769557
20
256.72154754538604
42
-0.4142135623731471
10
244.18666219769557
20
255.72154754538599
0
LWPOLYLINE
5
151
100
AcDbEntity
8
0
100
AcDbPolyline
90
8
70
1
43
0.0
10
407.10166219769548
20
256.72154754538604
42
-0.4142135623730222
10
406.10166219769553
20
255.72154754538602
10
262.10166219769553
20
255.72154754538602
42
-0.41421356237312629
10
261.10166219769553
20
256.72154754538604
10
261.10166219769553
20
296.61154754538609
42
-0.4142135623731471
10
262.10166219769553
20
297.61154754538614
10
406.10166219769553
20
297.61154754538609
42
-0.41421356237307422
10
407.10166219769548
20
296.61154754538609
0
CIRCLE
5
152
100
AcDbEntity
8
0
100
AcDbCircle
10
411.10666219769553
20
253.61154754538603
30
-1.2621774483536189e-28
40
1.6999999999999993
0
CIRCLE
5
153
100
AcDbEntity
8
0
100
AcDbCircle
10
257.10666219769553
20
297.6115475453862
30
-1.8932661725304283e-28
40
1.7000000000000026
0
LWPOLYLINE
5
154
100
AcDbEntity
8
0
100
AcDbPolyline
90
8
70
1
43
0.0
10
212.19241219769566
20
206.31154754538571
42
-0.4142135623730534
10
213.1924121976956
20
207.31154754538574
10
269.29241219769568
20
207.31154754538576
42
-0.4142135623730534
10
270.29241219769568
20
206.31154754538574
10
270.29241219769568
20
169.26154754538567
42
-0.41421356237306384
10
269.29241219769574
20
168.26154754538564
10
213.19241219769566
20
168.26154754538564
42
-0.41421356237313667
10
212.19241219769566
20
169.26154754538567
0
LWPOLYLINE
5
155
100
AcDbEntity
8
0
100
AcDbPolyline
90
8
70
1
43
0.0
10
375.11891219769541
20
215.88654754538598
42
-0.41421356237308465
10
374.11891219769552
20
216.88654754538595
10
374.11891219769558
20
234.88654754538595
42
-0.4142135623730222
10
375.11891219769552
20
235.88654754538595
10
431.21891219769566
20
235.88654754538589
42
-0.41421356237308465
10
432.21891219769566
20
234.88654754538589
10
432.21891219769566
20
216.88654754538589
42
-0.41421356237299095
10
431.21891219769566
20
215.88654754538595
0
CIRCLE
5
156
100
AcDbEntity
8
0
100
AcDbCircle
10
95.191662197695521
20
297.61154754538603
30
1.8932661725304283e-28
40
1.6999999999999993
0
LWPOLYLINE
5
157
100
AcDbEntity
8
0
100
AcDbPolyline
90
8
70
1
43
0.0
10
431.21891219769577
20
159.68654754538574
42
-0.41421356237304296
10
432.21891219769577
20
158.68654754538585
10
432.21891219769577
20
121.63654754538581
42
-0.41421356237304296
10
431.21891219769572
20
120.63654754538581
10
375.11891219769564
20
120.63654754538575
42
-0.4142135623730222
10
374.11891219769564
20
121.63654754538581
10
374.11891219769575
20
158.68654754538582
42
-0.4142135623730222
10
375.11891219769564
20
159.68654754538582
0
CIRCLE
5
158
100
AcDbEntity
8
0
100
AcDbCircle
10
257.10666219769553
20
253.61154754538603
30
-1.8932661725304283e-28
40
1.7000000000000026
0
LWPOLYLINE
5
159
100
AcDbEntity
8
0
100
AcDbPolyline
90
8
70
1
43
0.0
10
431.21891219769566
20
207.31154754538591
42
-0.41421356237304296
10
432.2189121976956
20
206.31154754538585
10
432.2189121976956
20
169.26154754538587
42
-0.41421356237298057
10
431.21891219769566
20
168.26154754538584
10
375.11891219769564
20
168.26154754538589
42
-0.41421356237310542
10
374.11891219769564
20
169.26154754538587
10
374.11891219769558
20
206.31154754538588
42
-0.41421356237306384
10
375.11891219769558
20
207.31154754538593
0
CIRCLE
5
160
100
AcDbEntity
8
0
100
AcDbCircle
10
411.10666219769553
20
297.61154754538614
30
-1.2621774483536189e-28
40
1.6999999999999993
0
LWPOLYLINE
5
161
100
AcDbEntity
8
0
100
AcDbPolyline
90
8
70
1
43
0.0
10
432.21891219769554
20
302.6115475453862
42
-0.41421356237306384
10
431.21891219769543
20
301.6115475453862
10
413.21891219769554
20
301.61154754538609
42
-0.41421356237310542
10
412.21891219769554
20
302.61154754538614
10
412.21891219769554
20
320.61154754538614
42
-0.4142135623730534
10
413.21891219769554
20
321.61154754538614
10
431.21891219769554
20
321.61154754538614
42
-0.41421356237313667
10
432.21891219769554
20
320.61154754538614
0
CIRCLE
5
162
100
AcDbEntity
8
0
100
AcDbCircle
10
249.19166219769554
20
297.61154754538603
30
-1.8932661725304283e-28
40
1.7000000000000017
0
CIRCLE
5
163
100
AcDbEntity
8
0
100
AcDbCircle
10
249.19166219769554
20
253.61154754538597
30
-1.8932661725304283e-28
40
1.7000000000000017
0
LWPOLYLINE
5
164
100
AcDbEntity
8
0
100
AcDbPolyline
90
8
70
1
43
0.0
10
331.20591219769551
20
321.61154754538609
42
-0.41421356237299095
10
332.20591219769551
20
320.61154754538597
10
332.20591219769551
20
302.61154754538597
42
-0.41421356237306384
10
331.20591219769545
20
301.61154754538597
10
313.20591219769551
20
301.61154754538597
42
-0.41421356237310542
10
312.20591219769551
20
302.61154754538603
10
312.20591219769551
20
320.61154754538592
42
-0.41421356237304296
10
313.20591219769551
20
321.61154754538597
0
CIRCLE
5
165
100
AcDbEntity
8
0
100
AcDbCircle
10
95.191662197695521
20
253.61154754538603
30
1.8932661725304283e-28
40
1.6999999999999993
0
LWPOLYLINE
5
166
100
AcDbEntity
8
0
100
AcDbPolyline
90
8
70
1
43
0.0
10
337.01741219769542
20
301.61154754538603
42
-0.4142135623730222
10
336.01741219769542
20
302.61154754538609
10
336.01741219769542
20
320.61154754538609
42
-0.41421356237297013
10
337.01741219769542
20
321.61154754538609
10
355.01741219769553
20
321.61154754538609
42
-0.41421356237297013
10
356.01741219769559
20
320.61154754538609
10
356.01741219769559
20
302.61154754538603
42
-0.41421356237304296
10
355.01741219769553
20
301.61154754538609
0
CIRCLE
5
167
100
AcDbEntity
8
0
100
AcDbCircle
10
482.98120000000011
20
311.6115475453862
30
-6.3108872417680944e-29
40
6.0000000000000142
0
LWPOLYLINE
5
168
100
AcDbEntity
8
0
100
AcDbPolyline
90
8
70
1
43
0.0
10
489.87620000000004
20
293.57454754538622
42
-0.41421356237310258
10
491.25620000000015
20
292.19454754538611
10
491.25620000000004
20
283.40454754538621
42
-0.41421356237304219
10
489.87620000000015
20
282.02454754538627
10
476.08620000000019
20
282.02454754538621
42
-0.41421356237312523
10
474.70620000000019
20
283.40454754538621
10
474.70620000000019
20
292.19454754538617
42
-0.41421356237310258
10
476.08620000000019
20
293.57454754538617
0
LWPOLYLINE
5
169
100
AcDbEntity
8
0
100
AcDbPolyline
90
8
70
1
43
0.0
10
307.39241219769553
20
321.61154754538597
42
-0.41421356237308465
10
308.39241219769553
20
320.61154754538597
10
308.39241219769553
20
302.61154754538597
42
-0.41421356237307422
10
307.39241219769553
20
301.61154754538597
10
289.39241219769553
20
301.61154754538603
42
-0.41421356237313667
10
288.39241219769553
20
302.61154754538597
10
288.39241219769548
20
320.61154754538597
42
-0.4142135623730534
10
289.39241219769548
20
321.61154754538597
0
LWPOLYLINE
5
170
100
AcDbEntity
8
0
100
AcDbPolyline
90
8
70
1
43
0.0
10
265.58091219769551
20
301.61154754538597
42
-0.41421356237312629
10
264.58091219769551
20
302.61154754538603
10
264.58091219769551
20
320.61154754538597
42
-0.4142135623730534
10
265.58091219769551
20
321.61154754538597
10
283.58091219769551
20
321.61154754538597
42
-0.41421356237309509
10
284.58091219769551
20
320.61154754538597
10
284.58091219769557
20
302.61154754538597
42
-0.41421356237307422
10
283.58091219769557
20
301.61154754538597
0
LWPOLYLINE
5
171
100
AcDbEntity
8
0
100
AcDbPolyline
90
8
70
1
43
0.0
10
93.13071219769563
20
206.31154754538557
42
-0.41421356237310542
10
94.130712197695615
20
207.31154754538557
10
131.18091219769576
20
207.31154754538557
42
-0.41421356237310542
10
132.18091219769573
20
206.31154754538557
10
132.18091219769579
20
93.061447545385391
42
-0.41421356237310542
10
131.18091219769579
20
92.061447545385434
10
94.13071219769563
20
92.061447545385406
42
-0.41421356237310542
10
93.13071219769563
20
93.061447545385391
0
LWPOLYLINE
5
172
100
AcDbEntity
8
0
100
AcDbPolyline
90
8
70
1
43
0.0
10
145.51741219769568
20
206.31154754538562
42
-0.41421356237310542
10
146.51741219769565
20
207.31154754538565
10
202.61741219769567
20
207.31154754538565
42
-0.41421356237309509
10
203.6174121976957
20
206.31154754538562
10
203.6174121976957
20
169.26154754538558
42
-0.41421356237308465
10
202.61741219769573
20
168.26154754538555
10
146.51741219769565
20
168.26154754538555
42
-0.41421356237310542
10
145.51741219769565
20
169.26154754538558
0
LWPOLYLINE
5
173
100
AcDbEntity
8
0
100
AcDbPolyline
90
10
70
1
43
0.0
10
442.42845873975676
20
206.09147899197632
42
-0.41421356237294932
10
442.92845873975671
20
206.59147899197632
10
478.52845873975662
20
206.59147899197643
10
478.5284587397569
20
127.59147951351753
10
486.0284587397569
20
127.59147951351753
10
486.0284587397569
20
120.09147951351747
42
-0.4142135623730222
10
485.5284587397569
20
119.5914795135175
10
449.92845873975688
20
119.59147951351746
10
449.92845873975676
20
198.59147899197632
10
442.42845873975676
20
198.59147899197623
0
CIRCLE
5
174
100
AcDbEntity
8
0
100
AcDbCircle
10
321.32663354989756
20
232.81204754538575
30
1.8932661725304283e-28
40
5.5000000000000071
0
LWPOLYLINE
5
175
100
AcDbEntity
8
0
100
AcDbPolyline
90
8
70
1
43
0.0
10
145.51741219769571
20
158.68654754538557
42
-0.4142135623731002
10
146.51741219769568
20
159.68654754538557
10
202.61741219769576
20
159.68654754538557
42
-0.4142135623731002
10
203.61741219769578
20
158.68654754538557
10
203.61741219769581
20
64.487127545385363
42
-0.41421356237308465
10
202.61741219769578
20
63.487127545385391
10
146.51741219769571
20
63.487127545385398
42
-0.4142135623730977
10
145.51741219769571
20
64.487127545385405
0
LWPOLYLINE
5
176
100
AcDbEntity
8
0
100
AcDbPolyline
90
8
70
1
43
0.0
10
379.83091219769557
20
302.61154754538603
42
-0.41421356237304296
10
378.83091219769551
20
301.61154754538609
10
360.8309121976954
20
301.61154754538603
42
-0.41421356237307422
10
359.83091219769551
20
302.61154754538603
10
359.8309121976954
20
320.61154754538609
42
-0.41421356237313667
10
360.83091219769551
20
321.61154754538614
10
378.83091219769551
20
321.61154754538614
42
-0.41421356237313667
10
379.83091219769551
20
320.61154754538609
0
LWPOLYLINE
5
177
100
AcDbEntity
8
0
100
AcDbPolyline
90
8
70
1
43
0.0
10
175.09241219769552
20
301.61154754538586
42
-0.41421356237309509
10
174.09241219769555
20
302.61154754538586
10
174.09241219769555
20
320.61154754538575
42
-0.41421356237304296
10
175.09241219769552
20
321.61154754538586
10
193.09241219769558
20
321.61154754538586
42
-0.41421356237307422
10
194.09241219769555
20
320.61154754538586
10
194.09241219769555
20
302.61154754538586
42
-0.41421356237309509
10
193.09241219769558
20
301.61154754538586
0
LWPOLYLINE
5
178
100
AcDbEntity
8
0
100
AcDbPolyline
90
8
70
1
43
0.0
10
346.54341219769577
20
63.487127545385526
42
-0.41421356237304557
10
345.54341219769577
20
64.487127545385505
10
345.54341219769583
20
158.68654754538579
42
-0.4142135623730222
10
346.54341219769577
20
159.68654754538579
10
364.54341219769572
20
159.68654754538585
42
-0.4142135623730222
10
365.54341219769577
20
158.68654754538579
10
365.54341219769577
20
64.487127545385505
42
-0.41421356237304818
10
364.54341219769572
20
63.487127545385533
0
LWPOLYLINE
5
179
100
AcDbEntity
8
0
100
AcDbPolyline
90
8
70
1
43
0.0
10
93.130712197695658
20
234.88654754538567
42
-0.41421356237310542
10
94.13071219769563
20
235.88654754538567
10
131.18091219769559
20
235.88654754538567
42
-0.41421356237310542
10
132.18091219769559
20
234.88654754538567
10
132.18091219769562
20
216.88654754538561
42
-0.41421356237311063
10
131.18091219769559
20
215.88654754538564
10
94.13071219769563
20
215.88654754538561
42
-0.41421356237310542
10
93.13071219769563
20
216.88654754538561
0
LWPOLYLINE
5
180
100
AcDbEntity
8
0
100
AcDbPolyline
90
4
70
1
43
0.0
10
94.227900000000062
20
366.66239539714348
10
94.227900000000062
20
347.22830167243933
10
97.402900000000088
20
347.22830167243933
10
97.402900000000088
20
366.66239539714348
0
LINE
5
181
100
AcDbEntity
8
0
100
AcDbLine
10
155.95000000000013
20
394.16752756926132
30
6.3108872417680944e-29
11
141.05000000000001
21
394.16752756926132
31
6.3108872417680944e-29
0
ELLIPSE
5
182
100
AcDbEntity
8
0
100
AcDbEllipse
10
141.05000000000004
20
394.96752756923092
30
1.2621774483536189e-28
11
-0.7999999999999301
21
-2.0241300912902232e-17
31
0.0
40
0.99999999996220701
41
0
42
1.5707963267948397
0
LINE
5
183
100
AcDbEntity
8
0
100
AcDbLine
10
140.25000000000011
20
394.96752756923092
30
1.2621774483536189e-28
11
140.25000000000006
21
411.36752756861114
31
1.8983789038472568e-28
0
ELLIPSE
5
184
100
AcDbEntity
8
0
100
AcDbEllipse
10
141.05000000000018
20
411.36752756861108
30
1.2621774483536189e-28
11
-0.8000000000001255
21
1.774332709241827e-14
31
0.0
40
0.99999999996220701
41
4.7123889803847181
42
6.2831853071794725
0
LINE
5
185
100
AcDbEntity
8
0
100
AcDbLine
10
141.05000000000015
20
412.16752756858091
30
1.2596239956330117e-28
11
155.95000000000013
21
412.16752756858102
31
1.2649507874735365e-28
0
ELLIPSE
5
186
100
AcDbEntity
8
0
100
AcDbEllipse
10
155.95000000000013
20
411.36752756861119
30
6.3108872417680944e-29
11
0.79999999999998339
21
2.0241300912903576e-17
31
0.0
40
0.99999999996220701
41
0
42
1.5707963267948966
0
LINE
5
187
100
AcDbEntity
8
0
100
AcDbLine
10
156.75000000000011
20
411.36752756861119
30
6.3108872417680944e-29
11
156.75000000000011
21
394.96752756923104
31
6.3108872417680944e-29
0
ELLIPSE
5
188
100
AcDbEntity
8
0
100
AcDbEllipse
10
155.95000000000013
20
394.96752756923109
30
6.3108872417680944e-29
11
0.79999999999998339
21
2.0241300912903576e-17
31
0.0
40
0.99999999996220701
41
4.7123889803846897
42
6.2831853071794725
0
ELLIPSE
5
189
100
AcDbEntity
8
0
100
AcDbEllipse
10
245.45000000000019
20
403.16752756892123
30
6.3108872417680944e-29
11
-1.7000000000000055
21
-4.3012764439921148e-17
31
0.0
40
0.9999999999622069
41
0
42
6.2831853071795862
0
ELLIPSE
5
190
100
AcDbEntity
8
0
100
AcDbEllipse
10
311.25000000000023
20
403.16752756892123
30
-1.8932661725304283e-28
11
-1.7000000000000002
21
-4.3012764439921012e-17
31
0.0
40
0.99999999996220668
41
0
42
6.2831853071795862
0
ELLIPSE
5
191
100
AcDbEntity
8
0
100
AcDbEllipse
10
443.73120000000023
20
403.16752756892123
30
-1.2621774483536189e-28
11
-1.7499999999999938
21
-4.4277845746977354e-17
31
0.0
40
0.9999999999622069
41
0
42
6.2831853071795862
0
LWPOLYLINE
5
192
100
AcDbEntity
8
0
100
AcDbPolyline
90
4
70
1
43
0.0
10
437.12790000000018
20
347.22830167243944
10
440.30290000000014
20
347.22830167243944
10
440.30290000000014
20
366.66239539714348
10
437.12790000000018
20
366.66239539714348
0
LWPOLYLINE
5
193
100
AcDbEntity
8
0
100
AcDbPolyline
90
4
70
1
43
0.0
10
399.02790000000027
20
347.22830167243933
10
402.20290000000023
20
347.22830167243933
10
402.20290000000023
20
366.66239539714348
10
399.02790000000027
20
366.66239539714348
0
LWPOLYLINE
5
194
100
AcDbEntity
8
0
100
AcDbPolyline
90
4
70
1
43
0.0
10
360.92790000000025
20
347.22830167243933
10
364.1029000000002
20
347.22830167243933
10
364.1029000000002
20
366.66239539714348
10
360.92790000000025
20
366.66239539714348
0
LWPOLYLINE
5
195
100
AcDbEntity
8
0
100
AcDbPolyline
90
4
70
1
43
0.0
10
322.82790000000023
20
347.22830167243933
10
326.00290000000018
20
347.22830167243933
10
326.00290000000018
20
366.66239539714348
10
322.82790000000023
20
366.66239539714348
0
LWPOLYLINE
5
196
100
AcDbEntity
8
0
100
AcDbPolyline
90
4
70
1
43
0.0
10
284.72790000000015
20
347.22830167243933
10
287.90290000000016
20
347.22830167243933
10
287.90290000000016
20
366.66239539714348
10
284.72790000000015
20
366.66239539714348
0
LWPOLYLINE
5
197
100
AcDbEntity
8
0
100
AcDbPolyline
90
4
70
1
43
0.0
10
246.62790000000024
20
347.22830167243933
10
249.80290000000014
20
347.22830167243933
10
249.80290000000022
20
366.66239539714348
10
246.62790000000018
20
366.66239539714348
0
LWPOLYLINE
5
198
100
AcDbEntity
8
0
100
AcDbPolyline
90
4
70
1
43
0.0
10
208.52790000000024
20
347.22830167243933
10
211.70290000000011
20
347.22830167243933
10
211.70290000000011
20
366.66239539714348
10
208.52790000000024
20
366.66239539714348
0
LWPOLYLINE
5
199
100
AcDbEntity
8
0
100
AcDbPolyline
90
4
70
1
43
0.0
10
170.42790000000019
20
347.22830167243933
10
173.60290000000015
20
347.22830167243933
10
173.60290000000015
20
366.66239539714348
10
170.42790000000011
20
366.66239539714348
0
LWPOLYLINE
5
200
100
AcDbEntity
8
0
100
AcDbPolyline
90
4
70
1
43
0.0
10
132.32790000000008
20
347.22830167243933
10
135.50290000000012
20
347.22830167243933
10
135.50290000000012
20
366.66239539714348
10
132.32790000000008
20
366.66239539714348
0
LWPOLYLINE
5
201
100
AcDbEntity
8
0
100
AcDbPolyline
90
4
70
1
43
0.0
10
56.127900000000039
20
347.22830167243933
10
59.302900000000065
20
347.22830167243933
10
59.302900000000065
20
366.66239539714348
10
56.127900000000039
20
366.66239539714348
0
LWPOLYLINE
5
202
100
AcDbEntity
8
0
100
AcDbPolyline
90
4
70
1
43
0.0
10
475.22790000000032
20
347.22830167243944
10
478.40290000000027
20
347.22830167243944
10
478.40290000000027
20
366.66239539714348
10
475.22790000000032
20
366.66239539714348
0
ELLIPSE
5
203
100
AcDbEntity
8
0
100
AcDbEllipse
10
54.375000000000071
20
413.16752756854339
30
-6.3108872417680944e-29
11
-1.7000000000000017
21
-4.301276443992137e-17
31
0.0
40
0.9999999999622069
41
0
42
6.2831853071795862
0
LWPOLYLINE
5
204
100
AcDbEntity
8
0
100
AcDbPolyline
90
4
70
1
43
0.0
10
120.25000000000013
20
395.06752756922737
10
120.25000000000013
20
411.26752756861521
10
105.7500000000001
20
411.26752756861492
10
105.7500000000001
20
395.06752756922742
0
ELLIPSE
5
205
100
AcDbEntity
8
0
100
AcDbEllipse
10
197.0000000000002
20
398.66752756909159
30
-6.3108872417680944e-29
11
-1.6999999999999849
21
-4.3012764439920642e-17
31
0.0
40
0.9999999999622069
41
0
42
6.2831853071795862
0
ELLIPSE
5
206
100
AcDbEntity
8
0
100
AcDbEllipse
10
125.50000000000004
20
403.16752756892123
30
-1.2621774483536189e-28
11
-1.7000000000000002
21
-4.3012764439921012e-17
31
0.0
40
0.99999999996220668
41
0
42
6.2831853071795862
0
ELLIPSE
5
207
100
AcDbEntity
8
0
100
AcDbEllipse
10
64.375000000000071
20
403.16752756892123
30
0
11
-11.375000000000002
21
-2.8780599735535394e-16
31
0.0
40
0.99999999996220679
41
0
42
6.2831853071795862
0
ELLIPSE
5
208
100
AcDbEntity
8
0
100
AcDbEllipse
10
29.375000000000071
20
413.16752756854339
30
0
11
-1.7000000000000017
21
-4.301276443992137e-17
31
0.0
40
0.9999999999622069
41
0
42
6.2831853071795862
0
LWPOLYLINE
5
209
100
AcDbEntity
8
0
100
AcDbPolyline
90
4
70
1
43
0.0
10
46.602900000000034
20
347.22830167243933
10
49.777900000000059
20
347.22830167243933
10
49.777900000000059
20
366.66239539714348
10
46.602900000000034
20
366.66239539714348
0
LWPOLYLINE
5
210
100
AcDbEntity
8
0
100
AcDbPolyline
90
4
70
1
43
0.0
10
84.702900000000056
20
347.22830167243933
10
87.877900000000082
20
347.22830167243933
10
87.877900000000082
20
366.66239539714348
10
84.702900000000056
20
366.66239539714348
0
LWPOLYLINE
5
211
100
AcDbEntity
8
0
100
AcDbPolyline
90
4
70
1
43
0.0
10
122.80290000000008
20
347.22830167243933
10
125.9779000000001
20
347.22830167243933
10
125.9779000000001
20
366.66239539714348
10
122.80290000000008
20
366.66239539714348
0
LWPOLYLINE
5
212
100
AcDbEntity
8
0
100
AcDbPolyline
90
4
70
1
43
0.0
10
160.90290000000016
20
347.22830167243933
10
164.07790000000011
20
347.22830167243933
10
164.07790000000011
20
366.66239539714348
10
160.9029000000001
20
366.66239539714348
0
LWPOLYLINE
5
213
100
AcDbEntity
8
0
100
AcDbPolyline
90
4
70
1
43
0.0
10
199.00290000000018
20
347.22830167243933
10
202.17790000000011
20
347.22830167243933
10
202.17790000000011
20
366.66239539714348
10
199.00290000000018
20
366.66239539714348
0
LWPOLYLINE
5
214
100
AcDbEntity
8
0
100
AcDbPolyline
90
4
70
1
43
0.0
10
237.10290000000026
20
347.22830167243933
10
240.27790000000013
20
347.22830167243933
10
240.27790000000013
20
366.66239539714348
10
237.10290000000015
20
366.66239539714348
0
LWPOLYLINE
5
215
100
AcDbEntity
8
0
100
AcDbPolyline
90
4
70
1
43
0.0
10
275.20290000000017
20
347.22830167243933
10
278.37790000000018
20
347.22830167243933
10
278.37790000000018
20
366.66239539714348
10
275.20290000000017
20
366.66239539714348
0
LWPOLYLINE
5
216
100
AcDbEntity
8
0
100
AcDbPolyline
90
4
70
1
43
0.0
10
313.30290000000019
20
347.22830167243933
10
316.4779000000002
20
347.22830167243933
10
316.4779000000002
20
366.66239539714348
10
313.30290000000019
20
366.66239539714348
0
LWPOLYLINE
5
217
100
AcDbEntity
8
0
100
AcDbPolyline
90
4
70
1
43
0.0
10
351.40290000000005
20
347.22830167243933
10
354.57790000000017
20
347.22830167243933
10
354.57790000000017
20
366.66239539714348
10
351.40290000000005
20
366.66239539714348
0
LWPOLYLINE
5
218
100
AcDbEntity
8
0
100
AcDbPolyline
90
4
70
1
43
0.0
10
389.50290000000024
20
347.22830167243933
10
392.67790000000019
20
347.22830167243933
10
392.67790000000019
20
366.66239539714348
10
389.50290000000024
20
366.66239539714348
0
LWPOLYLINE
5
219
100
AcDbEntity
8
0
100
AcDbPolyline
90
4
70
1
43
0.0
10
427.60290000000026
20
347.22830167243944
10
430.77790000000022
20
347.22830167243944
10
430.77790000000022
20
366.66239539714348
10
427.6029000000002
20
366.66239539714348
0
LWPOLYLINE
5
220
100
AcDbEntity
8
0
100
AcDbPolyline
90
4
70
1
43
0.0
10
465.70290000000028
20
347.22830167243944
10
468.87790000000024
20
347.22830167243944
10
468.87790000000024
20
366.66239539714348
10
465.70290000000028
20
366.66239539714354
0
LWPOLYLINE
5
221
100
AcDbEntity
8
0
100
AcDbPolyline
90
5
70
1
43
0.0
10
307.1500000000002
20
403.5675275689062
10
304.05000000000024
20
406.96752756877748
10
288.35000000000019
20
406.96752756877748
10
288.35000000000019
20
399.3675275690648
10
307.1500000000002
20
399.3675275690648
0
ELLIPSE
5
222
100
AcDbEntity
8
0
100
AcDbEllipse
10
272.45000000000016
20
403.16752756892123
30
2.5243548967072378e-28
11
-1.7000000000000002
21
-4.3012764439921012e-17
31
0.0
40
0.99999999996220668
41
0
42
6.2831853071795862
0
ELLIPSE
5
223
100
AcDbEntity
8
0
100
AcDbEllipse
10
207.95000000000019
20
403.16752756892123
30
1.8932661725304283e-28
11
-1.7000000000000055
21
-4.3012764439921148e-17
31
0.0
40
0.9999999999622069
41
0
42
6.2831853071795862
0
ELLIPSE
5
224
100
AcDbEntity
8
0
100
AcDbEllipse
10
136.50000000000006
20
407.66752756875093
30
-1.8932661725304283e-28
11
-1.6999999999999931
21
-4.3012764439921148e-17
31
0.0
40
0.9999999999622069
41
0
42
6.2831853071795862
0
ELLIPSE
5
225
100
AcDbEntity
8
0
100
AcDbEllipse
10
234.85000000000016
20
403.16752756892123
30
-1.2621774483536189e-28
11
-1.6999999999999988
21
-4.3012764439920994e-17
31
0.0
40
0.9999999999622069
41
0
42
6.2831853071795862
0
ELLIPSE
5
226
100
AcDbEntity
8
0
100
AcDbEllipse
10
284.25000000000017
20
403.16752756892123
30
1.8932661725304283e-28
11
-1.7000000000000055
21
-4.3012764439921148e-17
31
0.0
40
0.9999999999622069
41
0
42
6.2831853071795862
0
LINE
5
227
100
AcDbEntity
8
0
100
AcDbLine
10
449.48120000000017
20
395.66752756920465
30
-6.3108872417680944e-29
11
449.48120000000017
21
410.66752756863775
31
-6.3108872417680944e-29
0
ELLIPSE
5
228
100
AcDbEntity
8
0
100
AcDbEllipse
10
452.48120000000023
20
410.66752756863769
30
0
11
-3.000000000000008
21
-7.5904878423390749e-17
31
0.0
40
0.99999999996220668
41
4.7123889803846897
42
6.2831853071795578
0
LINE
5
229
100
AcDbEntity
8
0
100
AcDbLine
10
452.48120000000023
20
413.66752756852435
30
1.0923516052430092e-33
11
474.98120000000029
21
413.66752756852435
31
-4.3140830754274083e-31
0
ELLIPSE
5
230
100
AcDbEntity
8
0
100
AcDbEllipse
10
474.98120000000029
20
410.66752756863769
30
6.3108872417680944e-29
11
3.000000000000008
21
7.5904878423390749e-17
31
0.0
40
0.99999999996220668
41
0
42
1.5707963267948966
0
LINE
5
231
100
AcDbEntity
8
0
100
AcDbLine
10
477.98120000000034
20
410.66752756863769
30
6.3108872417680944e-29
11
477.98120000000029
21
395.66752756920471
31
1.2621774483536189e-28
0
ELLIPSE
5
232
100
AcDbEntity
8
0
100
AcDbEllipse
10
474.98120000000029
20
395.66752756920465
30
6.3108872417680944e-29
11
3.000000000000008
21
7.5904878423390749e-17
31
0.0
40
0.99999999996220668
41
4.7123889803846897
42
6.2831853071796431
0
LINE
5
233
100
AcDbEntity
8
0
100
AcDbLine
10
474.98120000000029
20
392.667527569318
30
6.3107780066075701e-29
11
452.48120000000023
21
392.667527569318
31
6.3108872417680944e-29
0
ELLIPSE
5
234
100
AcDbEntity
8
0
100
AcDbEllipse
10
452.48120000000023
20
395.66752756920465
30
0
11
-3.000000000000008
21
-7.5904878423390749e-17
31
0.0
40
0.99999999996220668
41
6.2831853071795578
42
7.8539816339744828
0
LWPOLYLINE
5
235
100
AcDbEntity
8
0
100
AcDbPolyline
90
4
70
1
43
0.0
10
446.65290000000022
20
347.22830167243944
10
449.82790000000017
20
347.22830167243944
10
449.82790000000017
20
366.66239539714348
10
446.65290000000022
20
366.66239539714348
0
LWPOLYLINE
5
236
100
AcDbEntity
8
0
100
AcDbPolyline
90
4
70
1
43
0.0
10
408.55290000000025
20
347.22830167243944
10
411.7279000000002
20
347.22830167243944
10
411.7279000000002
20
366.66239539714348
10
408.55290000000025
20
366.66239539714348
0
LWPOLYLINE
5
237
100
AcDbEntity
8
0
100
AcDbPolyline
90
4
70
1
43
0.0
10
370.45290000000023
20
347.22830167243933
10
373.62790000000018
20
347.22830167243933
10
373.62790000000018
20
366.66239539714348
10
370.45290000000023
20
366.66239539714348
0
LWPOLYLINE
5
238
100
AcDbEntity
8
0
100
AcDbPolyline
90
4
70
1
43
0.0
10
332.3529000000002
20
347.22830167243933
10
335.52790000000016
20
347.22830167243933
10
335.52790000000016
20
366.66239539714348
10
332.3529000000002
20
366.66239539714348
0
LWPOLYLINE
5
239
100
AcDbEntity
8
0
100
AcDbPolyline
90
4
70
1
43
0.0
10
294.25290000000012
20
347.22830167243933
10
297.42790000000019
20
347.22830167243933
10
297.42790000000019
20
366.66239539714348
10
294.25290000000012
20
366.66239539714348
0
LWPOLYLINE
5
240
100
AcDbEntity
8
0
100
AcDbPolyline
90
4
70
1
43
0.0
10
256.15290000000016
20
347.22830167243933
10
259.32790000000017
20
347.22830167243933
10
259.32790000000023
20
366.66239539714348
10
256.15290000000022
20
366.66239539714348
0
LWPOLYLINE
5
241
100
AcDbEntity
8
0
100
AcDbPolyline
90
4
70
1
43
0.0
10
218.05290000000014
20
347.22830167243933
10
221.22790000000012
20
347.22830167243933
10
221.22790000000012
20
366.66239539714348
10
218.05290000000014
20
366.66239539714348
0
LWPOLYLINE
5
242
100
AcDbEntity
8
0
100
AcDbPolyline
90
4
70
1
43
0.0
10
179.95290000000017
20
347.22830167243933
10
183.12790000000012
20
347.22830167243933
10
183.12790000000012
20
366.66239539714348
10
179.95290000000011
20
366.66239539714348
0
LWPOLYLINE
5
243
100
AcDbEntity
8
0
100
AcDbPolyline
90
4
70
1
43
0.0
10
141.85290000000009
20
347.22830167243933
10
145.0279000000001
20
347.22830167243933
10
145.0279000000001
20
366.66239539714348
10
141.85290000000009
20
366.66239539714348
0
LWPOLYLINE
5
244
100
AcDbEntity
8
0
100
AcDbPolyline
90
4
70
1
43
0.0
10
103.75290000000007
20
347.22830167243933
10
106.92790000000009
20
347.22830167243933
10
106.92790000000009
20
366.66239539714348
10
103.75290000000007
20
366.66239539714348
0
LWPOLYLINE
5
245
100
AcDbEntity
8
0
100
AcDbPolyline
90
4
70
1
43
0.0
10
65.652900000000116
20
347.22830167243933
10
68.827900000000071
20
347.22830167243933
10
68.827900000000071
20
366.66239539714348
10
65.652900000000116
20
366.66239539714348
0
LWPOLYLINE
5
246
100
AcDbEntity
8
0
100
AcDbPolyline
90
4
70
1
43
0.0
10
27.552900000000022
20
347.22830167243933
10
30.727900000000048
20
347.22830167243933
10
30.727900000000048
20
366.66239539714348
10
27.552900000000022
20
366.66239539714348
0
ELLIPSE
5
247
100
AcDbEntity
8
0
100
AcDbEllipse
10
49.375000000000071
20
393.16752756929924
30
1.8932661725304283e-28
11
-1.7000000000000035
21
-4.3012764439921092e-17
31
0.0
40
0.9999999999622069
41
0
42
6.2831853071795862
0
ELLIPSE
5
248
100
AcDbEntity
8
0
100
AcDbEllipse
10
100.50000000000004
20
403.16752756892123
30
-6.3108872417680944e-29
11
-1.7000000000000002
21
-4.3012764439921012e-17
31
0.0
40
0.99999999996220668
41
0
42
6.2831853071795862
0
LINE
5
249
100
AcDbEntity
8
0
100
AcDbLine
10
192.45000000000016
20
394.16752756926132
30
1.2621774483536189e-28
11
177.55000000000024
21
394.16752756926132
31
1.2621774483536189e-28
0
ELLIPSE
5
250
100
AcDbEntity
8
0
100
AcDbEllipse
10
177.55000000000024
20
394.96752756923121
30
1.8932661725304283e-28
11
-0.80000000000013438
21
1.7743327092418469e-14
31
0.0
40
0.99999999996220701
41
1.1368683772161603e-13
42
1.570796326794925
0
LINE
5
251
100
AcDbEntity
8
0
100
AcDbLine
10
176.75000000000011
20
394.96752756923115
30
1.8932661725304286e-28
11
176.75000000000011
21
411.36752756861142
31
1.8932661725304283e-28
0
ELLIPSE
5
252
100
AcDbEntity
8
0
100
AcDbEllipse
10
177.54999999999995
20
411.36752756861142
30
1.8932661725304283e-28
11
-0.79999999999987681
21
-8.9020254975784952e-15
31
0.0
40
0.99999999996220701
41
4.7123889803846328
42
6.2831853071795862
0
LINE
5
253
100
AcDbEntity
8
0
100
AcDbLine
10
177.54999999999998
20
412.16752756858108
30
1.8945472682971529e-28
11
192.4500000000001
21
412.16752756858119
31
1.8932661725304283e-28
0
ELLIPSE
5
254
100
AcDbEntity
8
0
100
AcDbEllipse
10
192.4500000000001
20
411.36752756861119
30
1.2621774483536189e-28
11
0.80000000000005445
21
-3.5506895485749454e-14
31
0.0
40
0.99999999996220701
41
0
42
1.5707963267949534
0
LINE
5
255
100
AcDbEntity
8
0
100
AcDbLine
10
193.25000000000017
20
411.36752756861131
30
1.2621774483536184e-28
11
193.25000000000014
21
394.96752756923104
31
1.2672901796704474e-28
0
ELLIPSE
5
256
100
AcDbEntity
8
0
100
AcDbEllipse
10
192.45000000000016
20
394.96752756923109
30
1.2621774483536189e-28
11
0.79999999999998339
21
2.0241300912903576e-17
31
0.0
40
0.99999999996220701
41
4.7123889803846613
42
6.2831853071794725
0
ELLIPSE
5
257
100
AcDbEntity
8
0
100
AcDbEllipse
10
173.00000000000017
20
407.66752756875132
30
-1.2621774483536189e-28
11
-1.6999999999999931
21
-4.3012764439921148e-17
31
0.0
40
0.9999999999622069
41
0
42
6.2831853071795862
0
ELLIPSE
5
258
100
AcDbEntity
8
0
100
AcDbEllipse
10
74.375000000000071
20
393.16752756929924
30
1.2621774483536189e-28
11
-1.7000000000000035
21
-4.3012764439921092e-17
31
0.0
40
0.9999999999622069
41
0
42
6.2831853071795862
0
ELLIPSE
5
259
100
AcDbEntity
8
0
100
AcDbEllipse
10
39.375000000000071
20
403.16752756892123
30
6.3108872417680944e-29
11
-11.375000000000002
21
-2.8780599735535394e-16
31
0.0
40
0.99999999996220679
41
0
42
6.2831853071795862
0
LWPOLYLINE
5
260
100
AcDbEntity
8
0
100
AcDbPolyline
90
4
70
1
43
0.0
10
37.077899999999957
20
347.22830167243933
10
40.252900000000054
20
347.22830167243933
10
40.252900000000054
20
366.66239539714348
10
37.077899999999957
20
366.66239539714348
0
LWPOLYLINE
5
261
100
AcDbEntity
8
0
100
AcDbPolyline
90
4
70
1
43
0.0
10
75.177900000000051
20
347.22830167243933
10
78.352900000000076
20
347.22830167243933
10
78.352900000000076
20
366.66239539714348
10
75.177900000000051
20
366.66239539714348
0
LWPOLYLINE
5
262
100
AcDbEntity
8
0
100
AcDbPolyline
90
4
70
1
43
0.0
10
113.27790000000014
20
347.22830167243933
10
116.4529000000001
20
347.22830167243933
10
116.4529000000001
20
366.66239539714348
10
113.27790000000014
20
366.66239539714348
0
LWPOLYLINE
5
263
100
AcDbEntity
8
0
100
AcDbPolyline
90
4
70
1
43
0.0
10
151.3779000000001
20
347.22830167243933
10
154.55290000000014
20
347.22830167243933
10
154.55290000000014
20
366.66239539714348
10
151.3779000000001
20
366.66239539714348
0
LWPOLYLINE
5
264
100
AcDbEntity
8
0
100
AcDbPolyline
90
4
70
1
43
0.0
10
189.4779000000002
20
347.22830167243933
10
192.6529000000001
20
347.22830167243933
10
192.6529000000001
20
366.66239539714348
10
189.47790000000012
20
366.66239539714348
0
LWPOLYLINE
5
265
100
AcDbEntity
8
0
100
AcDbPolyline
90
4
70
1
43
0.0
10
227.57790000000011
20
347.22830167243933
10
230.75290000000012
20
347.22830167243933
10
230.75290000000012
20
366.66239539714348
10
227.57790000000011
20
366.66239539714348
0
LWPOLYLINE
5
266
100
AcDbEntity
8
0
100
AcDbPolyline
90
4
70
1
43
0.0
10
265.67790000000014
20
347.22830167243933
10
268.8529000000002
20
347.22830167243933
10
268.85290000000026
20
366.66239539714348
10
265.67790000000025
20
366.66239539714348
0
LWPOLYLINE
5
267
100
AcDbEntity
8
0
100
AcDbPolyline
90
4
70
1
43
0.0
10
303.77790000000016
20
347.22830167243933
10
306.95290000000023
20
347.22830167243933
10
306.95290000000023
20
366.66239539714348
10
303.77790000000016
20
366.66239539714348
0
LWPOLYLINE
5
268
100
AcDbEntity
8
0
100
AcDbPolyline
90
4
70
1
43
0.0
10
341.87790000000018
20
347.22830167243933
10
345.05290000000014
20
347.22830167243933
10
345.05290000000014
20
366.66239539714348
10
341.87790000000018
20
366.66239539714348
0
LWPOLYLINE
5
269
100
AcDbEntity
8
0
100
AcDbPolyline
90
4
70
1
43
0.0
10
379.9779000000002
20
347.22830167243933
10
383.15290000000016
20
347.22830167243933
10
383.15290000000016
20
366.66239539714348
10
379.9779000000002
20
366.66239539714348
0
LWPOLYLINE
5
270
100
AcDbEntity
8
0
100
AcDbPolyline
90
4
70
1
43
0.0
10
418.07790000000023
20
347.22830167243944
10
421.25290000000035
20
347.22830167243944
10
421.2529000000003
20
366.66239539714348
10
418.07790000000017
20
366.66239539714348
0
LWPOLYLINE
5
271
100
AcDbEntity
8
0
100
AcDbPolyline
90
4
70
1
43
0.0
10
456.17790000000025
20
347.22830167243944
10
459.3529000000002
20
347.22830167243944
10
459.3529000000002
20
366.66239539714348
10
456.17790000000025
20
366.66239539714354
0
ELLIPSE
5
272
100
AcDbEntity
8
0
100
AcDbEllipse
10
483.73120000000029
20
403.16752756892123
30
1.8932661725304283e-28
11
-1.7499999999999938
21
-4.4277845746977354e-17
31
0.0
40
0.9999999999622069
41
0
42
6.2831853071795862
0
LWPOLYLINE
5
273
100
AcDbEntity
8
0
100
AcDbPolyline
90
5
70
1
43
0.0
10
268.35000000000019
20
399.36752756906486
10
268.35000000000019
20
403.56752756890614
10
265.25000000000023
20
406.96752756877748
10
249.55000000000018
20
406.96752756877748
10
249.55000000000018
20
399.3675275690648
0
LWPOLYLINE
5
274
100
AcDbEntity
8
0
100
AcDbPolyline
90
8
70
1
43
0.0
10
227.95000000000016
20
404.8675275688571
10
226.70000000000019
20
406.36752756880026
10
216.10000000000019
20
406.36752756880026
10
214.85000000000014
20
404.86752756885687
10
213.25000000000014
20
404.86752756885676
10
213.25000000000017
20
399.96752756904215
10
229.55000000000015
20
399.96752756904215
10
229.55000000000015
20
404.8675275688571
0
ELLIPSE
5
275
100
AcDbEntity
8
0
100
AcDbEllipse
10
160.50000000000011
20
398.66752756909113
30
-1.2621774483536189e-28
11
-1.6999999999999849
21
-4.3012764439920642e-17
31
0.0
40
0.9999999999622069
41
0
42
6.2831853071795862
0
LWPOLYLINE
5
276
100
AcDbEntity
8
0
100
AcDbPolyline
90
12
70
1
43
0.0
10
505.9812000000004
20
439.39226035589235
10
505.9812000000004
20
427.3922603558924
10
507.98120000000029
20
422.7112873020626
10
507.98120000000017
20
15.180973053849023
10
505.98120000000029
20
10.500000000000043
10
505.98120000000029
20
3.5527136788005009e-14
10
0
20
0
10
0
20
10.500000000000043
10
-1.9999999999998153
20
15.180973053848987
10
-1.9999999999999574
20
422.7112873020626
10
-7.1054273576009993e-14
20
427.39226035589229
10
-7.1054273576010019e-14
20
439.39226035589229
0
ELLIPSE
5
277
100
AcDbEntity
8
0
100
AcDbEllipse
10
252.9906000000002
20
433.39226035589309
30
6.3108872417680944e-29
11
8.9817948750931297e-17
21
-1.700000000064251
31
0.0
40
0.9999999999622069
41
0
42
6.2831853071795862
0
ELLIPSE
5
278
100
AcDbEntity
8
0
100
AcDbEllipse
10
467.9812000000004
20
433.39226035589309
30
6.3108872417680944e-29
11
8.9817948750932172e-17
21
-1.7000000000642677
31
0.0
40
0.9999999999622069
41
0
42
6.2831853071795862
0
ELLIPSE
5
279
100
AcDbEntity
8
0
100
AcDbEllipse
10
38.000000000000043
20
433.39226035589292
30
6.3108872417680944e-29
11
8.9817948750932172e-17
21
-1.7000000000642677
31
0.0
40
0.9999999999622069
41
0
42
6.2831853071795862
0
LINE
5
280
100
AcDbEntity
8
0
100
AcDbLine
10
507.98120000000029
20
339.62776108697057
30
0
11
-2.0000000000000284
21
339.62776108697057
31
0
0
LINE
5
281
100
AcDbEntity
8
0
100
AcDbLine
10
-1.9999999999999574
20
47.905006997517106
30
0
11
507.98120000000034
21
47.90500699751712
31
0
0
LINE
5
282
100
AcDbEntity
8
0
100
AcDbLine
10
506.98120000000051
20
425.05177382897773
30
0
11
-1.0000000000002984
21
425.05177382897773
31
0
0
LINE
5
283
100
AcDbEntity
8
0
100
AcDbLine
10
-0.99999999999994316
20
12.840486526924408
30
0
11
506.98120000000029
21
12.84048652692443
31
0
0
LINE
5
284
100
AcDbEntity
8
0
100
AcDbLine
10
-1.9999999999999574
20
422.7112873020626
30
0
11
507.98120000000034
21
422.71128730206266
31
0
0
LINE
5
285
100
AcDbEntity
8
0
100
AcDbLine
10
505.9812000000004
20
427.39226035589235
30
0
11
-1.4210854715202004e-13
21
427.39226035589235
31
0
0
LINE
5
286
100
AcDbEntity
8
0
100
AcDbLine
10
507.98120000000017
20
15.180973053849023
30
0
11
-1.9999999999998153
21
15.180973053849002
31
0
0
LINE
5
287
100
AcDbEntity
8
0
100
AcDbLine
10
0
20
10.500000000000114
30
0
11
505.98120000000023
21
10.500000000000099
31
0
0
LINE
5
288
100
AcDbEntity
8
0
100
AcDbLine
10
507.9812000000004
20
342.22830167243944
30
0
11
-2.0000000000001705
21
342.22830167243933
31
0
0
LINE
5
289
100
AcDbEntity
8
0
100
AcDbLine
10
-1.9999999999999574
20
45.824574529139852
30
0
11
507.98120000000034
21
45.824574529139838
31
0
0
LINE
5
290
100
AcDbEntity
8
0
100
AcDbLine
10
507.98120000000017
20
49.985439465894572
30
0
11
-1.9999999999998153
21
49.985439465894515
31
0
0
LINE
5
291
100
AcDbEntity
8
0
100
AcDbLine
10
-1.9999999999998153
20
337.02722050150157
30
0
11
507.98120000000017
21
337.02722050150157
31
0
0
LWPOLYLINE
5
292
100
AcDbEntity
8
0
100
AcDbPolyline
90
12
70
1
43
0.0
10
505.9812000000004
20
427.39226035589235
10
505.9812000000004
20
439.39226035589229
10
-8.2048564546795359e-14
20
439.39226035589223
10
-3.5138558729386205e-13
20
427.39226035589246
10
-2.000000000000318
20
422.71128730206271
10
-1.999999999999946
20
15.180973053848932
10
6.8826294916477747e-16
20
10.500000000000114
10
0
20
7.1054273576010019e-14
10
505.98120000000029
20
1.0658141036401503e-13
10
505.9812000000004
20
10.50000000000008
10
507.98120000000034
20
15.180973053848987
10
507.98120000000051
20
422.71128730206271
0
LWPOLYLINE
5
293
100
AcDbEntity
8
0
100
AcDbPolyline
90
4
70
1
43
0.0
10
446.69391219769545
20
309.21311055434381
10
446.69391219769545
20
314.00998453642842
42
-0.57355195340432186
10
454.8939121976955
20
314.00998453642842
10
454.8939121976955
20
309.21311055434381
42
-0.57355195340431964
0
LWPOLYLINE
5
294
100
AcDbEntity
8
0
100
AcDbPolyline
90
8
70
1
43
0.0
10
155.95000000000013
20
394.16752756926138
10
141.05000000000001
20
394.16752756923103
42
-0.41421356237308204
10
140.25000000000009
20
394.96752756923104
10
140.25000000003018
20
411.36752756861119
42
-0.414213562373069
10
141.05000000000018
20
412.16752756858114
10
155.95000000000013
20
412.16752756861126
42
-0.41421356237309509
10
156.75000000000011
20
411.36752756861131
10
156.74999999996984
20
394.96752756923109
42
-0.41421356237309509
0
CIRCLE
5
295
100
AcDbEntity
8
0
100
AcDbCircle
10
245.45000000000019
20
403.16752756892129
30
0
40
1.7000000000000055
0
CIRCLE
5
296
100
AcDbEntity
8
0
100
AcDbCircle
10
311.25000000000023
20
403.16752756892129
30
0
40
1.7000000000000002
0
CIRCLE
5
297
100
AcDbEntity
8
0
100
AcDbCircle
10
443.73120000000023
20
403.16752756892129
30
0
40
1.7499999999999938
0
LWPOLYLINE
5
298
100
AcDbEntity
8
0
100
AcDbPolyline
90
4
70
1
43
0.0
10
437.12790000000018
20
366.66239539714348
10
440.30290000000014
20
366.66239539714348
10
440.30290000000014
20
347.22830167243933
10
437.12790000000018
20
347.22830167243933
0
LWPOLYLINE
5
299
100
AcDbEntity
8
0
100
AcDbPolyline
90
4
70
1
43
0.0
10
399.02790000000016
20
366.66239539714348
10
402.20290000000023
20
366.66239539714348
10
402.20290000000023
20
347.22830167243933
10
399.02790000000027
20
347.22830167243933
0
LWPOLYLINE
5
300
100
AcDbEntity
8
0
100
AcDbPolyline
90
4
70
1
43
0.0
10
360.92790000000025
20
366.66239539714348
10
364.1029000000002
20
366.66239539714348
10
364.1029000000002
20
347.22830167243933
10
360.92790000000025
20
347.22830167243933
0
LWPOLYLINE
5
301
100
AcDbEntity
8
0
100
AcDbPolyline
90
4
70
1
43
0.0
10
322.82790000000023
20
366.66239539714348
10
326.00290000000018
20
366.66239539714348
10
326.00290000000018
20
347.22830167243933
10
322.82790000000023
20
347.22830167243933
0
LWPOLYLINE
5
302
100
AcDbEntity
8
0
100
AcDbPolyline
90
4
70
1
43
0.0
10
284.72790000000015
20
366.66239539714348
10
287.90290000000016
20
366.66239539714348
10
287.90290000000016
20
347.22830167243933
10
284.72790000000015
20
347.22830167243933
0
LWPOLYLINE
5
303
100
AcDbEntity
8
0
100
AcDbPolyline
90
4
70
1
43
0.0
10
246.62790000000018
20
366.66239539714348
10
249.80290000000022
20
366.66239539714348
10
249.80290000000014
20
347.22830167243933
10
246.62790000000024
20
347.22830167243933
0
LWPOLYLINE
5
304
100
AcDbEntity
8
0
100
AcDbPolyline
90
4
70
1
43
0.0
10
208.52790000000024
20
366.66239539714348
10
211.70290000000011
20
366.66239539714348
10
211.70290000000011
20
347.22830167243933
10
208.52790000000024
20
347.22830167243933
0
LWPOLYLINE
5
305
100
AcDbEntity
8
0
100
AcDbPolyline
90
4
70
1
43
0.0
10
170.42790000000011
20
366.66239539714348
10
173.60290000000015
20
366.66239539714348
10
173.60290000000015
20
347.22830167243933
10
170.42790000000019
20
347.22830167243933
0
LWPOLYLINE
5
306
100
AcDbEntity
8
0
100
AcDbPolyline
90
4
70
1
43
0.0
10
132.32790000000008
20
366.66239539714348
10
135.50290000000012
20
366.66239539714348
10
135.50290000000012
20
347.22830167243933
10
132.32790000000008
20
347.22830167243933
0
LWPOLYLINE
5
307
100
AcDbEntity
8
0
100
AcDbPolyline
90
4
70
1
43
0.0
10
94.227900000000062
20
366.66239539714348
10
97.402900000000088
20
366.66239539714348
10
97.402900000000088
20
347.22830167243933
10
94.227900000000062
20
347.22830167243933
0
LWPOLYLINE
5
308
100
AcDbEntity
8
0
100
AcDbPolyline
90
4
70
1
43
0.0
10
56.127900000000039
20
366.66239539714348
10
59.302900000000065
20
366.66239539714348
10
59.302900000000065
20
347.22830167243933
10
56.127900000000039
20
347.22830167243933
0
LWPOLYLINE
5
309
100
AcDbEntity
8
0
100
AcDbPolyline
90
4
70
1
43
0.0
10
475.22790000000032
20
347.22830167243933
10
475.22790000000032
20
366.66239539714343
10
478.40290000000027
20
366.66239539714343
10
478.40290000000027
20
347.22830167243933
0
CIRCLE
5
310
100
AcDbEntity
8
0
100
AcDbCircle
10
54.375000000000071
20
413.16752756854351
30
0
40
1.700000000000002
0
LWPOLYLINE
5
311
100
AcDbEntity
8
0
100
AcDbPolyline
90
4
70
1
43
0.0
10
120.25000000000013
20
411.26752756861515
10
120.25000000000013
20
395.06752756922737
10
105.75000000000004
20
395.06752756922737
10
105.7500000000001
20
411.26752756861487
0
CIRCLE
5
312
100
AcDbEntity
8
0
100
AcDbCircle
10
197.0000000000002
20
398.66752756909165
30
0
40
1.6999999999999851
0
CIRCLE
5
313
100
AcDbEntity
8
0
100
AcDbCircle
10
125.50000000000004
20
403.16752756892123
30
0
40
1.7000000000000002
0
CIRCLE
5
314
100
AcDbEntity
8
0
100
AcDbCircle
10
64.375000000000071
20
403.16752756892129
30
0
40
11.375000000000002
0
CIRCLE
5
315
100
AcDbEntity
8
0
100
AcDbCircle
10
29.375000000000071
20
413.16752756854351
30
0
40
1.700000000000002
0
LWPOLYLINE
5
316
100
AcDbEntity
8
0
100
AcDbPolyline
90
4
70
1
43
0.0
10
46.602900000000034
20
366.66239539714348
10
49.777900000000059
20
366.66239539714348
10
49.777900000000059
20
347.22830167243933
10
46.602900000000034
20
347.22830167243933
0
LWPOLYLINE
5
317
100
AcDbEntity
8
0
100
AcDbPolyline
90
4
70
1
43
0.0
10
84.702900000000056
20
366.66239539714348
10
87.877900000000082
20
366.66239539714348
10
87.877900000000082
20
347.22830167243933
10
84.702900000000056
20
347.22830167243933
0
LWPOLYLINE
5
318
100
AcDbEntity
8
0
100
AcDbPolyline
90
4
70
1
43
0.0
10
125.9779000000001
20
347.22830167243933
10
122.80290000000008
20
347.22830167243933
10
122.80290000000008
20
366.66239539714348
10
125.9779000000001
20
366.66239539714343
0
LWPOLYLINE
5
319
100
AcDbEntity
8
0
100
AcDbPolyline
90
4
70
1
43
0.0
10
160.9029000000001
20
366.66239539714348
10
164.07790000000011
20
366.66239539714348
10
164.07790000000011
20
347.22830167243933
10
160.90290000000016
20
347.22830167243933
0
LWPOLYLINE
5
320
100
AcDbEntity
8
0
100
AcDbPolyline
90
4
70
1
43
0.0
10
199.00290000000018
20
366.66239539714348
10
202.17790000000011
20
366.66239539714348
10
202.17790000000011
20
347.22830167243933
10
199.00290000000018
20
347.22830167243933
0
LWPOLYLINE
5
321
100
AcDbEntity
8
0
100
AcDbPolyline
90
4
70
1
43
0.0
10
237.10290000000015
20
366.66239539714348
10
240.27790000000013
20
366.66239539714348
10
240.27790000000013
20
347.22830167243933
10
237.10290000000026
20
347.22830167243933
0
LWPOLYLINE
5
322
100
AcDbEntity
8
0
100
AcDbPolyline
90
4
70
1
43
0.0
10
275.20290000000017
20
366.66239539714348
10
278.37790000000018
20
366.66239539714348
10
278.37790000000018
20
347.22830167243933
10
275.20290000000017
20
347.22830167243933
0
LWPOLYLINE
5
323
100
AcDbEntity
8
0
100
AcDbPolyline
90
4
70
1
43
0.0
10
313.30290000000019
20
366.66239539714348
10
316.4779000000002
20
366.66239539714348
10
316.4779000000002
20
347.22830167243933
10
313.30290000000019
20
347.22830167243933
0
LWPOLYLINE
5
324
100
AcDbEntity
8
0
100
AcDbPolyline
90
4
70
1
43
0.0
10
351.40290000000005
20
366.66239539714348
10
354.57790000000017
20
366.66239539714348
10
354.57790000000017
20
347.22830167243933
10
351.40290000000005
20
347.22830167243933
0
LWPOLYLINE
5
325
100
AcDbEntity
8
0
100
AcDbPolyline
90
4
70
1
43
0.0
10
389.50290000000018
20
366.66239539714348
10
392.67790000000019
20
366.66239539714348
10
392.67790000000019
20
347.22830167243933
10
389.50290000000024
20
347.22830167243933
0
LWPOLYLINE
5
326
100
AcDbEntity
8
0
100
AcDbPolyline
90
4
70
1
43
0.0
10
427.6029000000002
20
366.66239539714348
10
430.77790000000022
20
366.66239539714348
10
430.77790000000022
20
347.22830167243933
10
427.60290000000026
20
347.22830167243933
0
LWPOLYLINE
5
327
100
AcDbEntity
8
0
100
AcDbPolyline
90
4
70
1
43
0.0
10
465.70290000000034
20
366.66239539714348
10
468.8779000000003
20
366.66239539714348
10
468.8779000000003
20
347.22830167243933
10
465.70290000000028
20
347.22830167243933
0
LWPOLYLINE
5
328
100
AcDbEntity
8
0
100
AcDbPolyline
90
5
70
1
43
0.0
10
304.0500000000003
20
406.96752756877754
10
307.1500000000002
20
403.56752756890614
10
307.1500000000002
20
399.3675275690648
10
288.35000000000019
20
399.36752756906486
10
288.35000000000019
20
406.96752756877754
0
CIRCLE
5
329
100
AcDbEntity
8
0
100
AcDbCircle
10
272.45000000000016
20
403.16752756892129
30
0
40
1.7000000000000002
0
CIRCLE
5
330
100
AcDbEntity
8
0
100
AcDbCircle
10
207.95000000000019
20
403.16752756892129
30
0
40
1.7000000000000057
0
CIRCLE
5
331
100
AcDbEntity
8
0
100
AcDbCircle
10
136.50000000000006
20
407.66752756875087
30
0
40
1.6999999999999931
0
CIRCLE
5
332
100
AcDbEntity
8
0
100
AcDbCircle
10
234.85000000000016
20
403.16752756892129
30
0
40
1.6999999999999991
0
CIRCLE
5
333
100
AcDbEntity
8
0
100
AcDbCircle
10
284.25000000000017
20
403.16752756892129
30
0
40
1.7000000000000055
0
LWPOLYLINE
5
334
100
AcDbEntity
8
0
100
AcDbPolyline
90
8
70
1
43
0.0
10
449.48120000000017
20
395.66752756920471
10
449.48120000011363
20
410.66752756863775
42
-0.41421356237309509
10
452.48120000000023
20
413.66752756852435
10
474.98120000000029
20
413.66752756863775
42
-0.4142135623730881
10
477.98120000000029
20
410.66752756863787
10
477.98119999988683
20
395.66752756920471
42
-0.41421356237309509
10
474.98120000000034
20
392.66752756931805
10
452.48120000000023
20
392.66752756920459
42
-0.41421356237310197
0
LWPOLYLINE
5
335
100
AcDbEntity
8
0
100
AcDbPolyline
90
4
70
1
43
0.0
10
446.65290000000022
20
366.66239539714348
10
449.82790000000017
20
366.66239539714348
10
449.82790000000017
20
347.22830167243933
10
446.65290000000022
20
347.22830167243933
0
LWPOLYLINE
5
336
100
AcDbEntity
8
0
100
AcDbPolyline
90
4
70
1
43
0.0
10
408.55290000000019
20
366.66239539714348
10
411.7279000000002
20
366.66239539714348
10
411.7279000000002
20
347.22830167243933
10
408.55290000000025
20
347.22830167243933
0
LWPOLYLINE
5
337
100
AcDbEntity
8
0
100
AcDbPolyline
90
4
70
1
43
0.0
10
370.45290000000023
20
366.66239539714348
10
373.62790000000018
20
366.66239539714348
10
373.62790000000018
20
347.22830167243933
10
370.45290000000023
20
347.22830167243933
0
LWPOLYLINE
5
338
100
AcDbEntity
8
0
100
AcDbPolyline
90
4
70
1
43
0.0
10
332.3529000000002
20
366.66239539714348
10
335.52790000000016
20
366.66239539714348
10
335.52790000000016
20
347.22830167243933
10
332.3529000000002
20
347.22830167243933
0
LWPOLYLINE
5
339
100
AcDbEntity
8
0
100
AcDbPolyline
90
4
70
1
43
0.0
10
294.25290000000012
20
366.66239539714348
10
297.42790000000019
20
366.66239539714348
10
297.42790000000019
20
347.22830167243933
10
294.25290000000012
20
347.22830167243933
0
LWPOLYLINE
5
340
100
AcDbEntity
8
0
100
AcDbPolyline
90
4
70
1
43
0.0
10
256.15290000000022
20
366.66239539714348
10
259.32790000000023
20
366.66239539714348
10
259.32790000000017
20
347.22830167243933
10
256.15290000000022
20
347.22830167243933
0
LWPOLYLINE
5
341
100
AcDbEntity
8
0
100
AcDbPolyline
90
4
70
1
43
0.0
10
218.05290000000014
20
366.66239539714348
10
221.22790000000012
20
366.66239539714348
10
221.22790000000012
20
347.22830167243933
10
218.05290000000014
20
347.22830167243933
0
LWPOLYLINE
5
342
100
AcDbEntity
8
0
100
AcDbPolyline
90
4
70
1
43
0.0
10
179.95290000000011
20
366.66239539714348
10
183.12790000000012
20
366.66239539714348
10
183.12790000000012
20
347.22830167243933
10
179.95290000000017
20
347.22830167243933
0
LWPOLYLINE
5
343
100
AcDbEntity
8
0
100
AcDbPolyline
90
4
70
1
43
0.0
10
141.85290000000009
20
366.66239539714348
10
145.0279000000001
20
366.66239539714348
10
145.0279000000001
20
347.22830167243933
10
141.85290000000009
20
347.22830167243933
0
LWPOLYLINE
5
344
100
AcDbEntity
8
0
100
AcDbPolyline
90
4
70
1
43
0.0
10
103.75290000000007
20
366.66239539714348
10
106.92790000000009
20
366.66239539714348
10
106.92790000000009
20
347.22830167243933
10
103.75290000000007
20
347.22830167243933
0
LWPOLYLINE
5
345
100
AcDbEntity
8
0
100
AcDbPolyline
90
4
70
1
43
0.0
10
65.652900000000116
20
366.66239539714348
10
68.827900000000071
20
366.66239539714348
10
68.827900000000071
20
347.22830167243933
10
65.652900000000116
20
347.22830167243933
0
LWPOLYLINE
5
346
100
AcDbEntity
8
0
100
AcDbPolyline
90
4
70
1
43
0.0
10
27.552900000000022
20
366.66239539714343
10
30.727900000000048
20
366.66239539714343
10
30.727900000000048
20
347.22830167243933
10
27.552900000000022
20
347.22830167243933
0
CIRCLE
5
347
100
AcDbEntity
8
0
100
AcDbCircle
10
49.375000000000071
20
393.16752756929924
30
0
40
1.7000000000000035
0
CIRCLE
5
348
100
AcDbEntity
8
0
100
AcDbCircle
10
100.50000000000004
20
403.16752756892129
30
0
40
1.7000000000000002
0
LWPOLYLINE
5
349
100
AcDbEntity
8
0
100
AcDbPolyline
90
8
70
1
43
0.0
10
192.45000000000016
20
394.16752756926138
10
177.55000000000024
20
394.1675275692312
42
-0.41421356237312101
10
176.75000000000014
20
394.96752756923127
10
176.75000000003024
20
411.36752756861154
42
-0.41421356237304296
10
177.54999999999995
20
412.16752756858114
10
192.4500000000001
20
412.16752756861126
42
-0.41421356237309509
10
193.25000000000014
20
411.36752756861131
10
193.24999999996987
20
394.96752756923109
42
-0.41421356237309509
0
CIRCLE
5
350
100
AcDbEntity
8
0
100
AcDbCircle
10
173.00000000000017
20
407.66752756875132
30
0
40
1.6999999999999931
0
CIRCLE
5
351
100
AcDbEntity
8
0
100
AcDbCircle
10
74.375000000000071
20
393.16752756929924
30
0
40
1.7000000000000035
0
CIRCLE
5
352
100
AcDbEntity
8
0
100
AcDbCircle
10
39.375000000000071
20
403.16752756892129
30
0
40
11.375000000000002
0
LWPOLYLINE
5
353
100
AcDbEntity
8
0
100
AcDbPolyline
90
4
70
1
43
0.0
10
37.077899999999957
20
366.66239539714348
10
40.252900000000054
20
366.66239539714348
10
40.252900000000054
20
347.22830167243933
10
37.077899999999957
20
347.22830167243933
0
LWPOLYLINE
5
354
100
AcDbEntity
8
0
100
AcDbPolyline
90
4
70
1
43
0.0
10
75.177900000000051
20
366.66239539714348
10
78.352900000000076
20
366.66239539714348
10
78.352900000000076
20
347.22830167243933
10
75.177900000000051
20
347.22830167243933
0
LWPOLYLINE
5
355
100
AcDbEntity
8
0
100
AcDbPolyline
90
4
70
1
43
0.0
10
113.27790000000014
20
366.66239539714348
10
116.4529000000001
20
366.66239539714348
10
116.4529000000001
20
347.22830167243933
10
113.27790000000014
20
347.22830167243933
0
LWPOLYLINE
5
356
100
AcDbEntity
8
0
100
AcDbPolyline
90
4
70
1
43
0.0
10
151.3779000000001
20
366.66239539714348
10
154.55290000000014
20
366.66239539714348
10
154.55290000000014
20
347.22830167243933
10
151.3779000000001
20
347.22830167243933
0
LWPOLYLINE
5
357
100
AcDbEntity
8
0
100
AcDbPolyline
90
4
70
1
43
0.0
10
189.47790000000012
20
366.66239539714348
10
192.6529000000001
20
366.66239539714348
10
192.6529000000001
20
347.22830167243933
10
189.4779000000002
20
347.22830167243933
0
LWPOLYLINE
5
358
100
AcDbEntity
8
0
100
AcDbPolyline
90
4
70
1
43
0.0
10
227.57790000000011
20
366.66239539714348
10
230.75290000000012
20
366.66239539714348
10
230.75290000000012
20
347.22830167243933
10
227.57790000000011
20
347.22830167243933
0
LWPOLYLINE
5
359
100
AcDbEntity
8
0
100
AcDbPolyline
90
4
70
1
43
0.0
10
265.67790000000025
20
366.66239539714348
10
268.85290000000026
20
366.66239539714348
10
268.8529000000002
20
347.22830167243933
10
265.67790000000019
20
347.22830167243933
0
LWPOLYLINE
5
360
100
AcDbEntity
8
0
100
AcDbPolyline
90
4
70
1
43
0.0
10
303.77790000000016
20
366.66239539714348
10
306.95290000000023
20
366.66239539714348
10
306.95290000000023
20
347.22830167243933
10
303.77790000000016
20
347.22830167243933
0
LWPOLYLINE
5
361
100
AcDbEntity
8
0
100
AcDbPolyline
90
4
70
1
43
0.0
10
341.87790000000018
20
366.66239539714348
10
345.05290000000014
20
366.66239539714348
10
345.05290000000014
20
347.22830167243933
10
341.8779000000003
20
347.22830167243933
0
LWPOLYLINE
5
362
100
AcDbEntity
8
0
100
AcDbPolyline
90
4
70
1
43
0.0
10
379.9779000000002
20
366.66239539714348
10
383.15290000000016
20
366.66239539714348
10
383.15290000000016
20
347.22830167243933
10
379.9779000000002
20
347.22830167243933
0
LWPOLYLINE
5
363
100
AcDbEntity
8
0
100
AcDbPolyline
90
4
70
1
43
0.0
10
418.07790000000017
20
366.66239539714348
10
421.2529000000003
20
366.66239539714348
10
421.2529000000003
20
347.22830167243933
10
418.07790000000023
20
347.22830167243933
0
LWPOLYLINE
5
364
100
AcDbEntity
8
0
100
AcDbPolyline
90
4
70
1
43
0.0
10
456.17790000000025
20
366.66239539714348
10
459.3529000000002
20
366.66239539714348
10
459.3529000000002
20
347.22830167243933
10
456.17790000000025
20
347.22830167243933
0
CIRCLE
5
365
100
AcDbEntity
8
0
100
AcDbCircle
10
483.73120000000029
20
403.16752756892129
30
0
40
1.7499999999999938
0
LWPOLYLINE
5
366
100
AcDbEntity
8
0
100
AcDbPolyline
90
5
70
1
43
0.0
10
268.35000000000019
20
403.5675275689062
10
268.35000000000019
20
399.36752756906486
10
249.55000000000018
20
399.36752756906486
10
249.55000000000018
20
406.96752756877754
10
265.25000000000028
20
406.96752756877765
0
LWPOLYLINE
5
367
100
AcDbEntity
8
0
100
AcDbPolyline
90
8
70
1
43
0.0
10
226.70000000000022
20
406.36752756880026
10
227.95000000000016
20
404.8675275688571
10
229.55000000000015
20
404.8675275688571
10
229.55000000000015
20
399.9675275690422
10
213.2500000000002
20
399.9675275690422
10
213.25000000000014
20
404.86752756885687
10
214.85000000000016
20
404.86752756885693
10
216.10000000000019
20
406.36752756880026
0
CIRCLE
5
368
100
AcDbEntity
8
0
100
AcDbCircle
10
160.50000000000011
20
398.66752756909125
30
0
40
1.6999999999999851
0
CIRCLE
5
369
100
AcDbEntity
8
0
100
AcDbCircle
10
17.405752197695605
20
124.52464754538539
30
0
40
1.7000000000000171
0
CIRCLE
5
370
100
AcDbEntity
8
0
100
AcDbCircle
10
230.42433841362848
20
232.81228027198748
30
0
40
5.5000000000000071
0
CIRCLE
5
371
100
AcDbEntity
8
0
100
AcDbCircle
10
69.217512197695683
20
124.52464754538532
30
0
40
1.7000000000000171
0
CIRCLE
5
372
100
AcDbEntity
8
0
100
AcDbCircle
10
51.317512197695692
20
124.52464754538536
30
0
40
1.7000000000000171
0
CIRCLE
5
373
100
AcDbEntity
8
0
100
AcDbCircle
10
482.27845873975696
20
188.59147951348191
30
0
40
1.6999999999999815
0
LWPOLYLINE
5
374
100
AcDbEntity
8
0
100
AcDbPolyline
90
4
70
1
43
0.0
10
50.217512197695626
20
130.02464754538539
10
50.217512197695619
20
239.0246475453857
10
52.417512197695686
20
239.02464754538568
10
52.417512197695686
20
130.02464754538539
0
LWPOLYLINE
5
375
100
AcDbEntity
8
0
100
AcDbPolyline
90
4
70
1
43
0.0
10
16.305752197695611
20
130.02464754538536
10
16.305752197695607
20
239.02464754538562
10
18.5057521976956
20
239.02464754538562
10
18.5057521976956
20
130.02464754538536
0
CIRCLE
5
376
100
AcDbEntity
8
0
100
AcDbCircle
10
69.217512197695683
20
244.52464754538553
30
0
40
1.7000000000000171
0
CIRCLE
5
377
100
AcDbEntity
8
0
100
AcDbCircle
10
17.405752197695605
20
244.52464754538568
30
0
40
1.7000000000000171
0
LWPOLYLINE
5
378
100
AcDbEntity
8
0
100
AcDbPolyline
90
4
70
1
43
0.0
10
68.117512197695618
20
239.02464754538556
10
70.317512197695677
20
239.02464754538556
10
70.317512197695677
20
130.02464754538533
10
68.117512197695618
20
130.02464754538533
0
CIRCLE
5
379
100
AcDbEntity
8
0
100
AcDbCircle
10
446.17845873975693
20
137.59147899386849
30
0
40
1.7000000000000171
0
CIRCLE
5
380
100
AcDbEntity
8
0
100
AcDbCircle
10
51.317512197695621
20
244.52464754538568
30
0
40
1.6999999999999815
0
LWPOLYLINE
5
381
100
AcDbEntity
8
0
100
AcDbPolyline
90
8
70
1
43
0.0
10
217.90591219769561
20
302.61154754538597
42
-0.41421356237309509
10
216.90591219769559
20
301.61154754538592
10
198.90591219769556
20
301.61154754538597
42
-0.41421356237309509
10
197.90591219769556
20
302.61154754538597
10
197.90591219769564
20
320.61154754538609
42
-0.41421356237306384
10
198.90591219769556
20
321.61154754538592
10
216.90591219769556
20
321.61154754538597
42
-0.41421356237310542
10
217.90591219769556
20
320.61154754538597
0
LWPOLYLINE
5
382
100
AcDbEntity
8
0
100
AcDbPolyline
90
8
70
1
43
0.0
10
221.71741219769555
20
320.61154754538597
42
-0.41421356237309509
10
222.71741219769555
20
321.61154754538597
10
240.71741219769552
20
321.61154754538597
42
-0.41421356237309509
10
241.71741219769555
20
320.61154754538597
10
241.71741219769552
20
302.61154754538597
42
-0.41421356237310542
10
240.71741219769552
20
301.61154754538597
10
222.71741219769555
20
301.61154754538597
42
-0.41421356237310542
10
221.71741219769555
20
302.61154754538597
0
LWPOLYLINE
5
383
100
AcDbEntity
8
0
100
AcDbPolyline
90
8
70
1
43
0.0
10
170.28091219769553
20
302.61154754538586
42
-0.41421356237309509
10
169.28091219769553
20
301.61154754538586
10
151.2809121976955
20
301.61154754538592
42
-0.41421356237309509
10
150.28091219769553
20
302.61154754538586
10
150.28091219769556
20
320.61154754538597
42
-0.41421356237307422
10
151.2809121976955
20
321.61154754538586
10
169.28091219769553
20
321.61154754538592
42
-0.41421356237309509
10
170.28091219769553
20
320.61154754538592
0
LWPOLYLINE
5
384
100
AcDbEntity
8
0
100
AcDbPolyline
90
8
70
1
43
0.0
10
213.19241219769577
20
63.487127545385533
42
-0.41421356237309509
10
212.19241219769577
20
64.487127545385505
10
212.19241219769577
20
158.68654754538568
42
-0.4142135623731002
10
213.19241219769577
20
159.68654754538565
10
269.29241219769563
20
159.68654754538568
42
-0.41421356237311063
10
270.29241219769568
20
158.68654754538571
10
270.29241219769574
20
64.487127545385505
42
-0.41421356237309509
10
269.29241219769574
20
63.487127545385498
0
LWPOLYLINE
5
385
100
AcDbEntity
8
0
100
AcDbPolyline
90
8
70
1
43
0.0
10
146.46741219769555
20
302.61154754538586
42
-0.41421356237310542
10
145.46741219769555
20
301.61154754538592
10
127.46741219769554
20
301.61154754538586
42
-0.41421356237309509
10
126.46741219769552
20
302.61154754538586
10
126.46741219769559
20
320.61154754538597
42
-0.41421356237307422
10
127.46741219769554
20
321.61154754538586
10
145.46741219769555
20
321.61154754538586
42
-0.41421356237309509
10
146.46741219769552
20
320.61154754538592
0
LWPOLYLINE
5
386
100
AcDbEntity
8
0
100
AcDbPolyline
90
8
70
1
43
0.0
10
7.4057521976955343
20
277.74954754538572
42
-0.41421356237308465
10
8.4057521976955485
20
278.74954754538572
10
26.40575219769552
20
278.74954754538578
42
-0.41421356237309509
10
27.405752197695605
20
277.74954754538567
10
27.405752197695605
20
259.74954754538578
42
-0.41421356237306384
10
26.405752197695591
20
258.74954754538572
10
8.4057521976955485
20
258.74954754538584
42
-0.41421356237309509
10
7.4057521976956053
20
259.74954754538578
0
LWPOLYLINE
5
387
100
AcDbEntity
8
0
100
AcDbPolyline
90
8
70
1
43
0.0
10
279.86741219769567
20
63.487127545385533
42
-0.41421356237307422
10
278.86741219769573
20
64.487127545385505
10
278.86741219769578
20
158.68654754538585
42
-0.41421356237308982
10
279.86741219769567
20
159.68654754538579
10
335.96741219769569
20
159.68654754538576
42
-0.41421356237309509
10
336.96741219769564
20
158.68654754538582
10
336.96741219769581
20
64.487127545385547
42
-0.41421356237309509
10
335.96741219769575
20
63.487127545385498
0
LWPOLYLINE
5
388
100
AcDbEntity
8
0
100
AcDbPolyline
90
8
70
1
43
0.0
10
103.65571219769549
20
301.61154754538586
42
-0.41421356237309509
10
102.65571219769549
20
302.61154754538586
10
102.65571219769555
20
320.61154754538592
42
-0.41421356237311585
10
103.65571219769556
20
321.61154754538586
10
121.65571219769554
20
321.61154754538586
42
-0.41421356237309509
10
122.65571219769548
20
320.61154754538592
10
122.65571219769541
20
302.61154754538586
42
-0.41421356237311585
10
121.65571219769554
20
301.61154754538592
0
CIRCLE
5
389
100
AcDbEntity
8
0
100
AcDbCircle
10
275.87548598176403
20
232.81228027198745
30
0
40
5.5000000000000071
0
LWPOLYLINE
5
390
100
AcDbEntity
8
0
100
AcDbPolyline
90
8
70
1
43
0.0
10
41.717512197695612
20
258.74954754538578
42
-0.41421356237306384
10
40.717512197695633
20
259.74954754538578
10
40.717512197695598
20
277.74954754538584
42
-0.41421356237303264
10
41.717512197695612
20
278.74954754538578
10
78.817512197695621
20
278.74954754538572
42
-0.41421356237308465
10
79.817512197695564
20
277.74954754538578
10
79.817512197695663
20
259.74954754538578
42
-0.41421356237309509
10
78.817512197695621
20
258.74954754538572
0
LWPOLYLINE
5
391
100
AcDbEntity
8
0
100
AcDbPolyline
90
8
70
1
43
0.0
10
279.86741219769561
20
168.26154754538578
42
-0.41421356237308465
10
278.86741219769567
20
169.26154754538578
10
278.86741219769561
20
206.31154754538585
42
-0.41421356237309509
10
279.86741219769561
20
207.31154754538585
10
335.96741219769558
20
207.31154754538596
42
-0.41421356237310542
10
336.96741219769564
20
206.31154754538585
10
336.96741219769558
20
169.26154754538578
42
-0.41421356237309509
10
335.96741219769558
20
168.26154754538578
0
CIRCLE
5
392
100
AcDbEntity
8
0
100
AcDbCircle
10
11.999901301153315
20
290.18054754538582
30
0
40
1.7000000000000171
0
CIRCLE
5
393
100
AcDbEntity
8
0
100
AcDbCircle
10
17.405752197695605
20
63.487127545385285
30
0
40
1.7000000000000171
0
CIRCLE
5
394
100
AcDbEntity
8
0
100
AcDbCircle
10
253.14916219769555
20
321.61154754538614
30
0
40
1.6999999999999997
0
CIRCLE
5
395
100
AcDbEntity
8
0
100
AcDbCircle
10
494.98120000000023
20
63.487127545385427
30
0
40
1.7000000000000171
0
CIRCLE
5
396
100
AcDbEntity
8
0
100
AcDbCircle
10
494.98120000000023
20
104.66134754538569
30
0
40
1.7000000000000171
0
CIRCLE
5
397
100
AcDbEntity
8
0
100
AcDbCircle
10
494.98120000000017
20
249.6995475453862
30
0
40
1.7000000000000171
0
CIRCLE
5
398
100
AcDbEntity
8
0
100
AcDbCircle
10
494.98120000000017
20
285.94954754538617
30
0
40
1.6250000000000142
0
CIRCLE
5
399
100
AcDbEntity
8
0
100
AcDbCircle
10
132.18091219769576
20
63.487127545385285
30
0
40
1.6999999999999993
0
LWPOLYLINE
5
400
100
AcDbEntity
8
0
100
AcDbPolyline
90
8
70
1
43
0.0
10
93.080712197695519
20
321.61154754538586
42
-0.41421356237309509
10
94.080712197695519
20
320.61154754538586
10
94.080712197695462
20
302.61154754538575
42
-0.41421356237307422
10
93.080712197695519
20
301.61154754538586
10
75.080712197695547
20
301.61154754538586
42
-0.41421356237307422
10
74.080712197695604
20
302.61154754538575
10
74.080712197695533
20
320.61154754538592
42
-0.41421356237307422
10
75.080712197695547
20
321.61154754538586
0
CIRCLE
5
401
100
AcDbEntity
8
0
100
AcDbCircle
10
446.17845873975693
20
187.59147899197905
30
0
40
1.6999999999999815
0
LWPOLYLINE
5
402
100
AcDbEntity
8
0
100
AcDbPolyline
90
8
70
1
43
0.0
10
346.54341219769555
20
168.26154754538584
42
-0.41421356237307422
10
345.5434121976956
20
169.26154754538587
10
345.54341219769572
20
206.31154754538591
42
-0.41421356237306384
10
346.54341219769549
20
207.31154754538593
10
364.54341219769555
20
207.31154754538585
42
-0.41421356237311585
10
365.54341219769555
20
206.31154754538591
10
365.54341219769555
20
169.26154754538584
42
-0.41421356237311585
10
364.54341219769555
20
168.26154754538584
0
CIRCLE
5
403
100
AcDbEntity
8
0
100
AcDbCircle
10
374.11891219769564
20
63.487127545385427
30
0
40
1.6999999999999993
0
CIRCLE
5
404
100
AcDbEntity
8
0
100
AcDbCircle
10
482.27845873975684
20
138.59147951537136
30
0
40
1.7000000000000171
0
LWPOLYLINE
5
405
100
AcDbEntity
8
0
100
AcDbPolyline
90
8
70
1
43
0.0
10
459.79391219769559
20
297.79954754538619
42
-0.41421356237307422
10
460.79391219769553
20
296.79954754538619
10
460.79391219769559
20
240.69954754538614
42
-0.41421356237306384
10
459.79391219769559
20
239.69954754538611
10
422.74391219769547
20
239.6995475453862
42
-0.41421356237309509
10
421.74391219769552
20
240.69954754538614
10
421.74391219769541
20
296.79954754538619
42
-0.41421356237311585
10
422.74391219769547
20
297.79954754538619
0
CIRCLE
5
406
100
AcDbEntity
8
0
100
AcDbCircle
10
460.79391219769548
20
321.61154754538643
30
0
40
1.7000000000000171
0
CIRCLE
5
407
100
AcDbEntity
8
0
100
AcDbCircle
10
162.29819084549351
20
233.00210397703339
30
0
40
1.6999999999999993
0
LWPOLYLINE
5
408
100
AcDbEntity
8
0
100
AcDbPolyline
90
8
70
1
43
0.0
10
41.717512197695825
20
63.487127545385356
42
-0.41421356237310542
10
40.717512197695811
20
64.487127545385405
10
40.717512197695811
20
82.48712754538542
42
-0.41421356237309509
10
41.717512197695825
20
83.48712754538542
10
78.817512197695763
20
83.48712754538542
42
-0.41421356237311585
10
79.817512197695848
20
82.48712754538542
10
79.817512197695777
20
64.487127545385405
42
-0.41421356237310542
10
78.817512197695763
20
63.487127545385356
0
CIRCLE
5
409
100
AcDbEntity
8
0
100
AcDbCircle
10
363.89819084549345
20
232.81204754538592
30
0
40
1.6999999999999993
0
CIRCLE
5
410
100
AcDbEntity
8
0
100
AcDbCircle
10
184.97319084549358
20
232.81204754538581
30
0
40
5.500000000000016
0
CIRCLE
5
411
100
AcDbEntity
8
0
100
AcDbCircle
10
470.98120000000006
20
292.29954754538619
30
0
40
1.6249999999999787
0
LWPOLYLINE
5
412
100
AcDbEntity
8
0
100
AcDbPolyline
90
8
70
1
43
0.0
10
7.4057521976954632
20
320.61154754538575
42
-0.41421356237311585
10
8.4057521976955485
20
321.6115475453858
10
64.505712197695502
20
321.61154754538592
42
-0.41421356237309509
10
65.505712197695587
20
320.61154754538586
10
65.505712197695487
20
302.61154754538575
42
-0.41421356237311585
10
64.505712197695502
20
301.6115475453858
10
8.4057521976955485
20
301.61154754538575
42
-0.41421356237309509
10
7.4057521976954632
20
302.6115475453858
0
LWPOLYLINE
5
413
100
AcDbEntity
8
0
100
AcDbPolyline
90
8
70
1
43
0.0
10
40.717512197695655
20
106.29964754538531
42
-0.41421356237309509
10
41.717512197695683
20
107.29964754538534
10
78.817512197695763
20
107.29964754538528
42
-0.4142135623730534
10
79.817512197695706
20
106.29964754538534
10
79.817512197695663
20
88.299647545385255
42
-0.41421356237307422
10
78.817512197695763
20
87.299647545385284
10
41.717512197695683
20
87.299647545385312
42
-0.41421356237309509
10
40.717512197695669
20
88.299647545385341
0
LWPOLYLINE
5
414
100
AcDbEntity
8
0
100
AcDbPolyline
90
8
70
1
43
0.0
10
384.64391219769539
20
301.6115475453862
42
-0.41421356237307422
10
383.64391219769539
20
302.61154754538614
10
383.64391219769544
20
320.6115475453862
42
-0.41421356237311585
10
384.64391219769539
20
321.6115475453862
10
402.64391219769544
20
321.6115475453862
42
-0.41421356237313667
10
403.64391219769544
20
320.6115475453862
10
403.6439121976955
20
302.61154754538614
42
-0.41421356237309509
10
402.64391219769544
20
301.6115475453862
0
LWPOLYLINE
5
415
100
AcDbEntity
8
0
100
AcDbPolyline
90
8
70
1
43
0.0
10
100.18666219769557
20
255.72154754538602
42
-0.41421356237309509
10
99.186662197695568
20
256.72154754538604
10
99.186662197695597
20
296.61154754538609
42
-0.41421356237309509
10
100.18666219769557
20
297.61154754538603
10
244.18666219769557
20
297.61154754538603
42
-0.41421356237310542
10
245.18666219769557
20
296.61154754538603
10
245.1866621976956
20
256.72154754538604
42
-0.41421356237310542
10
244.18666219769557
20
255.72154754538604
0
LWPOLYLINE
5
416
100
AcDbEntity
8
0
100
AcDbPolyline
90
8
70
1
43
0.0
10
407.10166219769553
20
256.7215475453861
42
-0.41421356237310542
10
406.10166219769553
20
255.72154754538604
10
262.10166219769553
20
255.7215475453861
42
-0.41421356237309509
10
261.10166219769553
20
256.72154754538604
10
261.10166219769548
20
296.61154754538614
42
-0.41421356237311585
10
262.10166219769553
20
297.61154754538626
10
406.10166219769553
20
297.61154754538614
42
-0.41421356237311585
10
407.10166219769548
20
296.61154754538614
0
CIRCLE
5
417
100
AcDbEntity
8
0
100
AcDbCircle
10
411.10666219769553
20
253.61154754538609
30
0
40
1.6999999999999993
0
CIRCLE
5
418
100
AcDbEntity
8
0
100
AcDbCircle
10
257.10666219769553
20
297.61154754538626
30
0
40
1.7000000000000026
0
LWPOLYLINE
5
419
100
AcDbEntity
8
0
100
AcDbPolyline
90
8
70
1
43
0.0
10
212.19241219769566
20
206.31154754538579
42
-0.41421356237309509
10
213.19241219769566
20
207.31154754538579
10
269.29241219769568
20
207.31154754538579
42
-0.41421356237309509
10
270.29241219769568
20
206.31154754538582
10
270.29241219769568
20
169.2615475453857
42
-0.41421356237309509
10
269.29241219769568
20
168.26154754538572
10
213.19241219769566
20
168.26154754538567
42
-0.41421356237311585
10
212.19241219769566
20
169.2615475453857
0
LWPOLYLINE
5
420
100
AcDbEntity
8
0
100
AcDbPolyline
90
8
70
1
43
0.0
10
375.11891219769552
20
215.88654754538595
42
-0.41421356237307422
10
374.11891219769552
20
216.88654754538589
10
374.11891219769541
20
234.88654754538598
42
-0.41421356237309509
10
375.11891219769552
20
235.88654754538607
10
431.21891219769554
20
235.88654754538601
42
-0.41421356237308465
10
432.21891219769566
20
234.88654754538598
10
432.2189121976956
20
216.88654754538592
42
-0.41421356237306384
10
431.2189121976956
20
215.88654754538598
0
CIRCLE
5
421
100
AcDbEntity
8
0
100
AcDbCircle
10
95.191662197695521
20
297.61154754538614
30
0
40
1.6999999999999993
0
LWPOLYLINE
5
422
100
AcDbEntity
8
0
100
AcDbPolyline
90
8
70
1
43
0.0
10
431.21891219769572
20
159.68654754538588
42
-0.41421356237304818
10
432.21891219769577
20
158.68654754538591
10
432.21891219769577
20
121.63654754538584
42
-0.41421356237306384
10
431.21891219769572
20
120.63654754538578
10
375.11891219769558
20
120.63654754538572
42
-0.41421356237307422
10
374.11891219769558
20
121.63654754538581
10
374.11891219769575
20
158.68654754538585
42
-0.41421356237307944
10
375.11891219769558
20
159.68654754538585
0
CIRCLE
5
423
100
AcDbEntity
8
0
100
AcDbCircle
10
257.10666219769553
20
253.61154754538609
30
0
40
1.7000000000000026
0
LWPOLYLINE
5
424
100
AcDbEntity
8
0
100
AcDbPolyline
90
8
70
1
43
0.0
10
431.2189121976956
20
207.31154754538591
42
-0.41421356237307422
10
432.2189121976956
20
206.31154754538596
10
432.2189121976956
20
169.26154754538595
42
-0.41421356237308465
10
431.2189121976956
20
168.26154754538592
10
375.11891219769558
20
168.26154754538584
42
-0.41421356237307422
10
374.11891219769558
20
169.26154754538595
10
374.11891219769558
20
206.31154754538596
42
-0.41421356237309509
10
375.11891219769558
20
207.31154754538596
0
CIRCLE
5
425
100
AcDbEntity
8
0
100
AcDbCircle
10
411.10666219769553
20
297.61154754538626
30
0
40
1.6999999999999993
0
LWPOLYLINE
5
426
100
AcDbEntity
8
0
100
AcDbPolyline
90
8
70
1
43
0.0
10
432.21891219769554
20
302.6115475453862
42
-0.41421356237311585
10
431.21891219769537
20
301.61154754538626
10
413.21891219769549
20
301.6115475453862
42
-0.4142135623730534
10
412.21891219769543
20
302.6115475453862
10
412.21891219769554
20
320.6115475453862
42
-0.41421356237307422
10
413.21891219769549
20
321.6115475453862
10
431.21891219769543
20
321.6115475453862
42
-0.41421356237313667
10
432.21891219769543
20
320.6115475453862
0
CIRCLE
5
427
100
AcDbEntity
8
0
100
AcDbCircle
10
249.19166219769554
20
297.61154754538609
30
0
40
1.7000000000000017
0
CIRCLE
5
428
100
AcDbEntity
8
0
100
AcDbCircle
10
249.19166219769554
20
253.61154754538603
30
0
40
1.7000000000000017
0
LWPOLYLINE
5
429
100
AcDbEntity
8
0
100
AcDbPolyline
90
8
70
1
43
0.0
10
331.20591219769551
20
321.61154754538614
42
-0.41421356237311585
10
332.20591219769551
20
320.61154754538609
10
332.20591219769545
20
302.61154754538603
42
-0.41421356237306384
10
331.20591219769551
20
301.61154754538614
10
313.20591219769551
20
301.61154754538614
42
-0.41421356237307422
10
312.20591219769551
20
302.61154754538603
10
312.20591219769557
20
320.61154754538609
42
-0.41421356237312629
10
313.20591219769551
20
321.61154754538609
0
CIRCLE
5
430
100
AcDbEntity
8
0
100
AcDbCircle
10
95.191662197695521
20
253.61154754538606
30
0
40
1.6999999999999993
0
LWPOLYLINE
5
431
100
AcDbEntity
8
0
100
AcDbPolyline
90
8
70
1
43
0.0
10
337.01741219769542
20
301.61154754538614
42
-0.41421356237307422
10
336.01741219769542
20
302.61154754538609
10
336.01741219769553
20
320.61154754538614
42
-0.41421356237311585
10
337.01741219769542
20
321.61154754538614
10
355.01741219769548
20
321.61154754538614
42
-0.41421356237313667
10
356.01741219769553
20
320.61154754538614
10
356.01741219769559
20
302.61154754538609
42
-0.41421356237309509
10
355.01741219769548
20
301.61154754538614
0
CIRCLE
5
432
100
AcDbEntity
8
0
100
AcDbCircle
10
482.98120000000011
20
311.61154754538626
30
0
40
6.0000000000000142
0
LWPOLYLINE
5
433
100
AcDbEntity
8
0
100
AcDbPolyline
90
8
70
1
43
0.0
10
489.87620000000004
20
293.57454754538628
42
-0.41421356237309509
10
491.25620000000015
20
292.19454754538623
10
491.25620000000015
20
283.40454754538627
42
-0.41421356237308748
10
489.87620000000004
20
282.02454754538627
10
476.08620000000019
20
282.02454754538627
42
-0.41421356237308748
10
474.70620000000019
20
283.40454754538621
10
474.70620000000025
20
292.19454754538623
42
-0.41421356237307994
10
476.08620000000008
20
293.57454754538617
0
LWPOLYLINE
5
434
100
AcDbEntity
8
0
100
AcDbPolyline
90
8
70
1
43
0.0
10
307.39241219769553
20
321.61154754538614
42
-0.41421356237311585
10
308.39241219769553
20
320.61154754538609
10
308.39241219769548
20
302.61154754538597
42
-0.41421356237307422
10
307.39241219769553
20
301.61154754538609
10
289.39241219769548
20
301.61154754538603
42
-0.41421356237307422
10
288.39241219769553
20
302.61154754538597
10
288.39241219769565
20
320.61154754538609
42
-0.41421356237312629
10
289.39241219769553
20
321.61154754538597
0
LWPOLYLINE
5
435
100
AcDbEntity
8
0
100
AcDbPolyline
90
8
70
1
43
0.0
10
265.58091219769557
20
301.61154754538603
42
-0.41421356237308465
10
264.58091219769551
20
302.61154754538597
10
264.58091219769557
20
320.61154754538609
42
-0.41421356237312629
10
265.58091219769557
20
321.61154754538609
10
283.58091219769551
20
321.61154754538614
42
-0.41421356237312629
10
284.58091219769551
20
320.61154754538609
10
284.58091219769551
20
302.61154754538597
42
-0.41421356237308465
10
283.58091219769551
20
301.61154754538609
0
LWPOLYLINE
5
436
100
AcDbEntity
8
0
100
AcDbPolyline
90
8
70
1
43
0.0
10
93.130712197695615
20
206.31154754538562
42
-0.41421356237309509
10
94.13071219769563
20
207.31154754538565
10
131.18091219769576
20
207.31154754538565
42
-0.41421356237309509
10
132.18091219769576
20
206.31154754538562
10
132.18091219769576
20
93.061447545385363
42
-0.41421356237311585
10
131.18091219769576
20
92.06144754538542
10
94.13071219769563
20
92.061447545385448
42
-0.41421356237309509
10
93.130712197695615
20
93.061447545385477
0
LWPOLYLINE
5
437
100
AcDbEntity
8
0
100
AcDbPolyline
90
8
70
1
43
0.0
10
145.51741219769565
20
206.31154754538571
42
-0.41421356237309509
10
146.51741219769565
20
207.31154754538574
10
202.61741219769567
20
207.31154754538574
42
-0.41421356237311585
10
203.6174121976957
20
206.31154754538562
10
203.6174121976957
20
169.26154754538561
42
-0.41421356237308465
10
202.61741219769567
20
168.26154754538564
10
146.51741219769565
20
168.26154754538567
42
-0.41421356237309509
10
145.51741219769568
20
169.26154754538567
0
LWPOLYLINE
5
438
100
AcDbEntity
8
0
100
AcDbPolyline
90
10
70
1
43
0.0
10
442.42845873975676
20
206.09147899197637
42
-0.41421356237299095
10
442.92845873975665
20
206.59147899197637
10
478.52845873975662
20
206.59147899197646
10
478.5284587397569
20
127.59147951351753
10
486.0284587397569
20
127.59147951351753
10
486.0284587397569
20
120.0914795135175
42
-0.41421356237311585
10
485.5284587397569
20
119.5914795135175
10
449.92845873975688
20
119.5914795135175
10
449.92845873975676
20
198.59147899197635
10
442.42845873975676
20
198.59147899197632
0
CIRCLE
5
439
100
AcDbEntity
8
0
100
AcDbCircle
10
321.32663354989756
20
232.81204754538584
30
0
40
5.5000000000000071
0
LWPOLYLINE
5
440
100
AcDbEntity
8
0
100
AcDbPolyline
90
8
70
1
43
0.0
10
145.51741219769571
20
158.68654754538559
42
-0.41421356237309509
10
146.51741219769571
20
159.68654754538559
10
202.61741219769584
20
159.68654754538559
42
-0.41421356237308465
10
203.61741219769581
20
158.68654754538559
10
203.61741219769581
20
64.487127545385405
42
-0.41421356237310542
10
202.61741219769578
20
63.487127545385427
10
146.51741219769571
20
63.487127545385462
42
-0.41421356237309509
10
145.51741219769571
20
64.487127545385448
0
LWPOLYLINE
5
441
100
AcDbEntity
8
0
100
AcDbPolyline
90
8
70
1
43
0.0
10
379.83091219769551
20
302.61154754538609
42
-0.41421356237311585
10
378.83091219769545
20
301.61154754538609
10
360.8309121976954
20
301.61154754538614
42
-0.41421356237309509
10
359.83091219769551
20
302.61154754538609
10
359.83091219769551
20
320.61154754538614
42
-0.41421356237311585
10
360.8309121976954
20
321.61154754538614
10
378.83091219769545
20
321.61154754538614
42
-0.41421356237315754
10
379.83091219769551
20
320.61154754538609
0
LWPOLYLINE
5
442
100
AcDbEntity
8
0
100
AcDbPolyline
90
8
70
1
43
0.0
10
175.09241219769552
20
301.61154754538592
42
-0.41421356237309509
10
174.09241219769555
20
302.61154754538586
10
174.09241219769558
20
320.61154754538597
42
-0.41421356237307422
10
175.09241219769552
20
321.61154754538586
10
193.09241219769552
20
321.61154754538586
42
-0.41421356237310542
10
194.09241219769555
20
320.61154754538592
10
194.09241219769552
20
302.6115475453858
42
-0.41421356237308465
10
193.09241219769552
20
301.61154754538592
0
LWPOLYLINE
5
443
100
AcDbEntity
8
0
100
AcDbPolyline
90
8
70
1
43
0.0
10
346.54341219769572
20
63.487127545385533
42
-0.41421356237307422
10
345.54341219769577
20
64.487127545385547
10
345.54341219769583
20
158.68654754538582
42
-0.41421356237307422
10
346.54341219769572
20
159.68654754538579
10
364.54341219769583
20
159.68654754538576
42
-0.41421356237307422
10
365.54341219769572
20
158.68654754538582
10
365.54341219769572
20
64.487127545385547
42
-0.41421356237307422
10
364.54341219769583
20
63.487127545385569
0
LWPOLYLINE
5
444
100
AcDbEntity
8
0
100
AcDbPolyline
90
8
70
1
43
0.0
10
93.130712197695615
20
234.88654754538572
42
-0.41421356237309509
10
94.13071219769563
20
235.88654754538572
10
131.18091219769559
20
235.88654754538572
42
-0.41421356237309509
10
132.18091219769562
20
234.88654754538572
10
132.18091219769559
20
216.88654754538567
42
-0.41421356237309509
10
131.18091219769559
20
215.8865475453857
10
94.13071219769563
20
215.88654754538567
42
-0.41421356237309509
10
93.130712197695615
20
216.88654754538567
0
ENDSEC
0
SECTION
2
OBJECTS
0
DICTIONARY
5
C
100
AcDbDictionary
3
ACAD_GROUP
350
D
3
ACAD_MLINESTYLE
350
17
0
DICTIONARY
5
D
100
AcDbDictionary
0
DICTIONARY
5
1A
330
C
100
AcDbDictionary
0
DICTIONARY
5
17
100
AcDbDictionary
0
ENDSEC
0
EOF
